<svg width="334" height="386" viewBox="0 0 334 386" fill="none" xmlns="http://www.w3.org/2000/svg">
<path d="M326.95 377.071H325.99V370.345H319.3V363.348H313.21H306.46H305.57V362.686L305.54 356.591H298.88V349.865H292.07V343.019H285.35V342.417L285.49 336.172H278.45V329.325H271.64V322.479H264.83V315.612L258.72 315.632C258.41 315.632 258.1 315.632 257.78 315.632C257.78 315.392 257.78 315.141 257.78 314.901V308.786H250.97V301.939H244.16V295.093H229.58H227.9C226.75 295.093 225.6 295.093 224.45 295.093H223.73C223.73 294.551 223.73 294.01 223.73 293.479C223.73 293.459 223.73 293.439 223.73 293.419C223.97 293.419 224.22 293.419 224.46 293.419L230.54 293.399V286.572H237.34V280.457C237.34 279.465 237.34 278.473 237.34 277.48C237.34 276.187 237.34 274.904 237.34 273.621C237.34 272.388 237.34 271.145 237.34 269.912C237.34 268.859 237.34 267.817 237.34 266.774C237.34 266.534 237.34 266.283 237.34 266.043H244.15V238.656C244.4 238.656 244.64 238.656 244.89 238.656H245.59H251.69H252.75C253.81 238.656 254.88 238.656 255.94 238.656C256.86 238.656 257.79 238.656 258.71 238.656L264.81 238.677V232.542C264.81 232.301 264.81 232.061 264.81 231.82H265.54H271.63V225.705V211.29H278.44V177.559C278.44 175.484 278.44 173.409 278.44 171.334C278.44 168.848 278.44 166.352 278.44 163.866V157.711L272.33 157.731C272.1 157.731 271.86 157.731 271.63 157.731V150.884H264.82V142.594H271.62V136.48C271.63 135.397 271.63 134.304 271.63 133.212C271.63 132.019 271.63 130.826 271.63 129.633C271.63 126.034 271.63 122.376 271.63 118.837C271.63 117.624 271.63 116.411 271.63 115.198H278.44V108.352H285.25V82.409H279.16H278.44C278.44 79.8829 278.44 77.3568 278.44 74.8307C278.44 72.6856 278.44 70.5404 278.44 68.3952C278.44 65.8992 278.44 63.3931 278.44 60.8971L278.42 54.7923H272.34H271.62V54.0706V47.9759L265.56 47.9458C265.31 47.9458 265.06 47.9458 264.81 47.9458V34.2728H258.73C257.87 34.2628 257.01 34.2628 256.15 34.2628C254.81 34.2628 253.47 34.2628 252.13 34.2628C250.79 34.2628 249.46 34.2628 248.12 34.2628C247.04 34.2628 245.96 34.2628 244.88 34.2628C244.64 34.2628 244.39 34.2628 244.15 34.2628V33.541V27.4162H230.53C230.53 24.9001 230.53 22.354 230.53 19.8279C230.53 18.5448 230.53 17.2517 230.53 15.9686C230.53 14.9762 230.53 13.9838 230.53 12.9914V6.87661H224.45H223.72V0H190.95H190.23H185.28H184.14H183.42H123.92H122.78H122.06H117.11H115.97H115.25H109.16V6.11477V6.83651C109.12 6.83651 109.07 6.83651 109.03 6.83651C107.65 6.83651 106.27 6.83651 104.9 6.83651C103.81 6.83651 102.71 6.83651 101.62 6.83651C101.07 6.83651 100.51 6.83651 99.96 6.83651H97.79H95.6H94.82H88.73V12.9513V13.673C88.49 13.673 88.24 13.673 88 13.673C87.45 13.673 86.9 13.673 86.36 13.673H84.17H81.97H81.2H75.13L75.11 19.7677C75.11 20.0184 75.11 20.2589 75.11 20.5095C74.86 20.5095 74.62 20.5095 74.37 20.5095L68.3 20.5296V26.6243C68.3 26.8649 68.3 27.1055 68.3 27.3561C68.05 27.3561 67.81 27.3561 67.56 27.3561L61.49 27.3761V33.4809C61.49 35.4957 61.49 37.5206 61.49 39.5455C61.49 40.0467 61.49 40.558 61.49 41.0592H60.77H54.68V47.184C54.68 48.1764 54.68 49.1788 54.68 50.1812C54.68 51.4643 54.68 52.7474 54.68 54.0305C54.68 54.2811 54.68 54.5217 54.68 54.7723H53.96H52.09H48.13H47.15H41.06V60.8871C41.06 61.9196 41.06 62.942 41.06 63.9745C41.06 65.3077 41.06 66.6309 41.06 67.9541C41.06 69.1871 41.06 70.4101 41.06 71.6431C41.06 72.6956 41.06 73.7481 41.06 74.8007C41.06 77.3468 41.06 79.8829 41.06 82.379H40.35H34.26V88.4937C34.26 89.4861 34.26 90.4886 34.26 91.481C34.26 92.7641 34.26 94.0472 34.26 95.3303C34.26 97.726 34.26 100.132 34.26 102.538C34.26 104.703 34.26 106.868 34.26 109.023V115.128L40.32 115.158C40.57 115.158 40.82 115.158 41.07 115.158V121.995H47.16H47.88C47.88 122.245 47.88 122.486 47.88 122.736C47.88 124.01 47.88 125.283 47.88 126.566C47.88 127.568 47.88 128.571 47.88 129.573V135.688H53.97H54.69V136.409C54.69 140.058 54.69 143.717 54.69 147.376C54.69 148.529 54.69 149.672 54.69 150.824H49.85H47.17H41.08V190.691H47.89V213.826C47.89 215.48 47.89 217.134 47.89 218.788V224.923H53.98H54.7C54.7 225.164 54.7 225.414 54.7 225.655V231.77H61.51V238.606H67.59L68.86 238.616H70.84H72.81C73.34 238.616 73.87 238.616 74.39 238.616C74.88 238.616 75.37 238.616 75.86 238.616H77.84H79.8C80.27 238.616 80.74 238.616 81.21 238.616C81.45 238.616 81.7 238.616 81.94 238.616C81.94 238.867 81.94 239.108 81.94 239.358C81.94 240.581 81.94 241.804 81.94 243.037C81.94 244.09 81.94 245.152 81.94 246.205V252.319H88.75C88.75 253.322 88.75 254.324 88.75 255.317C88.75 256.84 88.75 258.364 88.75 259.888V272.839L94.82 272.859C95.06 272.859 95.31 272.859 95.55 272.859V286.512L101.61 286.542C101.86 286.542 102.11 286.542 102.36 286.542C102.36 286.783 102.36 287.033 102.36 287.274C102.36 288.547 102.36 289.82 102.36 291.093C102.36 292.176 102.36 293.268 102.36 294.351C102.36 294.592 102.36 294.822 102.36 295.063H95.55V301.909H94.83H88.74V308.024C88.74 309.026 88.74 310.029 88.74 311.031C88.74 312.314 88.74 313.587 88.74 314.871C88.74 315.121 88.74 315.362 88.74 315.612H75.11V321.747C75.12 323.09 75.12 324.444 75.12 325.797V328.584V329.305H68.33L68.31 335.41C68.31 336.643 68.31 337.876 68.31 339.109C68.31 340.162 68.31 341.214 68.31 342.257C68.31 342.497 68.31 342.748 68.31 342.988H61.5V349.835C61.25 349.835 61.01 349.835 60.77 349.835C60.21 349.835 59.65 349.835 59.1 349.835H56.93H54.74H53.97H47.89V355.95C47.89 356.19 47.89 356.441 47.89 356.682C47.65 356.682 47.42 356.682 47.18 356.682H46.01H44.02H42.04C41.49 356.682 40.93 356.682 40.38 356.682L34.25 356.661L34.27 362.816C34.27 363.047 34.27 363.288 34.27 363.518C34.02 363.518 33.78 363.518 33.54 363.518C32.96 363.518 32.38 363.518 31.81 363.518H29.57H27.32H26.51H20.43V369.633C20.43 369.873 20.43 370.124 20.43 370.365H19.7L13.62 370.375V377.211H0V390.182H333.06V389.882V377.031H326.97L326.95 377.071Z" fill="white"/>
<path d="M265.51 156.979H250.14V178.852H265.51V156.979Z" fill="#43495A"/>
<path d="M272.33 177.509H244.97V205.125H272.33V177.509Z" fill="white"/>
<path d="M265.34 197.738H237.98V225.354H265.34V197.738Z" fill="white"/>
<path d="M60.75 170.662H47.13V184.586H60.75V170.662Z" fill="white"/>
<path d="M74.4801 184.476H53.9401V211.972H74.4801V184.476Z" fill="white"/>
<path d="M203.99 6.12479V12.9713C206.26 12.9713 208.53 12.9713 210.8 12.9713V19.8179C213.07 19.8179 215.34 19.8179 217.61 19.8179H224.42C224.44 26.6644 224.41 33.5109 224.42 40.3575H231.23C231.23 38.082 231.23 35.7864 231.23 33.5109H238.04C238.04 35.7864 238.04 38.082 238.04 40.3575C240.31 40.3575 242.58 40.3575 244.85 40.3575C249.46 40.3675 254.09 40.3575 258.7 40.3575V54.0506C260.97 54.0506 263.24 54.0405 265.51 54.0506V60.8971H272.32C272.33 65.5383 272.32 70.1895 272.32 74.8207C272.32 79.4519 272.32 83.9528 272.32 88.5138H279.13V102.207H272.32V109.053H265.51C265.5 115.9 265.53 122.746 265.51 129.593C265.51 131.869 265.51 134.164 265.51 136.44H258.7V156.979C256.35 156.979 254 156.979 251.65 156.979C251.65 159.255 251.65 161.55 251.65 163.826C251.65 166.101 251.65 168.397 251.65 170.672C251.65 172.948 251.65 175.243 251.65 177.519C254 177.519 256.35 177.519 258.7 177.519C258.7 179.874 258.7 182.24 258.7 184.606C258.7 186.972 258.7 189.177 258.7 191.452C256.35 191.452 254 191.452 251.65 191.452H244.84C244.84 184.536 244.84 177.599 244.84 170.682C244.84 163.836 244.84 156.989 244.84 150.143H238.03V129.603H231.22C231.22 120.481 231.22 111.339 231.22 102.217C228.95 102.217 226.68 102.227 224.41 102.217V95.3704C228.95 95.3704 233.49 95.3704 238.03 95.3704V88.5238C233.49 88.5238 228.95 88.5238 224.41 88.5238V81.6773H231.22C231.22 79.4018 231.22 77.1062 231.22 74.8307C235.76 74.8307 240.3 74.8408 244.84 74.8307C247.11 74.8307 249.38 74.8307 251.65 74.8307V67.9842H258.69V60.8971H244.84V54.0506H238.03V47.204H231.22C231.22 51.765 231.22 56.3361 231.22 60.8971C231.22 63.2528 231.22 65.6185 231.22 67.9842C228.95 67.9842 226.68 67.9842 224.41 67.9842C219.87 67.9842 215.33 67.9842 210.79 67.9842V54.0506C215.33 54.0506 219.87 54.0506 224.41 54.0506V47.204C222.14 47.204 219.87 47.204 217.6 47.204V40.3575H210.79C210.79 42.633 210.79 44.9285 210.79 47.204C208.52 47.204 206.25 47.204 203.98 47.204V33.5109C206.25 33.5109 208.52 33.5109 210.79 33.5109V26.6644C201.71 26.6444 192.63 26.6845 183.55 26.6644C183.54 24.3889 183.55 22.0934 183.55 19.8179H176.74V26.6644C179.01 26.6644 181.28 26.6644 183.55 26.6644C183.56 28.9399 183.55 31.2354 183.55 33.5109C185.82 33.5109 188.09 33.5109 190.36 33.5109V40.3575C188.09 40.3575 185.82 40.3575 183.55 40.3575C181.28 40.3575 179.01 40.3575 176.74 40.3575C176.74 38.082 176.74 35.7864 176.74 33.5109H169.93C169.93 35.7864 169.93 38.082 169.93 40.3575C172.2 40.3575 174.47 40.3575 176.74 40.3575C176.74 42.633 176.74 44.9285 176.74 47.204C174.47 47.204 172.2 47.204 169.93 47.204C169.93 49.4795 169.93 51.7751 169.93 54.0506H163.12C163.12 51.7751 163.12 49.4795 163.12 47.204C165.39 47.204 167.66 47.204 169.93 47.204C169.93 44.9285 169.93 42.633 169.93 40.3575C167.66 40.3575 165.39 40.3575 163.12 40.3575C163.12 38.082 163.12 35.7864 163.12 33.5109H156.31V40.3575C158.58 40.3575 160.85 40.3575 163.12 40.3575C163.12 42.633 163.12 44.9285 163.12 47.204C158.58 47.204 154.04 47.204 149.5 47.204V54.0506H156.31V60.8971C154.04 60.8971 151.77 60.8971 149.5 60.8971V67.9842C149.5 68.325 155.71 67.9842 156.31 67.9842V74.8307H163.12C163.12 72.5553 163.12 70.2597 163.12 67.9842C163.12 65.6285 163.12 63.2628 163.12 60.8971C165.39 60.8971 167.66 60.8971 169.93 60.8971C169.93 58.6216 169.93 56.326 169.93 54.0506H183.55C183.55 56.326 183.55 58.6216 183.55 60.8971C183.55 65.5383 183.55 70.1895 183.55 74.8207H190.36V67.9742H197.17V60.8871C197.17 60.5462 190.96 60.8871 190.36 60.8871V54.0405C192.63 54.0405 194.9 54.0405 197.17 54.0405C199.44 54.0405 201.71 54.0405 203.98 54.0405V74.8107H210.79C211.13 74.8107 210.79 81.0558 210.79 81.6572H217.6C217.6 83.9327 217.6 86.2283 217.6 88.5038C219.87 88.5038 222.14 88.5038 224.41 88.5038V95.3503C222.14 95.3503 219.87 95.3503 217.6 95.3503C217.6 93.0748 217.6 90.7793 217.6 88.5038C215.33 88.5038 213.06 88.5038 210.79 88.5038V81.6572C208.52 81.6572 206.25 81.6572 203.98 81.6572C203.98 83.9327 203.98 86.2283 203.98 88.5038C201.71 88.5038 199.44 88.5038 197.17 88.5038V81.6572H190.36C190.02 81.6572 190.36 87.9023 190.36 88.5038C185.82 88.5038 181.28 88.5038 176.74 88.5038C172.2 88.5038 167.66 88.5038 163.12 88.5038C160.85 88.5038 158.58 88.5038 156.31 88.5038C156.31 86.2283 156.31 83.9327 156.31 81.6572C154.04 81.6572 151.77 81.6572 149.5 81.6572C149.5 79.3817 149.5 77.0862 149.5 74.8107H142.46V81.6572C144.8 81.6572 147.16 81.6572 149.5 81.6572C149.5 83.9327 149.5 86.2283 149.5 88.5038C142.62 88.5038 135.72 88.5038 128.83 88.5038V95.3503C126.56 95.3503 124.29 95.3503 122.02 95.3503C119.75 95.3503 117.48 95.3503 115.21 95.3503C115.21 97.6258 115.21 99.9213 115.21 102.197C115.21 104.472 115.21 106.768 115.21 109.043C115.21 111.319 115.21 113.614 115.21 115.89C112.94 115.89 110.67 115.89 108.4 115.89V109.043H101.59C101.59 111.319 101.59 113.614 101.59 115.89C99.32 115.89 97.05 115.89 94.78 115.89V122.736C97.05 122.736 99.32 122.726 101.59 122.736C101.59 127.297 101.59 131.869 101.59 136.43C101.59 138.705 101.59 141.001 101.59 143.276H94.78V156.969C97.05 156.969 99.32 156.959 101.59 156.969C101.59 159.245 101.59 161.54 101.59 163.816C99.32 163.826 97.05 163.816 94.78 163.816V170.662H101.59C101.59 168.387 101.59 166.091 101.59 163.816C103.86 163.806 106.13 163.816 108.4 163.816V156.969C106.13 156.969 103.86 156.979 101.59 156.969C101.59 154.694 101.59 152.398 101.59 150.123H108.4C117.48 150.123 126.56 150.133 135.64 150.123C140.25 150.123 144.88 150.133 149.49 150.123C149.49 152.398 149.49 154.694 149.49 156.969C149.49 159.245 149.49 161.54 149.49 163.816H156.3V177.509H149.49C149.49 175.233 149.49 172.938 149.49 170.662H142.45C142.45 172.938 142.45 175.233 142.45 177.509C142.45 179.864 142.45 182.23 142.45 184.596C142.45 186.871 142.45 189.167 142.45 191.442H135.64C135.64 193.718 135.64 196.013 135.64 198.289C133.37 198.289 131.1 198.279 128.83 198.289V191.442H135.64C135.64 189.167 135.64 186.871 135.64 184.596V170.672H128.83V177.519C126.56 177.519 124.29 177.519 122.02 177.519C122.02 175.243 122.02 172.948 122.02 170.672H115.21C115.21 172.948 115.21 175.243 115.21 177.519C112.94 177.519 110.67 177.519 108.4 177.519C108.4 179.874 108.4 182.24 108.4 184.606H101.59C101.59 186.881 101.59 189.177 101.59 191.452C99.32 191.452 97.05 191.452 94.78 191.452V177.529C94.78 177.188 88.57 177.529 87.97 177.529C87.97 172.968 87.97 168.397 87.97 163.836H81.16C81.16 168.397 81.16 172.968 81.16 177.529C81.15 184.446 81.16 191.382 81.16 198.309H87.97C87.97 200.584 87.97 202.88 87.97 205.156C87.97 207.431 87.97 209.727 87.97 212.002H94.78C94.78 214.278 94.78 216.573 94.78 218.849C94.78 221.124 94.78 223.42 94.78 225.695H101.59C101.59 227.971 101.59 230.266 101.59 232.542C101.59 234.817 101.59 237.113 101.59 239.388H108.4C108.41 243.949 108.4 248.52 108.4 253.081C108.4 255.357 108.4 257.652 108.4 259.928H94.78C94.78 255.367 94.79 250.796 94.78 246.235C94.78 243.959 94.78 241.664 94.78 239.388H87.97C87.97 237.113 87.97 234.817 87.97 232.542C85.7 232.542 83.43 232.542 81.16 232.542V218.849H74.35C74.35 216.573 74.36 214.278 74.35 212.002C74.34 209.727 74.35 207.431 74.35 205.156H67.54C67.54 202.88 67.55 200.584 67.54 198.309C67.53 196.034 67.54 193.738 67.54 191.462H60.73C60.72 186.821 60.73 182.17 60.73 177.539C60.73 175.263 60.73 172.968 60.73 170.692C58.46 170.692 56.19 170.692 53.92 170.692C53.92 168.417 53.92 166.121 53.92 163.846C56.19 163.846 58.46 163.846 60.73 163.846C60.73 166.121 60.73 168.417 60.73 170.692C63 170.692 65.27 170.692 67.54 170.692C67.54 172.968 67.54 175.263 67.54 177.539H74.35V170.692C72.08 170.692 69.81 170.692 67.54 170.692C67.54 168.417 67.54 166.121 67.54 163.846C69.81 163.846 72.08 163.846 74.35 163.846C74.35 161.57 74.35 159.275 74.35 156.999C74.36 152.438 74.35 147.867 74.35 143.306C74.35 138.745 74.35 134.174 74.35 129.613H67.54C67.54 127.338 67.54 125.042 67.54 122.767C65.27 122.767 63 122.767 60.73 122.767C60.73 120.491 60.73 118.195 60.73 115.92C60.73 113.644 60.73 111.349 60.73 109.073C60.73 106.798 60.73 104.502 60.73 102.227C58.46 102.227 56.19 102.237 53.92 102.227V95.3804H60.73V88.5338H53.92V81.6873H60.73C60.73 79.4118 60.73 77.1163 60.73 74.8408C60.73 72.5653 60.73 70.2697 60.73 67.9942H67.54C67.54 70.2697 67.54 72.5653 67.54 74.8408C69.81 74.8408 72.08 74.8408 74.35 74.8408C76.62 74.8408 78.89 74.8408 81.16 74.8408C81.16 72.5653 81.16 70.2697 81.16 67.9942C81.16 65.6385 81.16 63.2728 81.16 60.9071C78.89 60.9071 76.62 60.9071 74.35 60.9071V47.214C74.35 42.653 74.34 38.082 74.35 33.521C76.62 33.5109 78.89 33.521 81.16 33.521C81.16 31.2455 81.15 28.9499 81.16 26.6744C83.43 26.6644 85.7 26.6744 87.97 26.6744V19.8279C90.24 19.8279 92.51 19.8279 94.78 19.8279C97.05 19.8279 99.32 19.8279 101.59 19.8279V12.9814C106.13 12.9713 110.67 12.9814 115.21 12.9814V6.13482H203.97L203.99 6.12479ZM149.52 12.9713V19.8179H169.95V12.9713H149.52ZM128.85 19.8179H115.23V26.6644H128.85V19.8179ZM115.23 47.204V33.5109H101.61V47.204C103.88 47.204 106.15 47.204 108.42 47.204V54.0506C110.69 54.0506 112.96 54.0506 115.23 54.0506V60.8971C112.96 60.9071 110.69 60.8971 108.42 60.8971C108.42 63.2528 108.42 65.6185 108.42 67.9842C106.15 67.9942 103.88 67.9842 101.61 67.9842V81.6773H108.42C108.42 77.1163 108.41 72.5452 108.42 67.9842C110.69 67.9742 112.96 67.9842 115.23 67.9842C115.23 65.6285 115.23 63.2628 115.23 60.8971C117.5 60.8871 119.77 60.8971 122.04 60.8971V54.0506C124.3 54.0506 126.58 54.0506 128.85 54.0506V47.204C124.31 47.204 119.77 47.214 115.23 47.204ZM128.85 33.5109V40.3575H135.66V33.5109H128.85ZM128.85 74.8207V81.6673H135.66V74.8207H128.85ZM94.8 102.207H101.61V88.5138H94.8V102.207Z" fill="#343736"/>
<path d="M115.23 259.898C115.24 264.459 115.23 269.03 115.23 273.591C117.5 273.591 119.77 273.591 122.04 273.591V280.437C122.04 285.079 122.05 289.73 122.04 294.361C119.77 294.361 117.5 294.361 115.23 294.361C115.23 296.636 115.23 298.932 115.23 301.208H122.04C122.04 298.932 122.04 296.636 122.04 294.361C124.31 294.361 126.58 294.361 128.85 294.361V301.208C131.12 301.208 133.39 301.208 135.66 301.208C135.66 303.483 135.66 305.779 135.66 308.054C137.93 308.054 140.2 308.054 142.47 308.054C142.47 310.33 142.47 312.625 142.47 314.901C144.82 314.901 147.17 314.901 149.52 314.901C160.86 314.931 172.22 314.931 183.57 314.901C185.84 314.901 188.11 314.901 190.38 314.901V308.054C192.65 308.054 194.92 308.054 197.19 308.054C197.19 305.779 197.19 303.483 197.19 301.208H204V287.284H210.81C210.81 282.723 210.81 278.152 210.81 273.591C215.35 273.591 219.89 273.591 224.43 273.591V287.284C222.16 287.284 219.89 287.284 217.62 287.284C217.62 291.925 217.62 296.576 217.62 301.218H210.81C210.81 303.493 210.81 305.789 210.81 308.064H204C204 310.34 204 312.635 204 314.911C204 317.186 204 319.482 204 321.757H197.19C197.19 324.033 197.19 326.328 197.19 328.604C194.92 328.614 192.65 328.604 190.38 328.604C190.38 330.879 190.38 333.175 190.38 335.45H176.76V342.297H163.14C163.14 346.858 163.14 351.429 163.14 355.99C160.87 355.99 158.6 355.99 156.33 355.99C154.06 355.99 151.79 355.99 149.52 355.99C144.91 355.99 140.28 355.99 135.67 355.99V349.143C133.4 349.143 131.13 349.153 128.86 349.143C128.86 346.868 128.86 344.572 128.86 342.297H122.05C122.04 340.021 122.05 337.726 122.05 335.45C119.78 335.45 117.51 335.46 115.24 335.45C115.24 333.175 115.24 330.879 115.24 328.604H108.43C108.42 326.328 108.43 324.033 108.43 321.757H101.62C101.62 319.482 101.62 317.186 101.62 314.911H108.43C108.43 312.635 108.43 310.34 108.43 308.064C108.43 305.789 108.43 303.493 108.43 301.218C108.43 298.942 108.43 296.647 108.43 294.371H115.24C115.24 292.015 115.24 289.65 115.24 287.284H108.43C108.43 285.008 108.43 282.713 108.43 280.437C106.16 280.437 103.89 280.447 101.62 280.437V266.744C103.89 266.744 106.16 266.744 108.43 266.744C108.43 264.469 108.43 262.173 108.43 259.898C110.7 259.898 112.97 259.898 115.24 259.898H115.23Z" fill="#343736"/>
<path d="M122.04 115.9C122.04 118.175 122.04 120.471 122.04 122.746H115.23C115.23 120.471 115.23 118.175 115.23 115.9H122.04Z" fill="#343736"/>
<path d="M272.33 163.816C272.32 168.377 272.33 172.948 272.33 177.509C270.06 177.509 267.79 177.509 265.52 177.509C263.25 177.509 260.98 177.509 258.71 177.509C258.71 175.233 258.71 172.938 258.71 170.662C260.98 170.662 263.25 170.662 265.52 170.662C265.52 168.387 265.52 166.091 265.52 163.816C267.79 163.816 270.06 163.816 272.33 163.816Z" fill="#343736"/>
<path d="M231.23 266.744C231.23 269.02 231.23 271.315 231.23 273.591H224.42C224.42 271.315 224.42 269.02 224.42 266.744H231.23Z" fill="#343736"/>
<path d="M217.61 253.051H224.42C224.42 257.612 224.42 262.183 224.42 266.744C222.15 266.744 219.88 266.744 217.61 266.744C217.61 264.469 217.61 262.173 217.61 259.898C217.61 257.622 217.61 255.327 217.61 253.051Z" fill="#343736"/>
<path d="M244.85 170.662C244.85 177.579 244.85 184.516 244.85 191.432C244.85 193.708 244.85 196.003 244.85 198.279H238.04C238.04 191.362 238.02 184.425 238.04 177.509C238.04 175.233 238.04 172.938 238.04 170.662H244.85Z" fill="#796C9D"/>
<path d="M81.18 342.287C81.18 344.562 81.18 346.858 81.18 349.133C78.91 349.133 76.64 349.133 74.37 349.133C74.37 346.858 74.37 344.562 74.37 342.287H81.18Z" fill="#43495A"/>
<path d="M47.13 376.519C47.13 378.795 47.13 381.091 47.13 383.366C47.13 385.561 47.13 388.388 47.13 390.583H108.42C108.46 389.29 108.73 383.366 108.42 383.366H101.61C101.61 381.091 101.61 378.795 101.61 376.519C101.6 371.958 101.61 367.387 101.61 362.826H94.8V349.133H101.61C101.61 346.858 101.61 344.562 101.61 342.287H94.8C94.8 340.011 94.8 337.716 94.8 335.44C94.79 330.879 94.8 326.308 94.8 321.747H87.99C87.98 324.023 87.99 326.318 87.99 328.594C85.72 328.594 83.45 328.584 81.18 328.594C81.18 330.869 81.18 333.165 81.18 335.44C81.18 337.716 81.18 340.011 81.18 342.287C81.18 344.562 81.18 346.858 81.18 349.133C78.91 349.133 76.64 349.133 74.37 349.133C74.37 351.409 74.37 353.704 74.37 355.98C74.37 358.255 74.37 360.551 74.37 362.826C72.1 362.826 69.83 362.826 67.56 362.826C67.56 365.102 67.56 367.397 67.56 369.673H60.75V362.826C58.48 362.826 56.21 362.826 53.94 362.826C53.94 365.102 53.94 367.397 53.94 369.673C53.94 371.948 53.94 374.244 53.94 376.519C51.67 376.519 49.4 376.519 47.13 376.519Z" fill="#343736"/>
<path d="M40.32 383.366C40.32 381.091 40.32 378.795 40.32 376.519C38.05 376.519 35.78 376.519 33.51 376.519C33.51 378.795 33.51 381.091 33.51 383.366H26.46C26.46 385.561 26.46 388.388 26.46 390.583H40.31C40.31 388.388 40.31 385.561 40.31 383.366H40.32Z" fill="#343736"/>
<path d="M217.61 12.9713V19.8179C215.34 19.8179 213.07 19.8179 210.8 19.8179V12.9713C213.07 12.9713 215.34 12.9713 217.61 12.9713Z" fill="#43495A"/>
<path d="M217.61 6.12479V12.9713C215.34 12.9713 213.07 12.9713 210.8 12.9713C208.53 12.9713 206.26 12.9713 203.99 12.9713V6.12479H217.61Z" fill="#796C9D"/>
<path d="M217.61 12.9713C219.88 12.9713 222.15 12.9713 224.42 12.9713C224.42 15.2468 224.42 17.5424 224.42 19.8179H217.61V12.9713Z" fill="#796C9D"/>
<path d="M74.3701 143.286C74.3701 147.847 74.3801 152.418 74.3701 156.979H67.5601C67.5601 152.418 67.5601 147.847 67.5601 143.286H74.3701Z" fill="#796C9D"/>
<path d="M108.42 184.596C108.42 186.871 108.42 189.167 108.42 191.442C112.96 191.442 117.5 191.442 122.04 191.442H128.85V198.289C131.12 198.279 133.39 198.289 135.66 198.289C135.66 196.013 135.66 193.718 135.66 191.442H142.47C142.46 202.85 142.47 214.268 142.47 225.675V232.522H135.66V239.368C137.93 239.368 140.2 239.368 142.47 239.368C144.74 239.368 147.17 239.368 149.51 239.368C149.51 241.644 149.51 243.939 149.51 246.215C151.78 246.215 154.05 246.215 156.32 246.215C158.59 246.215 160.86 246.215 163.13 246.215V253.061C160.86 253.061 158.59 253.061 156.32 253.061V259.908C151.71 259.908 147.08 259.908 142.47 259.908C142.47 259.306 142.81 253.061 142.47 253.061H128.85V246.215H122.04V239.368H115.23V225.675H108.42V218.829C106.15 218.829 103.88 218.829 101.61 218.829C101.61 214.268 101.61 209.697 101.61 205.135H115.23C115.24 207.411 115.23 209.707 115.23 211.982H128.85C128.85 209.707 128.85 207.411 128.85 205.135C128.85 202.86 128.85 200.564 128.85 198.289C126.58 198.299 124.31 198.289 122.04 198.289V205.135H115.23C115.22 202.86 115.23 200.564 115.23 198.289C112.96 198.289 110.69 198.289 108.42 198.289C108.42 196.013 108.42 193.718 108.42 191.442C106.15 191.442 103.88 191.442 101.61 191.442C101.61 189.167 101.61 186.871 101.61 184.596H108.42Z" fill="#CECFE9"/>
<path d="M149.52 184.596H163.14C163.14 189.157 163.14 193.728 163.14 198.289C163.14 200.564 163.14 202.86 163.14 205.135C163.14 207.411 163.14 209.707 163.14 211.982C163.14 214.258 163.14 216.553 163.14 218.829C160.87 218.829 158.6 218.829 156.33 218.829C156.33 221.104 156.34 223.4 156.33 225.675H142.48C142.48 214.268 142.47 202.85 142.48 191.442C142.48 189.167 142.48 186.871 142.48 184.596H149.52Z" fill="#796C9D"/>
<path d="M81.1801 177.509C81.1801 172.948 81.1801 168.377 81.1801 163.816H87.9901C87.9901 168.377 87.9901 172.948 87.9901 177.509C88.5901 177.509 94.8 177.168 94.8 177.509V191.432C97.07 191.432 99.3401 191.432 101.61 191.432C101.61 193.708 101.61 196.003 101.61 198.279C101.61 200.554 101.61 202.85 101.61 205.125C101.61 209.686 101.61 214.258 101.61 218.819C103.88 218.819 106.15 218.819 108.42 218.819V225.665H115.23V239.358H122.04V246.205H128.85V253.051H142.47C142.81 253.051 142.47 259.296 142.47 259.898C137.93 259.898 133.39 259.898 128.85 259.898C128.85 262.173 128.85 264.469 128.85 266.744C126.58 266.744 124.31 266.744 122.04 266.744V259.898C119.77 259.898 117.5 259.898 115.23 259.898C115.23 257.622 115.23 255.327 115.23 253.051H108.42C108.42 248.49 108.43 243.919 108.42 239.358C108.42 237.083 108.42 234.787 108.42 232.512H101.61C101.61 230.236 101.61 227.941 101.61 225.665C101.61 223.39 101.61 221.094 101.61 218.819C99.3401 218.819 97.07 218.819 94.8 218.819C94.8 216.543 94.8 214.248 94.8 211.972C94.8 209.697 94.8 207.401 94.8 205.125H87.9901C87.9901 202.85 87.9901 200.554 87.9901 198.279C87.9801 191.362 88.0001 184.425 87.9901 177.509H81.1801Z" fill="#796C9D"/>
<path d="M231.23 129.593H238.04V150.133H244.85C244.85 156.979 244.85 163.826 244.85 170.672H238.04C238.04 172.948 238.04 175.243 238.04 177.519C235.77 177.519 233.5 177.519 231.23 177.519V170.672H224.42V163.826H238.04V156.979H210.8V163.826H238.04V156.979H231.23V150.133C231.23 143.286 231.23 136.44 231.23 129.593Z" fill="#43495A"/>
<path d="M149.52 150.133C151.79 150.133 154.06 150.133 156.33 150.133V143.286H163.14V150.133H169.95V143.286H176.76C176.76 145.562 176.76 147.857 176.76 150.133C176.76 152.408 176.76 154.704 176.76 156.979H169.95C169.95 161.54 169.95 166.111 169.95 170.672H163.14C163.14 166.111 163.14 161.54 163.14 156.979C160.87 156.979 158.6 156.979 156.33 156.979C154.06 156.979 151.79 156.979 149.52 156.979C149.52 154.704 149.52 152.408 149.52 150.133Z" fill="#CECFE9"/>
<path d="M231.23 60.8971C231.23 56.3361 231.23 51.765 231.23 47.204H238.04V54.0506H244.85V60.8971H258.7V67.9842H251.66V74.8307C249.39 74.8307 247.12 74.8307 244.85 74.8307V67.9842C242.58 67.9842 240.31 67.9842 238.04 67.9842V60.8971H231.23Z" fill="#43495A"/>
<path d="M53.9401 211.982V205.135H60.7501C60.7501 207.411 60.7501 209.707 60.7501 211.982H74.3701C74.3801 214.258 74.3701 216.553 74.3701 218.829H81.1801V232.522C78.9101 232.522 76.6401 232.522 74.3701 232.522C72.1001 232.522 69.8301 232.522 67.5601 232.522V225.675H60.7501C60.7501 223.4 60.7501 221.104 60.7501 218.829C60.7501 216.553 60.7501 214.258 60.7501 211.982H53.9401Z" fill="#43495A"/>
<path d="M183.56 47.204V54.0506H190.37V60.8971H183.56C183.56 58.6216 183.56 56.3261 183.56 54.0506H176.75V47.204C179.02 47.204 181.29 47.204 183.56 47.204Z" fill="#796C9D"/>
<path d="M203.99 33.5109V47.204C206.26 47.204 208.53 47.204 210.8 47.204C210.8 44.9285 210.8 42.633 210.8 40.3575H217.61V47.204C215.34 47.204 213.07 47.204 210.8 47.204C210.8 49.4795 210.8 51.7751 210.8 54.0506C208.53 54.0506 206.26 54.0506 203.99 54.0506C201.72 54.0506 199.45 54.0506 197.18 54.0506V47.204C192.64 47.204 188.1 47.204 183.56 47.204V40.3575C185.83 40.3575 188.1 40.3575 190.37 40.3575V33.5109C194.9 33.521 199.45 33.521 203.99 33.5109Z" fill="#796C9D"/>
<path d="M217.61 47.204C219.88 47.204 222.15 47.204 224.42 47.204V54.0506C219.88 54.0506 215.34 54.0506 210.8 54.0506V67.9842C215.34 67.9842 219.88 67.9842 224.42 67.9842V74.8307C226.69 74.8307 228.96 74.8307 231.23 74.8307C231.23 77.1062 231.23 79.4018 231.23 81.6773H224.42V74.8307C222.15 74.8307 219.88 74.8307 217.61 74.8307C217.61 77.1062 217.61 79.4018 217.61 81.6773H210.8C210.8 81.0758 211.14 74.8307 210.8 74.8307H203.99V54.0606C206.26 54.0606 208.53 54.0606 210.8 54.0606C210.8 51.7851 210.8 49.4895 210.8 47.214C213.07 47.214 215.34 47.214 217.61 47.214V47.204Z" fill="#43495A"/>
<path d="M108.42 47.204C106.15 47.204 103.88 47.204 101.61 47.204V33.5109H115.23V47.204C112.96 47.204 110.69 47.204 108.42 47.204Z" fill="#43495A"/>
<path d="M183.56 26.6644C181.29 26.6644 179.02 26.6644 176.75 26.6644V19.8179H183.56C183.56 22.0934 183.55 24.3889 183.56 26.6644C192.64 26.6845 201.72 26.6444 210.8 26.6644V33.5109C208.53 33.5109 206.26 33.5109 203.99 33.5109C199.45 33.521 194.91 33.521 190.37 33.5109C188.1 33.5109 185.83 33.5109 183.56 33.5109C183.56 31.2355 183.57 28.9399 183.56 26.6644Z" fill="#43495A"/>
<path d="M122.04 177.509C124.31 177.509 126.58 177.509 128.85 177.509V170.662H135.66V184.586C131.12 184.586 126.58 184.596 122.04 184.586C122.04 182.23 122.04 179.864 122.04 177.499V177.509Z" fill="#CECFE9"/>
<path d="M190.37 60.8971C190.97 60.8971 197.18 60.5563 197.18 60.8971V67.9842H190.37V74.8308H183.56C183.56 70.1895 183.56 65.5383 183.56 60.9071H190.37V60.8971Z" fill="#43495A"/>
<path d="M87.99 177.509C88 184.425 87.98 191.362 87.99 198.279H81.18C81.19 191.362 81.17 184.425 81.18 177.509H87.99Z" fill="#43495A"/>
<path d="M115.23 177.509C115.23 175.233 115.23 172.938 115.23 170.662H122.04C122.04 172.938 122.04 175.233 122.04 177.509C119.77 177.509 117.5 177.509 115.23 177.509C115.23 179.864 115.23 182.23 115.23 184.596C117.5 184.596 119.77 184.596 122.04 184.596V191.442C117.5 191.442 112.96 191.442 108.42 191.442C108.42 189.167 108.42 186.871 108.42 184.596C108.42 182.24 108.42 179.874 108.42 177.509C110.69 177.509 112.96 177.509 115.23 177.509Z" fill="#43495A"/>
<path d="M149.52 81.6673C147.18 81.6673 144.82 81.6673 142.48 81.6673V74.8207H149.52C149.52 77.0962 149.52 79.3918 149.52 81.6673C151.79 81.6673 154.06 81.6673 156.33 81.6673C156.33 83.9428 156.33 86.2383 156.33 88.5138C158.6 88.5138 160.87 88.5138 163.14 88.5138V95.3603C160.87 95.3603 158.6 95.3603 156.33 95.3603C156.33 93.0848 156.33 90.7893 156.33 88.5138C154.06 88.5138 151.79 88.5138 149.52 88.5138C149.52 90.7893 149.52 93.0848 149.52 95.3603C147.18 95.3603 144.82 95.3603 142.48 95.3603C137.94 95.3603 133.4 95.3603 128.86 95.3603V88.5138C135.74 88.5138 142.64 88.5238 149.52 88.5138C149.52 86.2383 149.52 83.9428 149.52 81.6673Z" fill="#43495A"/>
<path d="M169.95 12.9713H149.52V19.8179H169.95V12.9713Z" fill="#43495A"/>
<path d="M156.33 156.969C158.6 156.969 160.87 156.969 163.14 156.969C163.14 161.53 163.14 166.101 163.14 170.662C163.14 172.938 163.14 175.233 163.14 177.509H156.33V156.969Z" fill="#796C9D"/>
<path d="M169.94 40.3575C169.94 42.633 169.94 44.9285 169.94 47.204C167.67 47.204 165.4 47.204 163.13 47.204C163.13 44.9285 163.13 42.633 163.13 40.3575C165.4 40.3575 167.67 40.3575 169.94 40.3575Z" fill="#796C9D"/>
<path d="M163.13 47.204C163.13 49.4795 163.13 51.7751 163.13 54.0506C163.13 56.3261 163.13 58.6216 163.13 60.8971C160.86 60.8971 158.59 60.8971 156.32 60.8971V54.0506H149.51V47.204C154.05 47.204 158.59 47.204 163.13 47.204Z" fill="#796C9D"/>
<path d="M115.23 47.204C119.77 47.214 124.31 47.204 128.85 47.204V54.0506C126.58 54.0506 124.31 54.0506 122.04 54.0506C119.77 54.0506 117.5 54.0506 115.23 54.0506C112.96 54.0506 110.69 54.0506 108.42 54.0506V47.204C110.69 47.204 112.96 47.204 115.23 47.204Z" fill="#796C9D"/>
<path d="M169.94 40.3575C169.94 38.082 169.94 35.7864 169.94 33.5109H176.75C176.75 35.7864 176.75 38.082 176.75 40.3575C179.02 40.3575 181.29 40.3575 183.56 40.3575V47.204C181.29 47.204 179.02 47.204 176.75 47.204V54.0506H169.94C169.94 56.326 169.94 58.6216 169.94 60.8971C167.67 60.8971 165.4 60.8971 163.13 60.8971C163.13 63.2528 163.13 65.6185 163.13 67.9842H156.32C155.72 67.9842 149.51 68.325 149.51 67.9842V60.8971C151.78 60.8971 154.05 60.8971 156.32 60.8971C158.59 60.8971 160.86 60.8971 163.13 60.8971C163.13 58.6216 163.13 56.326 163.13 54.0506H169.94C169.94 51.7751 169.94 49.4795 169.94 47.204C172.21 47.204 174.48 47.204 176.75 47.204C176.75 44.9285 176.75 42.633 176.75 40.3575C174.48 40.3575 172.21 40.3575 169.94 40.3575Z" fill="#43495A"/>
<path d="M183.56 47.204C188.1 47.204 192.64 47.204 197.18 47.204V54.0506C194.91 54.0506 192.64 54.0506 190.37 54.0506H183.56V47.204Z" fill="#43495A"/>
<path d="M224.42 88.5138C228.96 88.5138 233.5 88.5138 238.04 88.5138V95.3603C233.5 95.3603 228.96 95.3603 224.42 95.3603V88.5138Z" fill="#43495A"/>
<path d="M128.85 19.8179H115.23V26.6644H128.85V19.8179Z" fill="#43495A"/>
<path d="M108.42 253.051H115.23C115.23 255.327 115.23 257.622 115.23 259.898C117.5 259.898 119.77 259.898 122.04 259.898V266.744C124.31 266.744 126.58 266.744 128.85 266.744C128.85 264.469 128.85 262.173 128.85 259.898C133.39 259.898 137.93 259.898 142.47 259.898V266.744C140.2 266.744 137.93 266.744 135.66 266.744C133.39 266.744 131.12 266.744 128.85 266.744V273.591C126.58 273.591 124.31 273.591 122.04 273.591C119.77 273.591 117.5 273.591 115.23 273.591C115.23 269.03 115.24 264.459 115.23 259.898C112.96 259.898 110.69 259.898 108.42 259.898C108.42 257.622 108.42 255.327 108.42 253.051Z" fill="#43495A"/>
<path d="M108.42 259.898C108.42 262.173 108.42 264.469 108.42 266.744C106.15 266.744 103.88 266.744 101.61 266.744C99.3401 266.744 97.07 266.744 94.8 266.744V259.898H108.42Z" fill="#43495A"/>
<path d="M224.42 74.8207V88.5138C222.15 88.5138 219.88 88.5138 217.61 88.5138C217.61 86.2383 217.61 83.9428 217.61 81.6673C217.61 79.3918 217.61 77.0962 217.61 74.8207C219.88 74.8207 222.15 74.8207 224.42 74.8207Z" fill="#796C9D"/>
<path d="M101.61 115.9C101.61 113.624 101.61 111.329 101.61 109.053H108.42V115.9C106.15 115.9 103.88 115.9 101.61 115.9C101.61 118.175 101.61 120.471 101.61 122.746C103.88 122.757 106.15 122.746 108.42 122.746C108.42 125.022 108.42 127.318 108.42 129.593C108.42 131.869 108.42 134.164 108.42 136.44H101.61C101.61 131.879 101.61 127.308 101.61 122.746C99.3401 122.736 97.07 122.746 94.8 122.746V115.9C97.07 115.9 99.3401 115.9 101.61 115.9Z" fill="#43495A"/>
<path d="M122.04 177.509C122.04 179.864 122.04 182.23 122.04 184.596C126.58 184.606 131.12 184.596 135.66 184.596C135.66 186.871 135.66 189.167 135.66 191.442H122.04V184.596C119.77 184.596 117.5 184.596 115.23 184.596C115.23 182.24 115.23 179.874 115.23 177.509C117.5 177.509 119.77 177.509 122.04 177.509Z" fill="#796C9D"/>
<path d="M108.42 67.9742C108.41 72.5352 108.42 77.1062 108.42 81.6673H101.61V67.9742C103.88 67.9742 106.15 67.9842 108.42 67.9742Z" fill="#43495A"/>
<path d="M238.04 67.9742C240.31 67.9742 242.58 67.9742 244.85 67.9742V74.8207C240.31 74.8307 235.77 74.8207 231.23 74.8207C231.23 72.5452 231.23 70.2497 231.23 67.9742C233.5 67.9742 235.77 67.9742 238.04 67.9742Z" fill="#796C9D"/>
<path d="M108.42 136.44V150.133H101.61C101.61 147.857 101.61 145.562 101.61 143.286C101.61 141.011 101.61 138.715 101.61 136.44H108.42Z" fill="#796C9D"/>
<path d="M101.61 143.286C101.61 145.562 101.61 147.857 101.61 150.133C101.61 152.408 101.61 154.704 101.61 156.979C103.88 156.989 106.15 156.979 108.42 156.979V163.826C106.15 163.826 103.88 163.816 101.61 163.826C101.61 166.101 101.61 168.397 101.61 170.672H94.8V163.826C97.07 163.826 99.3401 163.836 101.61 163.826C101.61 161.55 101.61 159.255 101.61 156.979C99.3401 156.969 97.07 156.979 94.8 156.979V143.286H101.61Z" fill="#43495A"/>
<path d="M176.75 88.5138V95.3603C172.21 95.3603 167.67 95.3603 163.13 95.3603V88.5138C167.67 88.5138 172.21 88.5138 176.75 88.5138Z" fill="#796C9D"/>
<path d="M190.37 88.5138V95.3603C185.83 95.3603 181.29 95.3603 176.75 95.3603V88.5138C181.29 88.5138 185.83 88.5138 190.37 88.5138Z" fill="#CECFE9"/>
<path d="M210.8 81.6673V88.5138C208.53 88.5138 206.26 88.5138 203.99 88.5138C203.99 90.7893 203.99 93.0848 203.99 95.3603C201.72 95.3603 199.45 95.3603 197.18 95.3603C194.91 95.3603 192.64 95.3603 190.37 95.3603V88.5138C192.64 88.5138 194.91 88.5138 197.18 88.5138C199.45 88.5138 201.72 88.5138 203.99 88.5138C203.99 86.2383 203.99 83.9428 203.99 81.6673C206.26 81.6673 208.53 81.6673 210.8 81.6673Z" fill="#796C9D"/>
<path d="M67.5601 129.593H74.3701C74.3701 134.154 74.3701 138.725 74.3701 143.286H67.5601C67.5601 141.011 67.5601 138.715 67.5601 136.44C67.5601 134.164 67.5601 131.869 67.5601 129.593Z" fill="#43495A"/>
<path d="M149.52 177.509C149.52 179.864 149.52 182.23 149.52 184.596H142.48C142.48 182.24 142.48 179.874 142.48 177.509H149.52Z" fill="white"/>
<path d="M115.23 60.8971C115.23 63.2528 115.23 65.6185 115.23 67.9842C112.96 67.9842 110.69 67.9742 108.42 67.9842C108.42 65.6285 108.42 63.2628 108.42 60.8971C110.69 60.8971 112.96 60.9071 115.23 60.8971Z" fill="#796C9D"/>
<path d="M231.23 60.8971H238.04V67.9842C235.77 67.9842 233.5 67.9842 231.23 67.9842C231.23 70.2597 231.23 72.5553 231.23 74.8308C228.96 74.8308 226.69 74.8308 224.42 74.8308V67.9842C226.69 67.9842 228.96 67.9842 231.23 67.9842C231.23 65.6285 231.23 63.2628 231.23 60.8971Z" fill="#CECFE9"/>
<path d="M142.47 177.509C142.47 175.233 142.47 172.938 142.47 170.662H149.51C149.51 172.938 149.51 175.233 149.51 177.509H142.47Z" fill="#796C9D"/>
<path d="M156.33 177.509V184.596H149.52C149.52 182.24 149.52 179.874 149.52 177.509H156.33Z" fill="#43495A"/>
<path d="M101.61 12.9713V19.8179C99.3401 19.8179 97.07 19.8179 94.8 19.8179V12.9713C97.07 12.9713 99.3401 12.9713 101.61 12.9713Z" fill="#796C9D"/>
<path d="M122.04 6.12479V12.9713C119.77 12.9713 117.5 12.9713 115.23 12.9713V6.12479C117.5 6.12479 119.77 6.12479 122.04 6.12479Z" fill="#796C9D"/>
<path d="M128.85 6.12479V12.9713C126.58 12.9713 124.31 12.9713 122.04 12.9713V6.12479C124.31 6.12479 126.58 6.12479 128.85 6.12479Z" fill="#796C9D"/>
<path d="M197.03 6.12479V12.9713C194.76 12.9713 192.49 12.9713 190.22 12.9713V6.12479C192.49 6.12479 194.76 6.12479 197.03 6.12479Z" fill="#796C9D"/>
<path d="M190.22 6.12479V12.9713C187.95 12.9713 185.68 12.9713 183.41 12.9713V6.12479C185.68 6.12479 187.95 6.12479 190.22 6.12479Z" fill="#796C9D"/>
<path d="M87.9901 19.8179V26.6644C85.7201 26.6644 83.4501 26.6544 81.1801 26.6644C81.1901 24.3889 81.1801 22.0934 81.1801 19.8179C83.4501 19.8179 85.7201 19.8179 87.9901 19.8179Z" fill="#796C9D"/>
<path d="M135.66 33.5109H128.85V40.3575H135.66V33.5109Z" fill="#43495A"/>
<path d="M163.13 40.3575C160.86 40.3575 158.59 40.3575 156.32 40.3575V33.5109H163.13C163.13 35.7864 163.13 38.082 163.13 40.3575Z" fill="#43495A"/>
<path d="M60.75 191.442H67.56C67.56 193.718 67.55 196.013 67.56 198.289H60.75C60.75 196.013 60.75 193.718 60.75 191.442Z" fill="#43495A"/>
<path d="M60.75 156.969C60.75 159.245 60.75 161.54 60.75 163.816C63.02 163.816 65.29 163.816 67.56 163.816C67.56 166.091 67.56 168.387 67.56 170.662C69.83 170.662 72.1 170.662 74.37 170.662V177.509H67.56C67.56 175.233 67.56 172.938 67.56 170.662C65.29 170.662 63.02 170.662 60.75 170.662C60.75 168.387 60.75 166.091 60.75 163.816C58.48 163.816 56.21 163.816 53.94 163.816C53.94 166.091 53.94 168.387 53.94 170.662C56.21 170.662 58.48 170.662 60.75 170.662C60.75 172.938 60.75 175.233 60.75 177.509C58.48 177.509 56.21 177.509 53.94 177.509C53.94 179.864 53.94 182.23 53.94 184.596H47.13V177.509C49.4 177.509 51.67 177.509 53.94 177.509C53.94 175.233 53.94 172.938 53.94 170.662C51.67 170.662 49.4 170.662 47.13 170.662V156.969C51.67 156.969 56.21 156.969 60.75 156.969Z" fill="#43495A"/>
<path d="M251.66 191.442V198.289C249.39 198.289 247.12 198.289 244.85 198.289C244.85 196.013 244.85 193.718 244.85 191.442H251.66Z" fill="#43495A"/>
<path d="M244.85 198.289V205.136C242.58 205.136 240.31 205.136 238.04 205.136C238.04 202.86 238.04 200.564 238.04 198.289H244.85Z" fill="#43495A"/>
<path d="M87.99 205.135H94.8C94.8 207.411 94.8 209.707 94.8 211.982H87.99C87.99 209.707 87.99 207.411 87.99 205.135Z" fill="#43495A"/>
<path d="M156.33 156.969V163.816H149.52C149.52 161.54 149.52 159.245 149.52 156.969C151.79 156.969 154.06 156.969 156.33 156.969Z" fill="#43495A"/>
<path d="M101.61 218.829C101.61 221.104 101.61 223.4 101.61 225.675H94.8C94.8 223.4 94.8 221.104 94.8 218.829C97.07 218.829 99.3401 218.829 101.61 218.829Z" fill="#43495A"/>
<path d="M101.61 232.512H108.42C108.42 234.787 108.42 237.083 108.42 239.358H101.61C101.61 237.083 101.61 234.787 101.61 232.512Z" fill="#43495A"/>
<path d="M87.99 239.358H94.8C94.8 241.634 94.8 243.929 94.8 246.205H87.99C87.99 243.929 87.99 241.634 87.99 239.358Z" fill="#796C9D"/>
<path d="M101.61 95.3603H94.8V102.207H101.61V95.3603Z" fill="#43495A"/>
<path d="M101.61 88.5138H94.8V95.3603H101.61V88.5138Z" fill="#CECFE9"/>
<path d="M190.37 88.5138C190.37 87.9124 190.03 81.6673 190.37 81.6673H197.18V88.5138C194.91 88.5138 192.64 88.5138 190.37 88.5138Z" fill="#43495A"/>
<path d="M135.66 74.8207H128.85V81.6673H135.66V74.8207Z" fill="#796C9D"/>
<path d="M163.13 67.9742C163.13 70.2497 163.13 72.5452 163.13 74.8207H156.32V67.9742H163.13Z" fill="#796C9D"/>
<path d="M122.04 54.0506V60.8971C119.77 60.8971 117.5 60.8871 115.23 60.8971V54.0506C117.5 54.0506 119.77 54.0506 122.04 54.0506Z" fill="#43495A"/>
<path d="M244.85 205.135V232.522C242.58 232.522 240.31 232.522 238.04 232.522V259.908H231.23C231.23 255.347 231.23 250.776 231.23 246.215H224.42C224.42 243.939 224.42 241.644 224.42 239.368C226.69 239.368 228.96 239.368 231.23 239.368C231.23 234.807 231.23 230.236 231.23 225.675C233.5 225.675 235.77 225.675 238.04 225.675C238.04 221.114 238.04 216.543 238.04 211.982C238.04 209.707 238.04 207.411 238.04 205.135C240.31 205.135 242.58 205.135 244.85 205.135Z" fill="#343736"/>
<path d="M265.52 205.135V225.675C263.25 225.675 260.98 225.675 258.71 225.675C256.37 225.675 254.01 225.675 251.67 225.675H244.86V211.982H251.67V218.829H258.71C258.71 216.553 258.71 214.258 258.71 211.982C258.71 209.707 258.71 207.411 258.71 205.135C260.98 205.135 263.25 205.135 265.52 205.135Z" fill="#CECFE9"/>
<path d="M258.71 205.136C258.71 202.86 258.71 200.564 258.71 198.289H272.33V205.136C270.06 205.136 267.79 205.136 265.52 205.136C263.25 205.136 260.98 205.136 258.71 205.136C258.71 207.411 258.71 209.707 258.71 211.982H251.67C251.67 209.707 251.67 207.411 251.67 205.136C254.02 205.136 256.37 205.136 258.72 205.136H258.71Z" fill="#43495A"/>
<path d="M258.71 225.675C258.71 227.951 258.71 230.246 258.71 232.522C256.37 232.522 254.01 232.522 251.67 232.522V225.675C254.01 225.675 256.37 225.675 258.71 225.675Z" fill="#43495A"/>
<path d="M231.23 301.218V308.064H224.42C224.42 305.789 224.42 303.493 224.42 301.218C226.69 301.218 228.96 301.218 231.23 301.218Z" fill="#CECFE9"/>
<path d="M224.42 308.064C224.42 310.34 224.42 312.635 224.42 314.911H217.61C217.61 312.635 217.61 310.34 217.61 308.064H224.42Z" fill="#43495A"/>
<path d="M265.52 184.596C267.79 184.596 270.06 184.596 272.33 184.596V191.442H265.52C265.52 189.167 265.52 186.871 265.52 184.596Z" fill="#43495A"/>
<path d="M74.37 349.133C74.37 351.409 74.37 353.704 74.37 355.98H67.56C67.56 358.255 67.56 360.551 67.56 362.826C65.29 362.826 63.02 362.826 60.75 362.826C58.48 362.826 56.21 362.826 53.94 362.826C53.94 365.102 53.94 367.397 53.94 369.673H47.13C44.86 369.673 42.59 369.673 40.32 369.673C40.32 371.948 40.32 374.244 40.32 376.519C38.05 376.519 35.78 376.519 33.51 376.519C33.51 378.795 33.51 381.091 33.51 383.366H26.46C26.46 381.091 26.46 378.795 26.46 376.519C28.8 376.519 31.16 376.519 33.5 376.519C33.5 374.244 33.5 371.948 33.5 369.673C35.77 369.673 38.04 369.673 40.31 369.673C40.31 367.397 40.31 365.102 40.31 362.826C42.58 362.826 44.85 362.826 47.12 362.826C49.39 362.826 51.66 362.826 53.93 362.826C53.93 360.551 53.93 358.255 53.93 355.98C56.2 355.98 58.47 355.98 60.74 355.98C63.01 355.98 65.28 355.98 67.55 355.98C67.55 353.704 67.55 351.409 67.55 349.133H74.36H74.37Z" fill="#CECFE9"/>
<path d="M87.9901 321.747C87.9801 324.023 87.9901 326.318 87.9901 328.594C85.7201 328.594 83.4501 328.584 81.1801 328.594C81.1801 326.318 81.1801 324.023 81.1801 321.747H87.9901Z" fill="#CECFE9"/>
<path d="M81.18 335.44C81.18 337.716 81.18 340.011 81.18 342.287H74.37C74.37 340.011 74.37 337.716 74.37 335.44H81.18Z" fill="#CECFE9"/>
<path d="M101.61 321.747H108.42C108.42 324.023 108.41 326.318 108.42 328.594C108.43 330.869 108.42 333.165 108.42 335.44C110.69 335.44 112.96 335.43 115.23 335.44V342.287H108.42V376.519H101.61C101.6 371.958 101.61 367.387 101.61 362.826H94.8V349.133H101.61C101.61 346.858 101.61 344.562 101.61 342.287C101.61 340.011 101.61 337.716 101.61 335.44C101.61 330.879 101.61 326.308 101.61 321.747Z" fill="#43495A"/>
<path d="M26.47 376.519C26.47 378.795 26.47 381.091 26.47 383.366C26.47 385.642 26.47 387.937 26.47 390.213H6.04004V383.366H19.66V376.519C21.93 376.519 24.2 376.519 26.47 376.519Z" fill="#796C9D"/>
<path d="M108.42 301.218C108.42 303.493 108.42 305.789 108.42 308.064C106.15 308.064 103.88 308.064 101.61 308.064C101.61 310.34 101.61 312.635 101.61 314.911C101.61 317.186 101.61 319.482 101.61 321.757C101.61 326.318 101.61 330.889 101.61 335.45H94.8001C94.7901 330.889 94.8001 326.318 94.8001 321.757C94.8001 319.482 94.8001 317.186 94.8001 314.911C94.8001 312.635 94.8001 310.34 94.8001 308.064C97.0701 308.064 99.3401 308.064 101.61 308.064C101.61 305.789 101.61 303.493 101.61 301.218H108.42Z" fill="#CECFE9"/>
<path d="M33.52 369.673C33.52 371.948 33.52 374.244 33.52 376.519C31.18 376.519 28.82 376.519 26.48 376.519C26.48 374.244 26.48 371.948 26.48 369.673C28.83 369.673 31.18 369.673 33.53 369.673H33.52Z" fill="#43495A"/>
<path d="M47.1301 383.366C47.1301 385.642 47.1301 387.937 47.1301 390.213H40.3201C40.3201 387.937 40.3201 385.642 40.3201 383.366H47.1301Z" fill="#43495A"/>
<path d="M101.61 335.44C101.61 337.716 101.61 340.011 101.61 342.287H94.8C94.8 340.011 94.8 337.716 94.8 335.44H101.61Z" fill="#796C9D"/>
<path d="M74.3701 355.98C74.3701 358.255 74.3701 360.551 74.3701 362.826C72.1001 362.826 69.8301 362.826 67.5601 362.826C67.5601 360.551 67.5601 358.255 67.5601 355.98H74.3701Z" fill="#43495A"/>
<path d="M67.56 362.826C67.56 365.102 67.56 367.397 67.56 369.673H60.75V362.826C63.02 362.826 65.29 362.826 67.56 362.826Z" fill="#796C9D"/>
<path d="M53.9401 369.673C53.9401 371.948 53.9401 374.244 53.9401 376.519C51.6701 376.519 49.4001 376.519 47.1301 376.519C47.1301 378.795 47.1301 381.091 47.1301 383.366H40.3201C40.3201 381.091 40.3201 378.795 40.3201 376.519C42.5901 376.519 44.8601 376.519 47.1301 376.519V369.673H53.9401Z" fill="#796C9D"/>
<path d="M217.61 314.901C217.61 317.176 217.61 319.472 217.61 321.747C217.61 324.023 217.61 326.318 217.61 328.594H210.8C210.8 324.033 210.8 319.462 210.8 314.901H217.61Z" fill="#796C9D"/>
<path d="M224.42 376.519H231.23V383.366C228.96 383.366 226.69 383.356 224.42 383.366C224.42 385.642 224.42 387.937 224.42 390.213H217.61C217.61 387.937 217.61 385.642 217.61 383.366C219.88 383.366 222.15 383.376 224.42 383.366C224.42 381.091 224.42 378.795 224.42 376.519Z" fill="#43495A"/>
<path d="M210.8 308.064C210.8 310.34 210.8 312.635 210.8 314.911H203.99C203.99 312.635 203.99 310.34 203.99 308.064H210.8Z" fill="#43495A"/>
<path d="M224.42 314.901C224.42 317.176 224.42 319.472 224.42 321.747H217.61C217.61 319.472 217.61 317.176 217.61 314.901H224.42Z" fill="white"/>
<path d="M203.99 321.747C203.99 324.023 203.99 326.318 203.99 328.594C201.72 328.594 199.45 328.584 197.18 328.594C197.18 326.318 197.18 324.023 197.18 321.747H203.99Z" fill="#796C9D"/>
<path d="M197.18 328.594C197.18 330.869 197.18 333.165 197.18 335.44H190.37C190.37 337.716 190.37 340.011 190.37 342.287C188.1 342.287 185.83 342.287 183.56 342.287C183.56 344.562 183.57 346.858 183.56 349.133C181.29 349.143 179.02 349.133 176.75 349.133V355.98C174.48 355.98 172.21 355.98 169.94 355.98C167.67 355.98 165.4 355.98 163.13 355.98C163.13 358.255 163.13 360.551 163.13 362.826C163.13 365.102 163.13 367.397 163.13 369.673H156.32V355.98C158.59 355.98 160.86 355.98 163.13 355.98C163.13 351.419 163.13 346.848 163.13 342.287H176.75V335.44H190.37C190.37 333.165 190.37 330.869 190.37 328.594C192.64 328.594 194.91 328.604 197.18 328.594Z" fill="#43495A"/>
<path d="M197.18 335.44C197.18 337.716 197.18 340.011 197.18 342.287C194.91 342.287 192.64 342.287 190.37 342.287C190.37 344.562 190.37 346.858 190.37 349.133C188.1 349.133 185.83 349.123 183.56 349.133C183.57 346.858 183.56 344.562 183.56 342.287C185.83 342.287 188.1 342.287 190.37 342.287C190.37 340.011 190.37 337.716 190.37 335.44H197.18Z" fill="#796C9D"/>
<path d="M238.04 342.287C238.04 344.562 238.04 346.858 238.04 349.133H231.23V342.287H238.04Z" fill="#43495A"/>
<path d="M231.23 355.98C231.23 358.255 231.23 360.551 231.23 362.826H224.42V355.98H231.23Z" fill="#796C9D"/>
<path d="M244.85 376.519H251.66C251.66 378.795 251.66 381.091 251.66 383.366H244.85C244.85 381.091 244.85 378.795 244.85 376.519Z" fill="#796C9D"/>
<path d="M231.23 321.747H238.04C238.04 324.023 238.04 326.318 238.04 328.594H231.23C231.23 326.318 231.23 324.023 231.23 321.747Z" fill="#43495A"/>
<path d="M183.56 349.133C183.55 351.409 183.56 353.704 183.56 355.98C181.29 355.98 179.02 355.98 176.75 355.98V349.133C179.02 349.133 181.29 349.143 183.56 349.133Z" fill="#343736"/>
<path d="M169.94 355.98V362.826H163.13C163.13 360.551 163.13 358.255 163.13 355.98C165.4 355.98 167.67 355.98 169.94 355.98Z" fill="#CECFE9"/>
<path d="M163.13 369.673C163.13 371.948 163.13 374.244 163.13 376.519C160.86 376.519 158.59 376.519 156.32 376.519C156.32 374.244 156.32 371.948 156.32 369.673H163.13Z" fill="#CECFE9"/>
<path d="M156.33 355.98V369.673C156.33 371.948 156.33 374.244 156.33 376.519H149.52V355.98C151.79 355.98 154.06 355.98 156.33 355.98Z" fill="white"/>
<path d="M163.13 376.519C163.13 378.795 163.13 381.091 163.13 383.366H156.32C156.32 381.091 156.32 378.795 156.32 376.519C158.59 376.519 160.86 376.519 163.13 376.519Z" fill="#796C9D"/>
<path d="M60.7501 211.982C60.7501 214.258 60.7501 216.553 60.7501 218.829H53.9401C53.9401 216.553 53.9401 214.258 53.9401 211.982H60.7501Z" fill="white"/>
<path d="M190.37 150.133H231.23V156.979H238.04V163.826H231.23V156.979H210.8V163.826H224.42V170.672H231.23V177.519C228.96 177.519 226.69 177.519 224.42 177.519C224.42 179.874 224.42 182.24 224.42 184.606C222.15 184.606 219.88 184.606 217.61 184.606V170.682H210.8V177.529C208.53 177.529 206.26 177.529 203.99 177.529V170.682C201.72 170.682 199.45 170.682 197.18 170.682C194.91 170.682 192.64 170.682 190.37 170.682C188.1 170.682 185.83 170.682 183.56 170.682C183.56 172.958 183.56 175.253 183.56 177.529H169.94C169.94 175.253 169.94 172.958 169.94 170.682C172.21 170.682 174.48 170.682 176.75 170.682C176.75 168.407 176.75 166.111 176.75 163.836H183.56V150.143H190.37V150.133Z" fill="#343736"/>
<path d="M183.56 150.133V163.826H176.75C176.75 161.55 176.75 159.255 176.75 156.979C176.75 154.704 176.75 152.408 176.75 150.133H183.56Z" fill="#43495A"/>
<path d="M163.13 225.675C163.13 227.951 163.13 230.246 163.13 232.522C165.4 232.522 167.67 232.522 169.94 232.522C174.48 232.532 179.02 232.522 183.56 232.522V239.368C181.29 239.368 179.02 239.368 176.75 239.368C174.48 239.368 172.21 239.368 169.94 239.368C169.94 241.644 169.94 243.939 169.94 246.215C167.67 246.215 165.4 246.215 163.13 246.215C160.86 246.215 158.59 246.215 156.32 246.215V239.368C154.05 239.368 151.78 239.368 149.51 239.368V232.522H156.32C156.32 230.246 156.31 227.951 156.32 225.675H163.13Z" fill="#343736"/>
<path d="M156.33 225.675C156.32 227.951 156.33 230.246 156.33 232.522H149.52V239.368C147.18 239.368 144.82 239.368 142.48 239.368V225.675H156.33Z" fill="#43495A"/>
<path d="M156.33 259.898C158.6 259.898 160.87 259.898 163.14 259.898C163.14 262.173 163.14 264.469 163.14 266.744C165.41 266.744 167.68 266.744 169.95 266.744V259.898C172.22 259.898 174.49 259.898 176.76 259.898C181.3 259.898 185.84 259.898 190.38 259.898V266.744C185.84 266.744 181.3 266.744 176.76 266.744C174.49 266.744 172.22 266.744 169.95 266.744V273.591C167.68 273.591 165.41 273.591 163.14 273.591C163.14 271.315 163.14 269.02 163.14 266.744C160.87 266.744 158.6 266.744 156.33 266.744C154.06 266.744 151.79 266.744 149.52 266.744C147.18 266.744 144.82 266.744 142.48 266.744V259.898C147.09 259.898 151.72 259.898 156.33 259.898Z" fill="#343736"/>
<path d="M163.13 253.051C165.4 253.051 167.67 253.051 169.94 253.051C172.21 253.051 174.48 253.051 176.75 253.051V259.898C174.48 259.898 172.21 259.898 169.94 259.898C167.67 259.898 165.4 259.898 163.13 259.898C160.86 259.898 158.59 259.898 156.32 259.898V253.051C158.59 253.051 160.86 253.051 163.13 253.051Z" fill="white"/>
<path d="M122.04 205.135H128.85C128.85 207.411 128.85 209.707 128.85 211.982H115.23C115.23 209.707 115.24 207.411 115.23 205.135H122.04Z" fill="white"/>
<path d="M108.42 198.289V205.136H101.61C101.61 202.86 101.61 200.564 101.61 198.289C103.88 198.289 106.15 198.289 108.42 198.289Z" fill="#343736"/>
<path d="M108.42 198.289C110.69 198.289 112.96 198.289 115.23 198.289C115.23 200.564 115.22 202.86 115.23 205.136H108.42V198.289Z" fill="#796C9D"/>
<path d="M128.85 198.289C128.85 200.564 128.85 202.86 128.85 205.136H122.04V198.289C124.31 198.289 126.58 198.299 128.85 198.289Z" fill="#43495A"/>
<path d="M142.47 232.512V239.358C140.2 239.358 137.93 239.358 135.66 239.358V232.512H142.47Z" fill="white"/>
<path d="M149.52 239.358C151.79 239.358 154.06 239.358 156.33 239.358V246.205C154.06 246.205 151.78 246.205 149.52 246.205C149.52 243.929 149.52 241.634 149.52 239.358Z" fill="#796C9D"/>
<path d="M169.94 246.205V253.051C167.67 253.051 165.4 253.051 163.13 253.051V246.205C165.4 246.205 167.67 246.205 169.94 246.205Z" fill="#43495A"/>
<path d="M197.18 143.286C199.45 143.276 201.72 143.286 203.99 143.286V136.44H210.8V150.133H197.18V143.286Z" fill="#A69FB9"/>
<path d="M149.52 95.3603C149.52 97.6358 149.52 99.9314 149.52 102.207H156.33C156.33 99.9314 156.33 97.6358 156.33 95.3603C158.6 95.3603 160.87 95.3603 163.14 95.3603C167.68 95.3603 172.22 95.3603 176.76 95.3603C181.3 95.3603 185.84 95.3603 190.38 95.3603C192.65 95.3603 194.92 95.3603 197.19 95.3603V115.9H190.38V109.053H183.57V115.9H176.76V122.746H190.38V136.44H197.19C197.53 136.44 197.19 142.685 197.19 143.286C194.92 143.296 192.65 143.286 190.38 143.286V150.133H183.57H176.76C176.76 147.857 176.76 145.562 176.76 143.286H169.95V150.133H163.14V143.286H156.33V150.133C154.06 150.133 151.79 150.133 149.52 150.133C144.91 150.143 140.28 150.133 135.67 150.133V136.44H149.52V129.593H142.48V115.9H149.52V109.053H142.48V95.3603C144.82 95.3603 147.18 95.3603 149.52 95.3603Z" fill="#CECFE9"/>
<path d="M128.85 95.3603C133.39 95.3603 137.93 95.3603 142.47 95.3603V109.053H149.51V115.9H142.47V129.593H149.51V136.44H135.66V150.133C126.58 150.143 117.5 150.133 108.42 150.133V136.44C110.69 136.44 112.96 136.44 115.23 136.44C119.77 136.44 124.31 136.44 128.85 136.44V129.593C126.58 129.593 124.31 129.593 122.04 129.593V122.746C122.04 120.471 122.04 118.175 122.04 115.9C122.04 113.624 122.04 111.329 122.04 109.053H115.23C115.23 106.778 115.23 104.482 115.23 102.207H122.04V95.3603C124.31 95.3603 126.58 95.3603 128.85 95.3603Z" fill="#A69FB9"/>
<path d="M224.42 95.3603V102.207C226.69 102.217 228.96 102.207 231.23 102.207C231.23 111.329 231.23 120.471 231.23 129.593C231.23 136.44 231.23 143.286 231.23 150.133H224.42V102.207C222.15 102.197 219.88 102.207 217.61 102.207C217.61 99.9314 217.61 97.6358 217.61 95.3603C219.88 95.3603 222.15 95.3603 224.42 95.3603Z" fill="#A69FB9"/>
<path d="M108.42 115.9C110.69 115.9 112.96 115.9 115.23 115.9C115.23 118.175 115.23 120.471 115.23 122.746H122.04V129.593C119.77 129.593 117.5 129.593 115.23 129.593H108.42C108.42 127.318 108.42 125.022 108.42 122.746C106.15 122.746 103.88 122.757 101.61 122.746C101.61 120.471 101.61 118.175 101.61 115.9C103.88 115.9 106.15 115.9 108.42 115.9Z" fill="#A69FB9"/>
<path d="M115.23 109.053H122.04C122.04 111.329 122.04 113.624 122.04 115.9H115.23C115.23 113.624 115.23 111.329 115.23 109.053Z" fill="#A69FB9"/>
<path d="M122.04 95.3603V102.207H115.23C115.23 99.9314 115.23 97.6358 115.23 95.3603C117.5 95.3603 119.77 95.3603 122.04 95.3603Z" fill="#A69FB9"/>
<path d="M203.99 95.3603C208.53 95.3603 213.07 95.3603 217.61 95.3603C217.61 97.6358 217.61 99.9314 217.61 102.207C219.88 102.207 222.15 102.197 224.42 102.207V150.133H210.8V136.44H203.99V143.286C201.72 143.286 199.45 143.276 197.18 143.286C197.18 142.685 197.52 136.44 197.18 136.44H190.37V122.746H176.75V115.9H183.56V109.053H190.37V115.9H197.18V95.3603C199.45 95.3603 201.72 95.3603 203.99 95.3603Z" fill="#A69FB9"/>
<path d="M197.18 143.286V150.133H190.37V143.286C192.64 143.286 194.91 143.296 197.18 143.286Z" fill="#A69FB9"/>
<path d="M156.33 95.3603C156.33 97.6358 156.33 99.9314 156.33 102.207H149.52C149.52 99.9314 149.52 97.6358 149.52 95.3603C151.79 95.3603 154.06 95.3603 156.33 95.3603Z" fill="#A69FB9"/>
<path d="M122.04 129.593C124.31 129.593 126.58 129.593 128.85 129.593V136.44C124.31 136.44 119.77 136.44 115.23 136.44V129.593C117.5 129.593 119.77 129.593 122.04 129.593Z" fill="#A69FB9"/>
<path d="M115.23 129.593V136.44C112.96 136.44 110.69 136.44 108.42 136.44C108.42 134.164 108.42 131.869 108.42 129.593H115.23Z" fill="#343736"/>
<path d="M169.94 170.662C169.94 172.938 169.94 175.233 169.94 177.509C169.94 184.425 169.94 191.362 169.94 198.279H163.13C163.13 193.718 163.13 189.147 163.13 184.586C163.13 182.23 163.13 179.864 163.13 177.499C163.13 175.223 163.13 172.928 163.13 170.652H169.94V170.662Z" fill="white"/>
<path d="M169.94 211.982C172.21 211.982 174.48 211.982 176.75 211.982V225.675H169.94C169.94 223.4 169.94 221.104 169.94 218.829C167.67 218.829 165.4 218.829 163.13 218.829C163.13 221.104 163.13 223.4 163.13 225.675H156.32C156.33 223.4 156.32 221.104 156.32 218.829C158.59 218.829 160.86 218.829 163.13 218.829C163.13 216.553 163.13 214.258 163.13 211.982H169.94Z" fill="#CECFE9"/>
<path d="M163.13 177.509C163.13 179.864 163.13 182.23 163.13 184.596H156.32V177.509H163.13Z" fill="#CECFE9"/>
<path d="M169.94 198.289V205.136H163.13C163.13 202.86 163.13 200.564 163.13 198.289H169.94Z" fill="#CECFE9"/>
<path d="M169.94 205.135V211.982H163.13C163.13 209.707 163.13 207.411 163.13 205.135H169.94Z" fill="white"/>
<path d="M203.99 191.442C206.26 191.442 208.53 191.442 210.8 191.442V205.136C208.53 205.136 206.26 205.136 203.99 205.136C203.98 202.86 203.99 200.564 203.99 198.289C201.72 198.289 199.45 198.299 197.18 198.289C197.18 196.013 197.18 193.718 197.18 191.442C199.45 191.442 201.72 191.442 203.99 191.442Z" fill="#CECFE9"/>
<path d="M231.23 177.509C233.5 177.509 235.77 177.509 238.04 177.509C238.02 184.425 238.04 191.362 238.04 198.279C238.04 200.554 238.04 202.85 238.04 205.125C235.77 205.125 233.5 205.125 231.23 205.125C231.23 207.401 231.23 209.697 231.23 211.972C231.23 214.248 231.23 216.543 231.23 218.819H224.42C224.42 221.094 224.42 223.39 224.42 225.665C222.15 225.665 219.88 225.665 217.61 225.665C217.61 230.226 217.61 234.797 217.61 239.358C217.61 241.634 217.61 243.929 217.61 246.205H203.99V253.051H197.18C197.18 255.327 197.18 257.622 197.18 259.898C194.91 259.898 192.64 259.898 190.37 259.898C185.83 259.898 181.29 259.898 176.75 259.898V253.051C174.48 253.051 172.21 253.051 169.94 253.051V246.205C172.21 246.205 174.48 246.205 176.75 246.205V239.358C179.02 239.358 181.29 239.358 183.56 239.358C185.83 239.358 188.1 239.358 190.37 239.358V218.819H183.56C183.56 209.696 183.55 200.554 183.56 191.432H190.37C190.37 193.708 190.37 196.003 190.37 198.279C192.64 198.279 194.91 198.269 197.18 198.279C197.18 200.554 197.18 202.85 197.18 205.125C199.45 205.125 201.72 205.125 203.99 205.125C204 207.401 203.99 209.697 203.99 211.972H217.61V205.125H224.42V198.279H231.23V184.586C228.96 184.586 226.69 184.586 224.42 184.586C224.42 182.23 224.42 179.864 224.42 177.499C226.69 177.499 228.96 177.499 231.23 177.499V177.509Z" fill="#CECFE9"/>
<path d="M231.23 156.969V163.816H210.8V156.969H238.04V163.816H224.42H217.61V156.969H231.23Z" fill="#796C9D"/>
<path d="M108.42 191.442C108.42 193.718 108.42 196.013 108.42 198.289C106.15 198.289 103.88 198.289 101.61 198.289C101.61 196.013 101.61 193.718 101.61 191.442C103.88 191.442 106.15 191.442 108.42 191.442Z" fill="white"/>
<path d="M176.75 156.969C176.75 159.245 176.75 161.54 176.75 163.816C176.75 166.091 176.75 168.387 176.75 170.662C174.48 170.662 172.21 170.662 169.94 170.662C169.94 166.101 169.94 161.53 169.94 156.969H176.75Z" fill="#796C9D"/>
<path d="M156.33 88.5138C156.33 90.7893 156.33 93.0848 156.33 95.3603C154.06 95.3603 151.79 95.3603 149.52 95.3603C149.52 93.0848 149.52 90.7893 149.52 88.5138C151.79 88.5138 154.06 88.5138 156.33 88.5138Z" fill="#796C9D"/>
<path d="M210.8 88.5138C213.07 88.5138 215.34 88.5138 217.61 88.5138C217.61 90.7893 217.61 93.0848 217.61 95.3603C213.07 95.3603 208.53 95.3603 203.99 95.3603C203.99 93.0848 203.99 90.7893 203.99 88.5138C206.26 88.5138 208.53 88.5138 210.8 88.5138Z" fill="#43495A"/>
<path d="M156.33 280.437V287.284C154.06 287.284 151.79 287.284 149.52 287.284V294.371C147.18 294.371 144.82 294.371 142.48 294.371C140.14 294.371 137.94 294.371 135.67 294.371C135.67 296.647 135.67 298.942 135.67 301.218C137.94 301.218 140.21 301.218 142.48 301.218C142.48 303.493 142.48 305.789 142.48 308.064C144.83 308.064 147.18 308.064 149.53 308.064V314.911C147.18 314.911 144.83 314.911 142.48 314.911C142.48 312.635 142.48 310.34 142.48 308.064C140.21 308.064 137.94 308.064 135.67 308.064C135.67 305.789 135.67 303.493 135.67 301.218C133.4 301.218 131.13 301.218 128.86 301.218V294.371C126.59 294.371 124.32 294.371 122.05 294.371C122.06 289.73 122.05 285.079 122.05 280.447H156.33V280.437Z" fill="#43495A"/>
<path d="M217.61 259.898C217.61 262.173 217.61 264.469 217.61 266.744C219.88 266.744 222.15 266.744 224.42 266.744C224.42 269.02 224.42 271.315 224.42 273.591C219.88 273.591 215.34 273.591 210.8 273.591C210.8 278.152 210.8 282.723 210.8 287.284H203.99V301.208H197.18C197.18 298.932 197.18 296.637 197.18 294.361C194.91 294.361 192.64 294.371 190.37 294.361C188.1 294.351 185.83 294.361 183.56 294.361V287.274C181.29 287.274 179.02 287.274 176.75 287.274V280.427C181.29 280.427 185.83 280.427 190.37 280.427C192.64 280.427 194.91 280.427 197.18 280.427C199.45 280.427 201.72 280.427 203.99 280.427C203.99 278.152 203.99 275.856 203.99 273.581C206.26 273.581 208.53 273.581 210.8 273.581C210.8 269.02 210.8 264.449 210.8 259.888H217.61V259.898Z" fill="#43495A"/>
<path d="M231.23 273.591C231.23 275.866 231.23 278.162 231.23 280.437H224.42V273.591H231.23Z" fill="#43495A"/>
<path d="M238.04 211.982C238.04 216.543 238.04 221.114 238.04 225.675C235.77 225.675 233.5 225.675 231.23 225.675C231.23 230.236 231.23 234.807 231.23 239.368C228.96 239.368 226.69 239.368 224.42 239.368C224.42 241.644 224.42 243.939 224.42 246.215H231.23C231.23 250.776 231.23 255.347 231.23 259.908C231.23 262.183 231.23 264.479 231.23 266.754H224.42C224.42 262.193 224.42 257.622 224.42 253.061H217.61C217.61 250.786 217.61 248.49 217.61 246.215C217.61 243.939 217.61 241.644 217.61 239.368H224.42C224.41 234.807 224.41 230.236 224.42 225.675C226.69 225.675 228.96 225.675 231.23 225.675C231.23 223.4 231.23 221.104 231.23 218.829C231.23 216.553 231.23 214.258 231.23 211.982H238.04Z" fill="#43495A"/>
<path d="M108.42 287.284H115.23C115.23 289.64 115.23 292.005 115.23 294.371H108.42C108.42 292.015 108.42 289.65 108.42 287.284Z" fill="white"/>
<path d="M122.04 294.371C122.04 296.647 122.04 298.942 122.04 301.218H115.23C115.23 298.942 115.23 296.647 115.23 294.371C117.5 294.371 119.77 294.371 122.04 294.371Z" fill="#796C9D"/>
<path d="M108.42 308.064C108.42 310.34 108.42 312.635 108.42 314.911H101.61C101.61 312.635 101.61 310.34 101.61 308.064C103.88 308.064 106.15 308.064 108.42 308.064Z" fill="#CECFE9"/>
<path d="M238.04 205.135C238.04 207.411 238.04 209.707 238.04 211.982H231.23C231.23 209.707 231.23 207.411 231.23 205.135C233.5 205.135 235.77 205.135 238.04 205.135Z" fill="#796C9D"/>
<path d="M47.1301 369.673V376.519C44.8601 376.519 42.5901 376.519 40.3201 376.519C40.3201 374.244 40.3201 371.948 40.3201 369.673C42.5901 369.673 44.8601 369.673 47.1301 369.673Z" fill="#43495A"/>
<path d="M217.61 246.205C217.61 248.48 217.61 250.776 217.61 253.051C217.61 255.327 217.61 257.622 217.61 259.898H210.8C210.8 264.459 210.8 269.03 210.8 273.591C208.53 273.591 206.26 273.591 203.99 273.591C203.99 275.866 203.99 278.162 203.99 280.437C201.72 280.437 199.45 280.437 197.18 280.437V273.591C199.45 273.591 201.72 273.591 203.99 273.591C203.99 271.315 203.99 269.02 203.99 266.744C203.99 264.469 203.99 262.173 203.99 259.898C201.72 259.898 199.45 259.898 197.18 259.898C197.18 262.173 197.18 264.469 197.18 266.744V273.591C194.91 273.591 192.64 273.591 190.37 273.591V280.437C185.84 280.437 181.29 280.437 176.75 280.437C169.94 280.437 163.13 280.437 156.32 280.437H122.04V273.591C124.31 273.591 126.58 273.591 128.85 273.591C131.12 273.591 133.39 273.591 135.66 273.591V266.744C137.93 266.744 140.2 266.744 142.47 266.744C144.81 266.744 147.17 266.744 149.51 266.744V273.591H156.32V266.744C158.59 266.744 160.86 266.744 163.13 266.744C163.13 269.02 163.13 271.315 163.13 273.591C165.4 273.591 167.67 273.591 169.94 273.591C172.21 273.591 174.48 273.591 176.75 273.591V266.744C181.29 266.744 185.83 266.744 190.37 266.744V259.898C192.64 259.898 194.91 259.898 197.18 259.898C197.18 257.622 197.18 255.327 197.18 253.051H203.99V246.205H217.61Z" fill="#796C9D"/>
<path d="M190.37 170.662V177.509H183.56C183.55 182.15 183.56 186.801 183.56 191.432C183.55 200.554 183.56 209.697 183.56 218.819V225.665H176.75V211.972C174.48 211.972 172.21 211.972 169.94 211.972V198.279C169.94 191.362 169.94 184.425 169.94 177.509H183.56C183.56 175.233 183.56 172.938 183.56 170.662C185.83 170.662 188.1 170.662 190.37 170.662Z" fill="#796C9D"/>
<path d="M197.18 170.662V177.509C199.45 177.509 201.72 177.509 203.99 177.509C206.26 177.509 208.53 177.509 210.8 177.509V170.662H217.61V184.586C213.07 184.586 208.53 184.586 203.99 184.586C201.72 184.586 199.45 184.586 197.18 184.586V177.499C194.91 177.499 192.64 177.499 190.37 177.499V170.652C192.64 170.652 194.91 170.652 197.18 170.652V170.662Z" fill="#CECFE9"/>
<path d="M217.61 156.969H210.8V163.816H217.61V156.969Z" fill="#43495A"/>
<path d="M197.18 170.662C199.45 170.662 201.72 170.662 203.99 170.662V177.509C201.72 177.509 199.45 177.509 197.18 177.509V170.662Z" fill="#796C9D"/>
<path d="M224.42 184.596C224.42 186.871 224.42 189.167 224.42 191.442C222.15 191.442 219.88 191.442 217.61 191.442V184.596C219.88 184.596 222.15 184.596 224.42 184.596Z" fill="#796C9D"/>
<path d="M183.56 218.829H190.37V239.368C188.1 239.368 185.83 239.368 183.56 239.368V218.829Z" fill="white"/>
<path d="M176.75 225.675H183.56V232.522C179.02 232.522 174.48 232.532 169.94 232.522C169.94 230.246 169.94 227.951 169.94 225.675H176.75Z" fill="#43495A"/>
<path d="M169.94 225.675C169.94 227.951 169.94 230.246 169.94 232.522C167.67 232.522 165.4 232.522 163.13 232.522C163.13 230.246 163.13 227.951 163.13 225.675H169.94Z" fill="#796C9D"/>
<path d="M176.75 239.358V246.205C174.48 246.205 172.21 246.205 169.94 246.205C169.94 243.929 169.94 241.634 169.94 239.358C172.21 239.358 174.48 239.358 176.75 239.358Z" fill="#796C9D"/>
<path d="M169.94 259.898V266.744C167.67 266.744 165.4 266.744 163.13 266.744C163.13 264.469 163.13 262.173 163.13 259.898C165.4 259.898 167.67 259.898 169.94 259.898Z" fill="#43495A"/>
<path d="M156.33 266.744V273.591H149.52V266.744C151.79 266.744 154.06 266.744 156.33 266.744Z" fill="#CECFE9"/>
<path d="M163.13 218.829C165.4 218.829 167.67 218.829 169.94 218.829C169.94 221.104 169.94 223.4 169.94 225.675H163.13C163.13 223.4 163.13 221.104 163.13 218.829Z" fill="white"/>
<path d="M135.66 266.744V273.591C133.39 273.591 131.12 273.591 128.85 273.591V266.744C131.12 266.744 133.39 266.744 135.66 266.744Z" fill="#CECFE9"/>
<path d="M197.18 198.289C199.45 198.299 201.72 198.289 203.99 198.289C203.99 200.564 203.98 202.86 203.99 205.135C201.72 205.135 199.45 205.135 197.18 205.135C197.18 202.86 197.18 200.564 197.18 198.289Z" fill="white"/>
<path d="M224.42 184.596C226.69 184.596 228.96 184.596 231.23 184.596V198.289H224.42V205.135H217.61V211.982H203.99C203.99 209.707 204 207.411 203.99 205.135C206.26 205.135 208.53 205.135 210.8 205.135V191.442C213.07 191.442 215.34 191.442 217.61 191.442C219.88 191.442 222.15 191.442 224.42 191.442C224.42 189.167 224.42 186.871 224.42 184.596Z" fill="white"/>
<path d="M190.37 177.509C192.64 177.509 194.91 177.509 197.18 177.509V184.596C194.91 184.596 192.64 184.596 190.37 184.596C190.37 186.871 190.37 189.167 190.37 191.442H197.18C197.18 193.718 197.18 196.013 197.18 198.289C194.91 198.279 192.64 198.289 190.37 198.289C190.37 196.013 190.37 193.718 190.37 191.442H183.56C183.56 186.801 183.55 182.15 183.56 177.519H190.37V177.509Z" fill="white"/>
<path d="M231.23 218.829C231.23 221.104 231.23 223.4 231.23 225.675C228.96 225.675 226.69 225.675 224.42 225.675C224.41 230.236 224.41 234.807 224.42 239.368H217.61C217.61 234.807 217.61 230.236 217.61 225.675C219.88 225.675 222.15 225.675 224.42 225.675C224.42 223.4 224.42 221.104 224.42 218.829H231.23Z" fill="#796C9D"/>
<path d="M176.75 280.437V287.284C169.94 287.264 163.13 287.264 156.32 287.284V280.437C163.13 280.437 169.94 280.437 176.75 280.437Z" fill="#343736"/>
<path d="M203.99 266.744C203.99 269.02 203.99 271.315 203.99 273.591C201.72 273.591 199.45 273.591 197.18 273.591V266.744H203.99Z" fill="#CECFE9"/>
<path d="M197.18 273.591V280.437C194.91 280.437 192.64 280.437 190.37 280.437V273.591C192.64 273.591 194.91 273.591 197.18 273.591Z" fill="#CECFE9"/>
<path d="M142.47 294.371V301.218C147.08 301.218 151.71 301.218 156.32 301.218C156.32 303.493 156.32 305.789 156.32 308.064H163.13V301.218C165.4 301.218 167.67 301.218 169.94 301.218V308.064C174.48 308.064 179.02 308.064 183.56 308.064C183.56 305.789 183.56 303.493 183.56 301.218H190.37V294.371C192.64 294.381 194.91 294.371 197.18 294.371C197.18 296.647 197.18 298.942 197.18 301.218C197.18 303.493 197.18 305.789 197.18 308.064C194.91 308.064 192.64 308.064 190.37 308.064C188.1 308.064 185.83 308.064 183.56 308.064C183.56 310.34 183.56 312.635 183.56 314.911C172.22 314.941 160.86 314.941 149.51 314.911V308.064C147.17 308.064 144.81 308.064 142.47 308.064C142.47 305.789 142.47 303.493 142.47 301.218C140.2 301.218 137.93 301.218 135.66 301.218C135.66 298.942 135.66 296.647 135.66 294.371C137.93 294.371 140.2 294.371 142.47 294.371Z" fill="#796C9D"/>
<path d="M190.37 308.064V314.911C188.1 314.911 185.83 314.911 183.56 314.911C183.56 312.635 183.56 310.34 183.56 308.064C185.83 308.064 188.1 308.064 190.37 308.064Z" fill="#43495A"/>
<path d="M156.33 287.284C156.33 291.925 156.32 296.576 156.33 301.208C158.6 301.208 160.87 301.208 163.14 301.208V308.054H156.33C156.33 305.779 156.33 303.483 156.33 301.208C151.72 301.208 147.09 301.208 142.48 301.208V294.361C144.82 294.361 147.18 294.361 149.52 294.361V287.274C151.79 287.274 154.06 287.274 156.33 287.274V287.284Z" fill="#CECFE9"/>
<path d="M176.75 287.284C179.02 287.284 181.29 287.284 183.56 287.284V294.371C185.83 294.371 188.1 294.361 190.37 294.371V301.218H183.56C183.56 303.493 183.56 305.789 183.56 308.064C179.02 308.064 174.48 308.064 169.94 308.064V301.218C172.21 301.218 174.49 301.218 176.75 301.218C176.75 296.576 176.75 291.925 176.75 287.284Z" fill="#CECFE9"/>
<path d="M176.75 287.284C176.75 291.925 176.75 296.576 176.75 301.218C174.48 301.218 172.21 301.218 169.94 301.218C167.67 301.218 165.4 301.218 163.13 301.218C160.86 301.218 158.59 301.218 156.32 301.218C156.31 296.576 156.32 291.925 156.32 287.294C163.13 287.274 169.94 287.274 176.75 287.294V287.284Z" fill="white"/>
<path d="M197.18 259.898C199.45 259.898 201.72 259.898 203.99 259.898C203.99 262.173 203.99 264.469 203.99 266.744H197.18C197.18 264.469 197.18 262.173 197.18 259.898Z" fill="#43495A"/>
<path d="M176.75 266.744V273.591C174.48 273.591 172.21 273.591 169.94 273.591V266.744C172.21 266.744 174.48 266.744 176.75 266.744Z" fill="#CECFE9"/>
<path d="M197.18 184.596C199.45 184.596 201.72 184.596 203.99 184.596V191.442C201.72 191.442 199.45 191.442 197.18 191.442H190.37C190.37 189.167 190.37 186.871 190.37 184.596C192.64 184.596 194.91 184.596 197.18 184.596Z" fill="#796C9D"/>
<path d="M217.61 184.596V191.442C215.34 191.442 213.07 191.442 210.8 191.442C208.53 191.442 206.26 191.442 203.99 191.442V184.596C208.53 184.596 213.07 184.596 217.61 184.596Z" fill="#43495A"/>
<path d="M47.13 95.3603C47.13 97.6358 47.13 99.9314 47.13 102.207C49.4 102.207 51.67 102.197 53.94 102.207C56.21 102.217 58.48 102.207 60.75 102.207C60.75 104.482 60.75 106.778 60.75 109.053H53.94C53.94 111.329 53.94 113.624 53.94 115.9C56.21 115.9 58.48 115.9 60.75 115.9C60.75 118.175 60.75 120.471 60.75 122.746C63.02 122.746 65.29 122.746 67.56 122.746C67.56 125.022 67.56 127.318 67.56 129.593C67.56 131.869 67.56 134.164 67.56 136.44H60.75C60.75 134.164 60.75 131.869 60.75 129.593C60.75 127.318 60.75 125.022 60.75 122.746C58.48 122.746 56.21 122.746 53.94 122.746C53.94 120.471 53.94 118.175 53.94 115.9C51.67 115.9 49.4 115.9 47.13 115.9V109.053C44.86 109.053 42.59 109.063 40.32 109.053C40.32 104.492 40.31 99.9214 40.32 95.3603H47.13Z" fill="#CECFE9"/>
<path d="M60.7499 60.8971C60.7499 63.2528 60.7499 65.6185 60.7499 67.9842C60.7499 70.2597 60.7499 72.5553 60.7499 74.8308H53.9399V60.9071C56.2099 60.9071 58.4799 60.9071 60.7499 60.9071V60.8971Z" fill="white"/>
<path d="M53.94 74.8207V102.207C51.67 102.197 49.4 102.207 47.13 102.207C47.13 99.9314 47.13 97.6358 47.13 95.3603C47.13 93.0848 47.13 90.7893 47.13 88.5138C47.13 83.9528 47.13 79.3817 47.13 74.8207H53.94Z" fill="white"/>
<path d="M74.3701 60.8971C76.6401 60.8971 78.9101 60.8971 81.1801 60.8971C81.1801 63.2528 81.1801 65.6185 81.1801 67.9842H67.5601C67.5601 65.6285 67.5601 63.2628 67.5601 60.8971H74.3701Z" fill="white"/>
<path d="M67.56 54.0506C67.56 56.326 67.56 58.6216 67.56 60.8971C67.56 63.1726 67.56 65.6185 67.56 67.9842H60.75C60.75 65.6285 60.75 63.2628 60.75 60.8971C60.75 58.5314 60.75 56.326 60.75 54.0506H67.56Z" fill="#CECFE9"/>
<path d="M74.37 33.5109C74.36 38.072 74.37 42.643 74.37 47.204C72.1 47.204 69.83 47.204 67.56 47.204C67.56 49.4795 67.56 51.7751 67.56 54.0506H60.75C60.75 51.7751 60.75 49.4795 60.75 47.204C63.02 47.204 65.29 47.204 67.56 47.204C67.56 42.643 67.56 38.072 67.56 33.5109C69.83 33.5109 72.1 33.521 74.37 33.5109Z" fill="white"/>
<path d="M81.18 26.6644C81.17 28.9399 81.18 31.2354 81.18 33.5109C78.91 33.5109 76.64 33.5009 74.37 33.5109C74.37 31.2354 74.37 28.9399 74.37 26.6644C76.64 26.6644 78.91 26.6744 81.18 26.6644Z" fill="#CECFE9"/>
<path d="M74.3701 47.204V54.0506H67.5601C67.5601 51.7751 67.5601 49.4795 67.5601 47.204C69.8301 47.204 72.1001 47.204 74.3701 47.204Z" fill="#796C9D"/>
<path d="M74.3701 156.969C74.3701 159.245 74.3701 161.54 74.3701 163.816C72.1001 163.816 69.8301 163.816 67.5601 163.816C67.5601 161.54 67.5601 159.245 67.5601 156.969H74.3701Z" fill="white"/>
<path d="M67.56 136.44C67.56 138.715 67.56 141.011 67.56 143.286C67.56 147.847 67.56 152.418 67.56 156.979C65.29 156.979 63.02 156.979 60.75 156.979C60.75 150.133 60.75 143.286 60.75 136.44H67.56Z" fill="white"/>
<path d="M60.7499 109.053C60.7499 111.329 60.7499 113.624 60.7499 115.9C58.4799 115.9 56.2099 115.9 53.9399 115.9C53.9399 113.624 53.9399 111.329 53.9399 109.053H60.7499Z" fill="white"/>
<path d="M60.7499 88.5138H53.9399V95.3603H60.7499V88.5138Z" fill="#43495A"/>
<path d="M60.7499 74.8207C60.7499 77.0962 60.7499 79.3918 60.7499 81.6673H53.9399V74.8207H60.7499Z" fill="#CECFE9"/>
<path d="M53.94 67.9742V74.8207H47.13C47.13 72.5452 47.13 70.2497 47.13 67.9742H53.94Z" fill="#CECFE9"/>
<path d="M81.18 67.9742C81.18 70.2497 81.18 72.5452 81.18 74.8207C78.91 74.8207 76.64 74.8207 74.37 74.8207V67.9742H81.18Z" fill="#43495A"/>
<path d="M74.3701 67.9742V74.8207C72.1001 74.8207 69.8301 74.8207 67.5601 74.8207C67.5601 72.5452 67.5601 70.2497 67.5601 67.9742H74.3701Z" fill="#796C9D"/>
<path d="M74.3701 54.0506V60.8971H67.5601C67.5601 58.6216 67.5601 56.326 67.5601 54.0506H74.3701Z" fill="#43495A"/>
<path d="M53.94 60.8971V67.9842H47.13C47.13 65.6285 47.13 63.2628 47.13 60.8971C49.4 60.8971 51.67 60.8971 53.94 60.8971Z" fill="#343736"/>
<path d="M47.13 88.5138C47.13 90.7893 47.13 93.0848 47.13 95.3603H40.3199C40.3199 93.0848 40.3199 90.7893 40.3199 88.5138H47.13Z" fill="#796C9D"/>
<path d="M60.7499 122.746C60.7499 125.022 60.7499 127.318 60.7499 129.593H53.9399C53.9399 127.318 53.9399 125.022 53.9399 122.746C56.2099 122.746 58.4799 122.746 60.7499 122.746Z" fill="white"/>
<path d="M244.85 390.593C244.85 388.388 244.85 385.571 244.85 383.366C244.85 381.091 244.85 378.795 244.85 376.519C244.82 358.265 244.87 340.001 244.85 321.747C247.12 321.747 249.39 321.747 251.66 321.747C251.66 319.472 251.66 317.176 251.66 314.901H244.85V308.054H238.04V301.208H231.23V308.054C231.23 312.615 231.22 317.186 231.23 321.747H238.04C238.04 324.023 238.04 326.318 238.04 328.594C238.05 333.155 238.05 337.726 238.04 342.287C238.04 344.562 238.04 346.858 238.04 349.133H231.23C231.23 351.409 231.23 353.704 231.23 355.98C231.23 358.255 231.23 360.551 231.23 362.826C231.23 365.102 231.23 367.397 231.23 369.673H224.42C224.42 371.948 224.42 374.244 224.42 376.519H231.23V383.366C228.96 383.366 226.69 383.356 224.42 383.366C224.42 385.571 224.42 388.388 224.42 390.593H244.85Z" fill="#343736"/>
<path d="M244.85 389.982H251.66C251.66 387.777 251.66 385.571 251.66 383.366H244.85C244.85 385.571 244.85 387.777 244.85 389.982Z" fill="#43495A"/>
<path d="M244.85 376.519H251.66C251.66 378.795 251.66 381.091 251.66 383.366H258.7V369.673H265.51V362.826H258.7V355.98H265.51V349.133H258.7V342.287H251.66C251.65 335.44 251.68 328.594 251.66 321.747C249.39 321.747 247.12 321.747 244.85 321.747C244.87 340.001 244.82 358.265 244.85 376.519Z" fill="#43495A"/>
<path d="M217.61 389.982C217.61 387.777 217.61 385.571 217.61 383.366C219.88 383.366 222.15 383.376 224.42 383.366C224.42 381.091 224.42 378.795 224.42 376.519C224.42 374.244 224.42 371.948 224.42 369.673H231.23C231.23 367.397 231.23 365.102 231.23 362.826H224.42V355.98H231.23C231.23 353.704 231.23 351.409 231.23 349.133V342.287C228.96 342.287 226.69 342.287 224.42 342.287C224.42 335.44 224.42 328.594 224.42 321.747H217.61C217.61 324.023 217.61 326.318 217.61 328.594H210.8C210.8 324.033 210.8 319.462 210.8 314.901H203.99C203.99 317.176 203.99 319.472 203.99 321.747C203.99 324.023 203.99 326.318 203.99 328.594C201.72 328.594 199.45 328.584 197.18 328.594C197.18 330.869 197.18 333.165 197.18 335.44C197.18 337.716 197.18 340.011 197.18 342.287C197.18 344.562 197.18 346.858 197.18 349.133H203.99V355.98H197.18C197.18 360.541 197.17 365.112 197.18 369.673H203.99V376.519H197.18C197.18 374.244 197.18 371.948 197.18 369.673C194.91 369.673 192.64 369.673 190.37 369.673V389.982H217.61Z" fill="#CECFE9"/>
<path d="M217.61 308.064C217.61 305.789 217.61 303.493 217.61 301.218H210.8C210.8 303.493 210.8 305.789 210.8 308.064C210.8 310.34 210.8 312.635 210.8 314.911H217.61C217.61 312.635 217.61 310.34 217.61 308.064Z" fill="#CECFE9"/>
<path d="M169.94 390.593V376.519C167.67 376.519 165.4 376.519 163.13 376.519C163.13 378.795 163.13 381.091 163.13 383.366H156.32C156.32 381.091 156.32 378.795 156.32 376.519H149.51V390.593H169.94Z" fill="#343736"/>
<path d="M197.18 376.519H203.99V369.673H197.18C197.18 371.948 197.18 374.244 197.18 376.519Z" fill="white"/>
<path d="M169.94 376.519V389.972H190.37V369.663C192.64 369.663 194.91 369.663 197.18 369.663C197.17 365.102 197.18 360.531 197.18 355.97H203.99V349.123H197.18C197.18 346.848 197.18 344.552 197.18 342.277C194.91 342.277 192.64 342.277 190.37 342.277C190.37 344.552 190.37 346.848 190.37 349.123C188.1 349.123 185.83 349.113 183.56 349.123C183.55 351.399 183.56 353.694 183.56 355.97C181.29 355.97 179.02 355.97 176.75 355.97C174.48 355.97 172.21 355.97 169.94 355.97V362.816H163.13C163.13 365.092 163.13 367.387 163.13 369.663C163.13 371.938 163.13 374.234 163.13 376.509C165.4 376.509 167.67 376.509 169.94 376.509V376.519Z" fill="white"/>
<path d="M122.04 355.98V383.366H128.85V389.982H149.51V355.99C144.9 355.99 140.27 355.99 135.66 355.99V349.143C133.39 349.143 131.12 349.153 128.85 349.143V355.99H122.04V355.98Z" fill="#CECFE9"/>
<path d="M128.85 349.133C128.85 346.858 128.85 344.562 128.85 342.287H122.04C122.05 344.562 122.04 346.858 122.04 349.133C124.31 349.133 126.58 349.123 128.85 349.133Z" fill="#CECFE9"/>
<path d="M108.42 383.366C108.73 383.366 108.47 388.689 108.42 389.982H128.84V383.366H122.03V355.98H128.84V349.133C126.57 349.123 124.3 349.133 122.03 349.133C122.03 346.858 122.04 344.562 122.03 342.287C122.02 340.011 122.03 337.716 122.03 335.44C119.76 335.44 117.49 335.45 115.22 335.44V342.287H108.41V376.519H101.6C101.6 378.795 101.6 381.091 101.6 383.366H108.41H108.42Z" fill="#796C9D"/>
<path d="M115.23 328.594H108.42C108.43 330.869 108.42 333.165 108.42 335.44C110.69 335.44 112.96 335.43 115.23 335.44C115.23 333.165 115.23 330.869 115.23 328.594Z" fill="#796C9D"/>
<path d="M319.88 376.379V376.459H319.96L319.88 376.379Z" fill="#343736"/>
<path d="M326.92 390.523V383.186H319.87V376.459H313.18V369.462H299.47V362.736L299.44 362.706H292.75V355.98H285.94V349.133H279.13L279.27 342.287H272.33V335.44H265.52V328.594H258.71V321.747C256.37 321.747 254.01 321.747 251.67 321.747C251.69 328.594 251.66 335.44 251.67 342.287H258.71V349.133H265.52V355.98H258.71V362.826H265.52V369.673H258.71V383.366H251.67C251.67 385.561 251.67 388.388 251.67 390.593L326.93 390.533L326.92 390.523Z" fill="#343736"/>
<rect x="0.51001" y="380.923" width="332" height="5.01211" fill="white"/>
</svg>