<?xml version="1.0" encoding="UTF-8"?>
<svg id="Calque_2" data-name="Calque 2" xmlns="http://www.w3.org/2000/svg" viewBox="0 0 480 528">
  <defs>
    <style>
      .cls-1 {
        fill: #796c9d;
      }

      .cls-2 {
        fill: #fff;
      }

      .cls-3 {
        fill: #a082eb;
      }

      .cls-4 {
        fill: #43495a;
      }

      .cls-5 {
        fill: #343736;
      }

      .cls-6 {
        fill: #cecfe9;
      }

      .cls-7 {
        fill: #a69fb9;
      }
    </style>
  </defs>
  <g id="Calque_1-2" data-name="Calque 1">
    <g>
      <path class="cls-2" d="M400.44,376.16h-.96v-6.71h-6.69v-6.98h-6.09s-6.75,0-6.75,0h-.89v-.66s-.03-6.08-.03-6.08h-6.66v-6.71h-6.81v-6.83h-6.72v-.6s.14-6.23.14-6.23h-7.04v-6.83h-6.81v-6.83h-6.81v-6.85l-6.11.02c-.31,0-.62,0-.94,0,0-.24,0-.49,0-.73v-6.1h-6.81v-6.83h-6.81v-6.83h-14.58s-1.68,0-1.68,0c-1.15,0-2.3,0-3.45,0h-.72c0-.54,0-1.08,0-1.61,0-.02,0-.04,0-.06.24,0,.49,0,.73,0l6.08-.02v-6.81h6.8s0-6.1,0-6.1c0-.99,0-1.98,0-2.97,0-1.29,0-2.57,0-3.85,0-1.23,0-2.47,0-3.7,0-1.05,0-2.09,0-3.13,0-.24,0-.49,0-.73h6.81v-27.32c.25,0,.49,0,.74,0h.7s0,0,0,0h6.1s1.06,0,1.06,0c1.06,0,2.13,0,3.19,0,.92,0,1.85,0,2.77,0l6.1.02v-6.12c0-.24,0-.48,0-.72h.73s6.09,0,6.09,0v-6.1s0-14.38,0-14.38h6.81v-33.65c0-2.07,0-4.14,0-6.21,0-2.48,0-4.97,0-7.45v-6.14s-6.11.02-6.11.02c-.23,0-.47,0-.7,0v-6.83h-6.81v-8.27h6.8v-6.1c.01-1.08.01-2.17.01-3.26,0-1.19,0-2.38,0-3.57,0-3.59,0-7.24,0-10.77,0-1.21,0-2.42,0-3.63h6.81v-6.83h6.81v-25.88h-6.09s-.72,0-.72,0c0-2.52,0-5.04,0-7.56,0-2.14,0-4.28,0-6.42,0-2.49,0-4.99,0-7.48l-.02-6.09h-6.08s-.72,0-.72,0v-.72s0-6.08,0-6.08l-6.06-.03c-.25,0-.5,0-.75,0v-13.64h-6.08c-.86-.01-1.72-.01-2.58-.01-1.34,0-2.68,0-4.02,0-1.34,0-2.67,0-4.01,0-1.08,0-2.16,0-3.24,0-.24,0-.49,0-.73,0v-.72s0-6.11,0-6.11h-13.62c0-2.51,0-5.05,0-7.57,0-1.28,0-2.57,0-3.85,0-.99,0-1.98,0-2.97v-6.1s-6.08,0-6.08,0h-.73V0h-32.77s-.72,0-.72,0h-4.95s-1.14,0-1.14,0h-.72s-59.5,0-59.5,0h-1.14s-.72,0-.72,0h-4.95s-1.14,0-1.14,0h-.72s-6.09,0-6.09,0v6.1s0,.72,0,.72c-.04,0-.09,0-.13,0-1.38,0-2.76,0-4.13,0-1.09,0-2.19,0-3.28,0-.55,0-1.11,0-1.66,0h-2.17s-2.19,0-2.19,0h-.78s-6.09,0-6.09,0v6.1s0,.72,0,.72c-.24,0-.49,0-.73,0-.55,0-1.1,0-1.64,0h-2.19s-2.2,0-2.2,0h-.77s-6.07,0-6.07,0l-.02,6.08c0,.25,0,.49,0,.74-.25,0-.49,0-.74,0l-6.07.02v6.08c0,.24,0,.48,0,.73-.25,0-.49,0-.74,0l-6.07.02v6.09c0,2.01,0,4.03,0,6.05,0,.5,0,1.01,0,1.51h-.72s-6.09,0-6.09,0v6.11c0,.99,0,1.99,0,2.99,0,1.28,0,2.56,0,3.84,0,.25,0,.49,0,.74h-.72s-1.87,0-1.87,0h-3.96s-.98,0-.98,0h-6.09s0,6.1,0,6.1c0,1.03,0,2.05,0,3.08,0,1.33,0,2.65,0,3.97,0,1.23,0,2.45,0,3.68,0,1.05,0,2.1,0,3.15,0,2.54,0,5.07,0,7.56h-.71s-6.09,0-6.09,0v6.1c0,.99,0,1.99,0,2.98,0,1.28,0,2.56,0,3.84,0,2.39,0,4.79,0,7.19,0,2.16,0,4.32,0,6.47v6.09s6.06.03,6.06.03c.25,0,.5,0,.75,0v6.82h6.09s.72,0,.72,0c0,.25,0,.49,0,.74,0,1.27,0,2.54,0,3.82,0,1,0,2,0,3v6.1s6.09,0,6.09,0h.72s0,.72,0,.72c0,3.64,0,7.29,0,10.94,0,1.15,0,2.29,0,3.44h-4.84s-2.68,0-2.68,0h-6.09v39.77h6.81v23.08c0,1.65,0,3.3,0,4.95v6.12s6.09,0,6.09,0h.72c0,.24,0,.49,0,.73v6.1h6.81v6.82h6.08s1.27.01,1.27.01h1.98s1.97,0,1.97,0c.53,0,1.06,0,1.58,0,.49,0,.98,0,1.47,0h1.98s1.96,0,1.96,0c.47,0,.94,0,1.41,0,.24,0,.49,0,.73,0,0,.25,0,.49,0,.74,0,1.22,0,2.44,0,3.67,0,1.05,0,2.11,0,3.16v6.1h6.81c0,1,0,2,0,2.99,0,1.52,0,3.04,0,4.56v12.92l6.07.02c.24,0,.49,0,.73,0v13.62l6.06.03c.25,0,.5,0,.75,0,0,.24,0,.49,0,.73,0,1.27,0,2.54,0,3.81,0,1.08,0,2.17,0,3.25,0,.24,0,.47,0,.71h-6.81v6.83h-.72s-6.09,0-6.09,0v6.1c0,1,0,2,0,3,0,1.28,0,2.55,0,3.83,0,.25,0,.49,0,.74h-13.63v6.12c.01,1.34.01,2.69.01,4.04v2.78s0,.72,0,.72h-6.79l-.02,6.09c0,1.23,0,2.46,0,3.69,0,1.05,0,2.1,0,3.14,0,.24,0,.49,0,.73h-6.81v6.83c-.25,0-.49,0-.73,0-.56,0-1.12,0-1.67,0h-2.17s-2.19,0-2.19,0h-.77s-6.08,0-6.08,0v6.1c0,.24,0,.49,0,.73-.24,0-.47,0-.71,0h-1.17s-1.99,0-1.99,0h-1.98c-.55,0-1.11,0-1.66,0l-6.13-.02.02,6.14c0,.23,0,.47,0,.7-.25,0-.49,0-.73,0-.58,0-1.16,0-1.73,0h-2.24s-2.25,0-2.25,0h-.81s-6.08,0-6.08,0v6.1c0,.24,0,.49,0,.73h-.73s-6.08.01-6.08.01v6.82h-13.62v12.94h333.06s0-.3,0-.3v-12.82h-6.09Z"/>
      <g>
        <rect class="cls-4" x="323.63" y="156.6" width="15.37" height="21.82"/>
        <rect class="cls-2" x="318.46" y="177.08" width="27.36" height="27.55"/>
        <rect class="cls-2" x="311.47" y="197.26" width="27.36" height="27.55"/>
        <rect class="cls-2" x="120.62" y="170.25" width="13.62" height="13.89"/>
        <rect class="cls-2" x="127.43" y="184.03" width="20.54" height="27.43"/>
        <path class="cls-5" d="M277.48,6.11v6.83c2.27,0,4.54,0,6.81,0v6.83c2.27,0,4.54,0,6.81,0h6.81c.02,6.83-.01,13.66,0,20.49h6.81c0-2.27,0-4.56,0-6.83h6.81c0,2.27,0,4.56,0,6.83,2.27,0,4.54,0,6.81,0,4.61.01,9.24,0,13.85,0v13.66c2.27,0,4.54-.01,6.81,0v6.83s6.81,0,6.81,0c.01,4.63,0,9.27,0,13.89s0,9.11,0,13.66h6.81s0,13.66,0,13.66h-6.81v6.83h-6.81c-.01,6.83.02,13.66,0,20.49,0,2.27,0,4.56,0,6.83h-6.81v20.49c-2.35,0-4.7,0-7.05,0,0,2.27,0,4.56,0,6.83s0,4.56,0,6.83,0,4.56,0,6.83c2.35,0,4.7,0,7.05,0,0,2.35,0,4.71,0,7.07s0,4.56,0,6.83c-2.35,0-4.7,0-7.05,0h-6.81c0-6.9,0-13.82,0-20.72,0-6.83,0-13.66,0-20.49h-6.81v-20.49h-6.81c0-9.1,0-18.22,0-27.32-2.27,0-4.54.01-6.81,0v-6.83c4.54,0,9.08,0,13.62,0v-6.83c-4.54,0-9.08,0-13.62,0v-6.83h6.81c0-2.27,0-4.56,0-6.83,4.54,0,9.08.01,13.62,0,2.27,0,4.54,0,6.81,0v-6.83h7.04v-7.07h-13.85v-6.83h-6.81v-6.83h-6.81c0,4.55,0,9.11,0,13.66,0,2.35,0,4.71,0,7.07-2.27,0-4.54,0-6.81,0-4.54,0-9.08,0-13.62,0v-13.9c4.54,0,9.08,0,13.62,0v-6.83c-2.27,0-4.54,0-6.81,0v-6.83h-6.81c0,2.27,0,4.56,0,6.83-2.27,0-4.54,0-6.81,0v-13.66c2.27,0,4.54,0,6.81,0v-6.83c-9.08-.02-18.16.02-27.24,0-.01-2.27,0-4.56,0-6.83h-6.81v6.83c2.27,0,4.54,0,6.81,0,.01,2.27,0,4.56,0,6.83,2.27,0,4.54,0,6.81,0v6.83c-2.27,0-4.54,0-6.81,0-2.27,0-4.54,0-6.81,0,0-2.27,0-4.56,0-6.83h-6.81c0,2.27,0,4.56,0,6.83,2.27,0,4.54,0,6.81,0,0,2.27,0,4.56,0,6.83-2.27,0-4.54,0-6.81,0,0,2.27,0,4.56,0,6.83h-6.81c0-2.27,0-4.56,0-6.83,2.27,0,4.54,0,6.81,0,0-2.27,0-4.56,0-6.83-2.27,0-4.54,0-6.81,0,0-2.27,0-4.56,0-6.83h-6.81v6.83c2.27,0,4.54,0,6.81,0,0,2.27,0,4.56,0,6.83-4.54,0-9.08,0-13.62,0v6.83h6.81v6.83c-2.27,0-4.54,0-6.81,0v7.07c0,.34,6.21,0,6.81,0v6.83h6.81c0-2.27,0-4.56,0-6.83,0-2.35,0-4.71,0-7.07,2.27,0,4.54,0,6.81,0,0-2.27,0-4.56,0-6.83h13.62c0,2.27,0,4.56,0,6.83,0,4.63,0,9.27,0,13.89h6.81v-6.83h6.81v-7.07c0-.34-6.21,0-6.81,0v-6.83c2.27,0,4.54,0,6.81,0,2.27,0,4.54,0,6.81,0v20.72h6.81c.34,0,0,6.23,0,6.83h6.81c0,2.27,0,4.56,0,6.83,2.27,0,4.54,0,6.81,0v6.83c-2.27,0-4.54,0-6.81,0,0-2.27,0-4.56,0-6.83-2.27,0-4.54,0-6.81,0v-6.83c-2.27,0-4.54,0-6.81,0,0,2.27,0,4.56,0,6.83-2.27,0-4.54,0-6.81,0v-6.83h-6.81c-.34,0,0,6.23,0,6.83-4.54,0-9.08,0-13.62,0s-9.08,0-13.62,0c-2.27,0-4.54,0-6.81,0,0-2.27,0-4.56,0-6.83-2.27,0-4.54,0-6.81,0,0-2.27,0-4.56,0-6.83h-7.04v6.83c2.34,0,4.7,0,7.04,0,0,2.27,0,4.56,0,6.83-6.88,0-13.78,0-20.67,0v6.83c-2.27,0-4.54,0-6.81,0-2.27,0-4.54,0-6.81,0,0,2.27,0,4.56,0,6.83s0,4.56,0,6.83,0,4.56,0,6.83c-2.27,0-4.54,0-6.81,0v-6.83h-6.81c0,2.27,0,4.56,0,6.83-2.27,0-4.54,0-6.81,0v6.83c2.27,0,4.54-.01,6.81,0,0,4.55,0,9.11,0,13.66,0,2.27,0,4.56,0,6.83h-6.81v13.66c2.27,0,4.54-.01,6.81,0,0,2.27,0,4.56,0,6.83-2.27.01-4.54,0-6.81,0v6.83h6.81c0-2.27,0-4.56,0-6.83,2.27-.01,4.54,0,6.81,0v-6.83c-2.27,0-4.54.01-6.81,0,0-2.27,0-4.56,0-6.83h6.81c9.08,0,18.16.01,27.24,0,4.61,0,9.24.01,13.85,0,0,2.27,0,4.56,0,6.83s0,4.56,0,6.83h6.81v13.66h-6.81c0-2.27,0-4.56,0-6.83h-7.04c0,2.27,0,4.56,0,6.83,0,2.35,0,4.71,0,7.07,0,2.27,0,4.56,0,6.83h-6.81c0,2.27,0,4.56,0,6.83-2.27,0-4.54-.01-6.81,0v-6.83h6.81c0-2.27,0-4.56,0-6.83v-13.89h-6.81v6.83c-2.27,0-4.54,0-6.81,0,0-2.27,0-4.56,0-6.83h-6.81c0,2.27,0,4.56,0,6.83-2.27,0-4.54,0-6.81,0,0,2.35,0,4.71,0,7.07h-6.81c0,2.27,0,4.56,0,6.83-2.27,0-4.54,0-6.81,0v-13.89c0-.34-6.21,0-6.81,0,0-4.55,0-9.11,0-13.66h-6.81c0,4.55,0,9.11,0,13.66-.01,6.9,0,13.82,0,20.73h6.81c0,2.27,0,4.56,0,6.83,0,2.27,0,4.56,0,6.83h6.81c0,2.27,0,4.56,0,6.83s0,4.56,0,6.83h6.81c0,2.27,0,4.56,0,6.83,0,2.27,0,4.56,0,6.83h6.81c.01,4.55,0,9.11,0,13.66,0,2.27,0,4.56,0,6.83h-13.62c0-4.55.01-9.11,0-13.66,0-2.27,0-4.56,0-6.83h-6.81c0-2.27,0-4.56,0-6.83-2.27,0-4.54,0-6.81,0v-13.66h-6.81c0-2.27.01-4.56,0-6.83-.01-2.27,0-4.56,0-6.83h-6.81c0-2.27.01-4.56,0-6.83s0-4.56,0-6.83h-6.81c-.01-4.63,0-9.27,0-13.89,0-2.27,0-4.56,0-6.83-2.27,0-4.54,0-6.81,0,0-2.27,0-4.56,0-6.83,2.27,0,4.54,0,6.81,0,0,2.27,0,4.56,0,6.83,2.27,0,4.54,0,6.81,0,0,2.27,0,4.56,0,6.83h6.81v-6.83c-2.27,0-4.54,0-6.81,0,0-2.27,0-4.56,0-6.83,2.27,0,4.54,0,6.81,0,0-2.27,0-4.56,0-6.83.01-4.55,0-9.11,0-13.66,0-4.55,0-9.11,0-13.66h-6.81c0-2.27,0-4.56,0-6.83-2.27,0-4.54,0-6.81,0,0-2.27,0-4.56,0-6.83s0-4.56,0-6.83,0-4.56,0-6.83c-2.27,0-4.54.01-6.81,0v-6.83h6.81v-6.83h-6.81v-6.83h6.81c0-2.27,0-4.56,0-6.83s0-4.56,0-6.83h6.81c0,2.27,0,4.56,0,6.83,2.27,0,4.54,0,6.81,0s4.54,0,6.81,0c0-2.27,0-4.56,0-6.83,0-2.35,0-4.71,0-7.07-2.27,0-4.54,0-6.81,0v-13.66c0-4.55-.01-9.11,0-13.66,2.27-.01,4.54,0,6.81,0,0-2.27-.01-4.56,0-6.83,2.27-.01,4.54,0,6.81,0v-6.83c2.27,0,4.54,0,6.81,0,2.27,0,4.54,0,6.81,0v-6.83c4.54-.01,9.08,0,13.62,0v-6.83s88.76,0,88.76,0ZM223.01,12.94v6.83h20.43v-6.83h-20.43ZM202.34,19.77h-13.62v6.83h13.62v-6.83ZM188.72,47.09v-13.66h-13.62v13.66c2.27,0,4.54,0,6.81,0v6.83c2.27,0,4.54,0,6.81,0v6.83c-2.27.01-4.54,0-6.81,0,0,2.35,0,4.71,0,7.07-2.27.01-4.54,0-6.81,0v13.66h6.81c0-4.55-.01-9.11,0-13.66,2.27-.01,4.54,0,6.81,0,0-2.35,0-4.71,0-7.07,2.27-.01,4.54,0,6.81,0v-6.83c2.26,0,4.54,0,6.81,0v-6.83c-4.54,0-9.08.01-13.62,0ZM202.34,33.43v6.83h6.81v-6.83h-6.81ZM202.34,74.64v6.83h6.81v-6.83h-6.81ZM168.29,101.96h6.81v-13.66h-6.81v13.66Z"/>
        <path class="cls-5" d="M188.72,259.27c.01,4.55,0,9.11,0,13.66,2.27,0,4.54,0,6.81,0v6.83c0,4.63.01,9.27,0,13.89-2.27,0-4.54,0-6.81,0,0,2.27,0,4.56,0,6.83h6.81c0-2.27,0-4.56,0-6.83,2.27,0,4.54,0,6.81,0v6.83c2.27,0,4.54,0,6.81,0,0,2.27,0,4.56,0,6.83,2.27,0,4.54,0,6.81,0,0,2.27,0,4.56,0,6.83,2.35,0,4.7,0,7.05,0,11.34.03,22.7.03,34.05,0,2.27,0,4.54,0,6.81,0v-6.83c2.27,0,4.54,0,6.81,0,0-2.27,0-4.56,0-6.83h6.81v-13.89h6.81c0-4.55,0-9.11,0-13.66,4.54,0,9.08,0,13.62,0v13.66c-2.27,0-4.54,0-6.81,0,0,4.63,0,9.27,0,13.9h-6.81c0,2.27,0,4.56,0,6.83h-6.81c0,2.27,0,4.56,0,6.83,0,2.27,0,4.56,0,6.83h-6.81c0,2.27,0,4.56,0,6.83-2.27.01-4.54,0-6.81,0,0,2.27,0,4.56,0,6.83h-13.62v6.83h-13.62c0,4.55,0,9.11,0,13.66-2.27,0-4.54,0-6.81,0s-4.54,0-6.81,0c-4.61,0-9.24,0-13.85,0v-6.83c-2.27,0-4.54.01-6.81,0,0-2.27,0-4.56,0-6.83h-6.81c-.01-2.27,0-4.56,0-6.83-2.27,0-4.54.01-6.81,0,0-2.27,0-4.56,0-6.83h-6.81c-.01-2.27,0-4.56,0-6.83h-6.81c0-2.27,0-4.56,0-6.83h6.81c0-2.27,0-4.56,0-6.83,0-2.27,0-4.56,0-6.83,0-2.27,0-4.56,0-6.83h6.81c0-2.35,0-4.71,0-7.07h-6.81c0-2.27,0-4.56,0-6.83-2.27,0-4.54.01-6.81,0v-13.66c2.27,0,4.54,0,6.81,0,0-2.27,0-4.56,0-6.83,2.27,0,4.54,0,6.81,0Z"/>
        <path class="cls-5" d="M195.53,115.62c0,2.27,0,4.56,0,6.83h-6.81c0-2.27,0-4.56,0-6.83h6.81Z"/>
        <path class="cls-5" d="M345.82,163.42c-.01,4.55,0,9.11,0,13.66-2.27,0-4.54,0-6.81,0-2.27,0-4.54,0-6.81,0,0-2.27,0-4.56,0-6.83,2.27,0,4.54,0,6.81,0,0-2.27,0-4.56,0-6.83,2.27,0,4.54,0,6.81,0h0Z"/>
        <path class="cls-5" d="M304.72,266.1c0,2.27,0,4.56,0,6.83h-6.81c0-2.27,0-4.56,0-6.83h6.81Z"/>
        <path class="cls-5" d="M291.1,252.44h6.81c0,4.55,0,9.11,0,13.66-2.27,0-4.54,0-6.81,0,0-2.27,0-4.56,0-6.83,0-2.27,0-4.56,0-6.83Z"/>
        <path class="cls-1" d="M318.34,170.25c0,6.9,0,13.82,0,20.72,0,2.27,0,4.56,0,6.83h-6.81c0-6.9-.02-13.82,0-20.72,0-2.27,0-4.56,0-6.83h6.81Z"/>
        <path class="cls-4" d="M154.67,341.46c0,2.27,0,4.56,0,6.83-2.27,0-4.54,0-6.81,0,0-2.27,0-4.56,0-6.83h6.81Z"/>
        <g>
          <path class="cls-5" d="M120.62,375.61c0,2.27,0,4.56,0,6.83,0,2.19,0,5.01,0,7.2h61.29c.04-1.29.31-7.2,0-7.2h-6.81c0-2.27,0-4.56,0-6.83-.01-4.55,0-9.11,0-13.66h-6.81v-13.66h6.81c0-2.27,0-4.56,0-6.83h-6.81c0-2.27,0-4.56,0-6.83-.01-4.55,0-9.11,0-13.66h-6.81c-.01,2.27,0,4.56,0,6.83-2.27,0-4.54-.01-6.81,0,0,2.27,0,4.56,0,6.83,0,2.27,0,4.56,0,6.83,0,2.27,0,4.56,0,6.83-2.27,0-4.54,0-6.81,0,0,2.27,0,4.56,0,6.83,0,2.27,0,4.56,0,6.83-2.27,0-4.54,0-6.81,0,0,2.27,0,4.56,0,6.83h-6.81v-6.83c-2.27,0-4.54,0-6.81,0,0,2.27,0,4.56,0,6.83,0,2.27,0,4.56,0,6.83-2.27,0-4.54,0-6.81,0Z"/>
          <path class="cls-5" d="M113.81,382.44c0-2.27,0-4.56,0-6.83-2.27,0-4.54,0-6.81,0,0,2.27,0,4.56,0,6.83h-7.05c0,2.19,0,5.01,0,7.2h13.85c0-2.19,0-5.01,0-7.2Z"/>
        </g>
        <path class="cls-4" d="M291.1,12.94v6.83c-2.27,0-4.54,0-6.81,0v-6.83c2.27,0,4.54,0,6.81,0Z"/>
        <path class="cls-1" d="M291.1,6.11v6.83c-2.27,0-4.54,0-6.81,0-2.27,0-4.54,0-6.81,0v-6.83h13.62Z"/>
        <path class="cls-1" d="M291.1,12.94c2.27,0,4.54,0,6.81,0,0,2.27,0,4.56,0,6.83h-6.81v-6.83Z"/>
        <path class="cls-1" d="M147.86,142.94c0,4.55.01,9.11,0,13.66h-6.81c0-4.55,0-9.11,0-13.66h6.81Z"/>
        <path class="cls-6" d="M181.91,184.15c0,2.27,0,4.56,0,6.83,4.54,0,9.08,0,13.62,0h6.81v6.83c2.27-.01,4.54,0,6.81,0,0-2.27,0-4.56,0-6.83h6.81c-.01,11.38,0,22.77,0,34.15v6.83h-6.81v6.83c2.27,0,4.54,0,6.81,0s4.7,0,7.04,0c0,2.27,0,4.56,0,6.83,2.27,0,4.54,0,6.81,0,2.27,0,4.54,0,6.81,0v6.83c-2.27,0-4.54,0-6.81,0v6.83c-4.61,0-9.24,0-13.85,0,0-.6.34-6.83,0-6.83h-13.62v-6.83h-6.81v-6.83h-6.81v-13.66h-6.81v-6.83c-2.27,0-4.54,0-6.81,0,0-4.55,0-9.11,0-13.66h13.62c.01,2.27,0,4.56,0,6.83h13.62c0-2.27,0-4.56,0-6.83,0-2.27,0-4.56,0-6.83-2.27.01-4.54,0-6.81,0v6.83s-6.81,0-6.81,0c-.01-2.27,0-4.56,0-6.83-2.27,0-4.54,0-6.81,0,0-2.27,0-4.56,0-6.83-2.27,0-4.54,0-6.81,0,0-2.27,0-4.56,0-6.83h6.81Z"/>
        <path class="cls-1" d="M223.01,184.15h13.62c0,4.55,0,9.11,0,13.66,0,2.27,0,4.56,0,6.83,0,2.27,0,4.56,0,6.83,0,2.27,0,4.56,0,6.83-2.27,0-4.54,0-6.81,0,0,2.27.01,4.56,0,6.83h-13.85c0-11.38-.01-22.77,0-34.15,0-2.27,0-4.56,0-6.83h7.04Z"/>
        <path class="cls-1" d="M154.67,177.08c0-4.55,0-9.11,0-13.66h6.81c0,4.55,0,9.11,0,13.66.6,0,6.81-.34,6.81,0v13.89c2.27,0,4.54,0,6.81,0,0,2.27,0,4.56,0,6.83s0,4.56,0,6.83c0,4.55,0,9.11,0,13.66,2.27,0,4.54,0,6.81,0v6.83h6.81v13.66h6.81v6.83h6.81v6.83h13.62c.34,0,0,6.23,0,6.83-4.54,0-9.08,0-13.62,0,0,2.27,0,4.56,0,6.83-2.27,0-4.54,0-6.81,0v-6.83c-2.27,0-4.54,0-6.81,0,0-2.27,0-4.56,0-6.83h-6.81c0-4.55.01-9.11,0-13.66,0-2.27,0-4.56,0-6.83h-6.81c0-2.27,0-4.56,0-6.83s0-4.56,0-6.83c-2.27,0-4.54,0-6.81,0,0-2.27,0-4.56,0-6.83s0-4.56,0-6.83h-6.81c0-2.27,0-4.56,0-6.83-.01-6.9.01-13.82,0-20.72h-6.81Z"/>
        <path class="cls-4" d="M304.72,129.28h6.81v20.49h6.81c0,6.83,0,13.66,0,20.49h-6.81c0,2.27,0,4.56,0,6.83-2.27,0-4.54,0-6.81,0v-6.83h-6.81v-6.83h13.62v-6.83h-27.24v6.83h27.24v-6.83h-6.81v-6.83c0-6.83,0-13.66,0-20.49Z"/>
        <path class="cls-6" d="M223.01,149.77c2.27,0,4.54,0,6.81,0v-6.83h6.81v6.83h6.81v-6.83h6.81c0,2.27,0,4.56,0,6.83s0,4.56,0,6.83h-6.81c0,4.55,0,9.11,0,13.66h-6.81c0-4.55,0-9.11,0-13.66-2.27,0-4.54,0-6.81,0s-4.54,0-6.81,0c0-2.27,0-4.56,0-6.83Z"/>
        <path class="cls-4" d="M304.72,60.75c0-4.55,0-9.11,0-13.66h6.81v6.83h6.81v6.83h13.85v7.07h-7.04v6.83c-2.27,0-4.54,0-6.81,0v-6.83c-2.27,0-4.54,0-6.81,0v-7.07s-6.81,0-6.81,0Z"/>
        <path class="cls-4" d="M127.43,211.47v-6.83h6.81c0,2.27,0,4.56,0,6.83h13.62c.01,2.27,0,4.56,0,6.83h6.81v13.66c-2.27,0-4.54,0-6.81,0-2.27,0-4.54,0-6.81,0v-6.83h-6.81c0-2.27,0-4.56,0-6.83s0-4.56,0-6.83h-6.81Z"/>
        <path class="cls-1" d="M257.05,47.09v6.83h6.81v6.83h-6.81c0-2.27,0-4.56,0-6.83h-6.81v-6.83c2.27,0,4.54,0,6.81,0Z"/>
        <path class="cls-1" d="M277.48,33.43v13.66c2.27,0,4.54,0,6.81,0,0-2.27,0-4.56,0-6.83h6.81v6.83c-2.27,0-4.54,0-6.81,0,0,2.27,0,4.56,0,6.83-2.27,0-4.54,0-6.81,0s-4.54,0-6.81,0v-6.83c-4.54,0-9.08,0-13.62,0v-6.83c2.27,0,4.54,0,6.81,0v-6.83c4.53.01,9.08.01,13.62,0Z"/>
        <path class="cls-4" d="M291.1,47.09c2.27,0,4.54,0,6.81,0v6.83c-4.54,0-9.08,0-13.62,0v13.9c4.54,0,9.08,0,13.62,0v6.83c2.27,0,4.54,0,6.81,0,0,2.27,0,4.56,0,6.83h-6.81v-6.83c-2.27,0-4.54,0-6.81,0,0,2.27,0,4.56,0,6.83h-6.81c0-.6.34-6.83,0-6.83h-6.81v-20.72c2.27,0,4.54,0,6.81,0,0-2.27,0-4.56,0-6.83,2.27,0,4.54,0,6.81,0Z"/>
        <path class="cls-4" d="M181.91,47.09c-2.27,0-4.54,0-6.81,0v-13.66h13.62v13.66c-2.27,0-4.54,0-6.81,0Z"/>
        <path class="cls-4" d="M257.05,26.6c-2.27,0-4.54,0-6.81,0v-6.83h6.81c0,2.27-.01,4.56,0,6.83,9.08.02,18.16-.02,27.24,0v6.83c-2.27,0-4.54,0-6.81,0-4.54.01-9.08.01-13.62,0-2.27,0-4.54,0-6.81,0,0-2.27.01-4.56,0-6.83Z"/>
        <path class="cls-6" d="M195.53,177.08c2.27,0,4.54,0,6.81,0v-6.83h6.81v13.89c-4.54,0-9.08.01-13.62,0,0-2.35,0-4.71,0-7.07Z"/>
        <path class="cls-4" d="M263.86,60.75c.6,0,6.81-.34,6.81,0v7.07h-6.81v6.83h-6.81c0-4.63,0-9.27,0-13.89h6.81Z"/>
        <path class="cls-4" d="M161.48,177.08c.01,6.9-.01,13.82,0,20.72h-6.81c.01-6.9-.01-13.82,0-20.72h6.81Z"/>
        <path class="cls-4" d="M188.72,177.08c0-2.27,0-4.56,0-6.83h6.81c0,2.27,0,4.56,0,6.83-2.27,0-4.54,0-6.81,0,0,2.35,0,4.71,0,7.07,2.27,0,4.54,0,6.81,0v6.83c-4.54,0-9.08,0-13.62,0,0-2.27,0-4.56,0-6.83,0-2.35,0-4.71,0-7.07,2.27,0,4.54,0,6.81,0Z"/>
        <path class="cls-4" d="M223.01,81.47c-2.34,0-4.7,0-7.04,0v-6.83h7.04c0,2.27,0,4.56,0,6.83,2.27,0,4.54,0,6.81,0,0,2.27,0,4.56,0,6.83,2.27,0,4.54,0,6.81,0v6.83c-2.27,0-4.54,0-6.81,0,0-2.27,0-4.56,0-6.83-2.27,0-4.54,0-6.81,0,0,2.27,0,4.56,0,6.83-2.34,0-4.7,0-7.04,0-4.54,0-9.08,0-13.62,0v-6.83c6.88,0,13.78.01,20.66,0,0-2.27,0-4.56,0-6.83Z"/>
        <rect class="cls-4" x="223.01" y="12.94" width="20.43" height="6.83"/>
        <path class="cls-1" d="M229.82,156.59c2.27,0,4.54,0,6.81,0,0,4.55,0,9.11,0,13.66,0,2.27,0,4.56,0,6.83h-6.81v-20.49Z"/>
        <path class="cls-1" d="M243.43,40.26c0,2.27,0,4.56,0,6.83-2.27,0-4.54,0-6.81,0,0-2.27,0-4.56,0-6.83,2.27,0,4.54,0,6.81,0Z"/>
        <path class="cls-1" d="M236.62,47.09c0,2.27,0,4.56,0,6.83,0,2.27,0,4.56,0,6.83-2.27,0-4.54,0-6.81,0v-6.83h-6.81v-6.83c4.54,0,9.08,0,13.62,0Z"/>
        <path class="cls-1" d="M188.72,47.09c4.54.01,9.08,0,13.62,0v6.83c-2.27,0-4.54,0-6.81,0-2.27,0-4.54,0-6.81,0-2.27,0-4.54,0-6.81,0v-6.83c2.27,0,4.54,0,6.81,0Z"/>
        <path class="cls-4" d="M243.43,40.26c0-2.27,0-4.56,0-6.83h6.81c0,2.27,0,4.56,0,6.83,2.27,0,4.54,0,6.81,0v6.83c-2.27,0-4.54,0-6.81,0v6.83h-6.81c0,2.27,0,4.56,0,6.83-2.27,0-4.54,0-6.81,0,0,2.35,0,4.71,0,7.07h-6.81c-.6,0-6.81.34-6.81,0v-7.07c2.27,0,4.54,0,6.81,0,2.27,0,4.54,0,6.81,0,0-2.27,0-4.56,0-6.83h6.81c0-2.27,0-4.56,0-6.83,2.27,0,4.54,0,6.81,0,0-2.27,0-4.56,0-6.83-2.27,0-4.54,0-6.81,0Z"/>
        <path class="cls-4" d="M257.05,47.09c4.54,0,9.08,0,13.62,0v6.83c-2.27,0-4.54,0-6.81,0h-6.81v-6.83Z"/>
        <path class="cls-4" d="M297.91,88.3c4.54,0,9.08,0,13.62,0v6.83c-4.54,0-9.08,0-13.62,0v-6.83Z"/>
        <rect class="cls-4" x="188.72" y="19.77" width="13.62" height="6.83"/>
        <path class="cls-4" d="M181.91,252.44h6.81c0,2.27,0,4.56,0,6.83,2.27,0,4.54,0,6.81,0v6.83c2.27,0,4.54,0,6.81,0,0-2.27,0-4.56,0-6.83,4.54,0,9.08,0,13.62,0v6.83c-2.27,0-4.54,0-6.81,0-2.27,0-4.54,0-6.81,0v6.83c-2.27,0-4.54,0-6.81,0-2.27,0-4.54,0-6.81,0,0-4.55.01-9.11,0-13.66-2.27,0-4.54,0-6.81,0,0-2.27,0-4.56,0-6.83Z"/>
        <path class="cls-4" d="M181.91,259.27c0,2.27,0,4.56,0,6.83-2.27,0-4.54,0-6.81,0-2.27,0-4.54,0-6.81,0v-6.83h13.62Z"/>
        <path class="cls-1" d="M297.91,74.64v13.66c-2.27,0-4.54,0-6.81,0,0-2.27,0-4.56,0-6.83,0-2.27,0-4.56,0-6.83,2.27,0,4.54,0,6.81,0Z"/>
        <path class="cls-4" d="M175.1,115.62c0-2.27,0-4.56,0-6.83h6.81v6.83c-2.27,0-4.54,0-6.81,0,0,2.27,0,4.56,0,6.83,2.27.01,4.54,0,6.81,0,0,2.27,0,4.56,0,6.83,0,2.27,0,4.56,0,6.83h-6.81c0-4.55,0-9.11,0-13.66-2.27-.01-4.54,0-6.81,0v-6.83c2.27,0,4.54,0,6.81,0Z"/>
        <path class="cls-1" d="M195.53,177.08c0,2.35,0,4.71,0,7.07,4.54.01,9.08,0,13.62,0,0,2.27,0,4.56,0,6.83h-13.62v-6.83c-2.27,0-4.54,0-6.81,0,0-2.35,0-4.71,0-7.07,2.27,0,4.54,0,6.81,0Z"/>
        <path class="cls-4" d="M181.91,67.81c-.01,4.55,0,9.11,0,13.66h-6.81v-13.66c2.27,0,4.54.01,6.81,0Z"/>
        <path class="cls-1" d="M311.53,67.81c2.27,0,4.54,0,6.81,0v6.83c-4.54.01-9.08,0-13.62,0,0-2.27,0-4.56,0-6.83,2.27,0,4.54,0,6.81,0Z"/>
        <path class="cls-1" d="M181.91,136.11v13.66h-6.81c0-2.27,0-4.56,0-6.83,0-2.27,0-4.56,0-6.83h6.81Z"/>
        <path class="cls-4" d="M175.1,142.94c0,2.27,0,4.56,0,6.83s0,4.56,0,6.83c2.27.01,4.54,0,6.81,0v6.83c-2.27,0-4.54-.01-6.81,0,0,2.27,0,4.56,0,6.83h-6.81v-6.83c2.27,0,4.54.01,6.81,0,0-2.27,0-4.56,0-6.83-2.27-.01-4.54,0-6.81,0v-13.66h6.81Z"/>
        <path class="cls-1" d="M250.24,88.3v6.83c-4.54,0-9.08,0-13.62,0v-6.83c4.54,0,9.08,0,13.62,0Z"/>
        <path class="cls-6" d="M263.86,88.3v6.83c-4.54,0-9.08,0-13.62,0v-6.83c4.54,0,9.08,0,13.62,0Z"/>
        <path class="cls-1" d="M284.29,81.47v6.83c-2.27,0-4.54,0-6.81,0,0,2.27,0,4.56,0,6.83-2.27,0-4.54,0-6.81,0-2.27,0-4.54,0-6.81,0v-6.83c2.27,0,4.54,0,6.81,0,2.27,0,4.54,0,6.81,0,0-2.27,0-4.56,0-6.83,2.27,0,4.54,0,6.81,0Z"/>
        <path class="cls-4" d="M141.05,129.28h6.81c0,4.55,0,9.11,0,13.66h-6.81c0-2.27,0-4.56,0-6.83s0-4.56,0-6.83Z"/>
        <path class="cls-2" d="M223.01,177.08c0,2.35,0,4.71,0,7.07h-7.04c0-2.35,0-4.71,0-7.07h7.04Z"/>
        <path class="cls-1" d="M188.72,60.75c0,2.35,0,4.71,0,7.07-2.27,0-4.54-.01-6.81,0,0-2.35,0-4.71,0-7.07,2.27,0,4.54.01,6.81,0Z"/>
        <path class="cls-6" d="M304.72,60.75h6.81s0,7.07,0,7.07c-2.27,0-4.54,0-6.81,0,0,2.27,0,4.56,0,6.83-2.27,0-4.54,0-6.81,0v-6.83c2.27,0,4.54,0,6.81,0,0-2.35,0-4.71,0-7.07Z"/>
        <path class="cls-1" d="M215.96,177.08c0-2.27,0-4.56,0-6.83h7.04c0,2.27,0,4.56,0,6.83h-7.04Z"/>
        <path class="cls-4" d="M229.82,177.08v7.07h-6.81c0-2.35,0-4.71,0-7.07h6.81Z"/>
        <path class="cls-1" d="M175.1,12.94v6.83c-2.27,0-4.54,0-6.81,0v-6.83c2.27,0,4.54,0,6.81,0Z"/>
        <path class="cls-1" d="M195.53,6.11v6.83c-2.27,0-4.54,0-6.81,0v-6.83c2.27,0,4.54,0,6.81,0Z"/>
        <path class="cls-1" d="M202.34,6.11v6.83c-2.27,0-4.54,0-6.81,0v-6.83c2.27,0,4.54,0,6.81,0Z"/>
        <path class="cls-1" d="M270.52,6.11v6.83c-2.27,0-4.54,0-6.81,0v-6.83c2.27,0,4.54,0,6.81,0Z"/>
        <path class="cls-1" d="M263.71,6.11v6.83c-2.27,0-4.54,0-6.81,0v-6.83c2.27,0,4.54,0,6.81,0Z"/>
        <path class="cls-1" d="M161.48,19.77v6.83c-2.27,0-4.54-.01-6.81,0,.01-2.27,0-4.56,0-6.83,2.27,0,4.54,0,6.81,0Z"/>
        <rect class="cls-4" x="202.34" y="33.43" width="6.81" height="6.83"/>
        <path class="cls-4" d="M236.62,40.26c-2.27,0-4.54,0-6.81,0v-6.83h6.81c0,2.27,0,4.56,0,6.83Z"/>
        <path class="cls-4" d="M134.24,190.98h6.81c0,2.27-.01,4.56,0,6.83h-6.81c0-2.27,0-4.56,0-6.83Z"/>
        <path class="cls-4" d="M134.24,156.59c0,2.27,0,4.56,0,6.83,2.27,0,4.54,0,6.81,0,0,2.27,0,4.56,0,6.83,2.27,0,4.54,0,6.81,0v6.83h-6.81c0-2.27,0-4.56,0-6.83-2.27,0-4.54,0-6.81,0,0-2.27,0-4.56,0-6.83-2.27,0-4.54,0-6.81,0,0,2.27,0,4.56,0,6.83,2.27,0,4.54,0,6.81,0,0,2.27,0,4.56,0,6.83-2.27,0-4.54,0-6.81,0,0,2.35,0,4.71,0,7.07h-6.81v-7.07c2.27,0,4.54,0,6.81,0,0-2.27,0-4.56,0-6.83-2.27,0-4.54,0-6.81,0v-13.66c4.54,0,9.08,0,13.62,0Z"/>
        <path class="cls-4" d="M325.15,190.98v6.83c-2.27,0-4.54,0-6.81,0,0-2.27,0-4.56,0-6.83h6.81Z"/>
        <path class="cls-4" d="M318.34,197.81v6.83c-2.27,0-4.54,0-6.81,0,0-2.27,0-4.56,0-6.83h6.81Z"/>
        <path class="cls-4" d="M161.48,204.64h6.81c0,2.27,0,4.56,0,6.83h-6.81c0-2.27,0-4.56,0-6.83Z"/>
        <path class="cls-4" d="M229.82,156.59v6.83h-6.81c0-2.27,0-4.56,0-6.83,2.27,0,4.54,0,6.81,0Z"/>
        <path class="cls-4" d="M175.1,218.3c0,2.27,0,4.56,0,6.83h-6.81c0-2.27,0-4.56,0-6.83,2.27,0,4.54,0,6.81,0Z"/>
        <path class="cls-4" d="M175.1,231.95h6.81c0,2.27,0,4.56,0,6.83h-6.81c0-2.27,0-4.56,0-6.83Z"/>
        <path class="cls-1" d="M161.48,238.78h6.81c0,2.27,0,4.56,0,6.83h-6.81c0-2.27,0-4.56,0-6.83Z"/>
        <rect class="cls-4" x="168.29" y="95.13" width="6.81" height="6.83"/>
        <rect class="cls-6" x="168.29" y="88.3" width="6.81" height="6.83"/>
        <path class="cls-4" d="M263.86,88.3c0-.6-.34-6.83,0-6.83h6.81v6.83c-2.27,0-4.54,0-6.81,0Z"/>
        <rect class="cls-1" x="202.34" y="74.64" width="6.81" height="6.83"/>
        <path class="cls-1" d="M236.62,67.81c0,2.27,0,4.56,0,6.83h-6.81v-6.83h6.81Z"/>
        <path class="cls-4" d="M195.53,53.92v6.83c-2.27,0-4.54-.01-6.81,0v-6.83c2.27,0,4.54,0,6.81,0Z"/>
        <path class="cls-5" d="M318.34,204.64v27.32c-2.27,0-4.54,0-6.81,0v27.32h-6.81c0-4.55,0-9.11,0-13.66h-6.81c0-2.27,0-4.56,0-6.83,2.27,0,4.54,0,6.81,0,0-4.55,0-9.11,0-13.66,2.27,0,4.54,0,6.81,0,0-4.55,0-9.11,0-13.66,0-2.27,0-4.56,0-6.83,2.27,0,4.54,0,6.81,0Z"/>
        <path class="cls-6" d="M339.01,204.64v20.49c-2.27,0-4.54,0-6.81,0-2.34,0-4.7,0-7.04,0h-6.81v-13.66h6.81v6.83h7.04c0-2.27,0-4.56,0-6.83,0-2.27,0-4.56,0-6.83,2.27,0,4.54,0,6.81,0Z"/>
        <path class="cls-4" d="M332.2,204.64c0-2.27,0-4.56,0-6.83h13.62v6.83c-2.27,0-4.54,0-6.81,0-2.27,0-4.54,0-6.81,0,0,2.27,0,4.56,0,6.83h-7.04c0-2.27,0-4.56,0-6.83,2.35,0,4.7,0,7.05,0Z"/>
        <path class="cls-4" d="M332.2,225.13c0,2.27,0,4.56,0,6.83-2.34,0-4.7,0-7.04,0v-6.83c2.34,0,4.7,0,7.04,0Z"/>
        <path class="cls-6" d="M304.72,300.49v6.83h-6.81c0-2.27,0-4.56,0-6.83,2.27,0,4.54,0,6.81,0Z"/>
        <path class="cls-4" d="M297.91,307.32c0,2.27,0,4.56,0,6.83h-6.81c0-2.27,0-4.56,0-6.83h6.81Z"/>
        <path class="cls-4" d="M339.01,184.15c2.27,0,4.54,0,6.81,0v6.83h-6.81c0-2.27,0-4.56,0-6.83Z"/>
        <path class="cls-6" d="M147.86,348.29c0,2.27,0,4.56,0,6.83h-6.81c0,2.27,0,4.56,0,6.83-2.27,0-4.54,0-6.81,0-2.27,0-4.54,0-6.81,0,0,2.27,0,4.56,0,6.83h-6.81c-2.27,0-4.54,0-6.81,0,0,2.27,0,4.56,0,6.83-2.27,0-4.54,0-6.81,0,0,2.27,0,4.56,0,6.83h-7.05c0-2.27,0-4.56,0-6.83,2.34,0,4.7,0,7.04,0,0-2.27,0-4.56,0-6.83,2.27,0,4.54,0,6.81,0,0-2.27,0-4.56,0-6.83,2.27,0,4.54,0,6.81,0s4.54,0,6.81,0c0-2.27,0-4.56,0-6.83,2.27,0,4.54,0,6.81,0,2.27,0,4.54,0,6.81,0,0-2.27,0-4.56,0-6.83h6.81Z"/>
        <path class="cls-6" d="M161.48,320.97c-.01,2.27,0,4.56,0,6.83-2.27,0-4.54-.01-6.81,0,0-2.27,0-4.56,0-6.83h6.81Z"/>
        <path class="cls-6" d="M154.67,334.63c0,2.27,0,4.56,0,6.83h-6.81c0-2.27,0-4.56,0-6.83h6.81Z"/>
        <path class="cls-4" d="M175.1,320.97h6.81c0,2.27-.01,4.56,0,6.83.01,2.27,0,4.56,0,6.83,2.27,0,4.54-.01,6.81,0v6.83h-6.81v34.15h-6.81c-.01-4.55,0-9.11,0-13.66h-6.81v-13.66h6.81c0-2.27,0-4.56,0-6.83,0-2.27,0-4.56,0-6.83,0-4.55,0-9.11,0-13.66Z"/>
        <path class="cls-1" d="M99.96,375.61c0,2.27,0,4.56,0,6.83,0,2.27,0,4.56,0,6.83h-20.43v-6.83h13.62v-6.83c2.27,0,4.54,0,6.81,0Z"/>
        <path class="cls-6" d="M181.91,300.49c0,2.27,0,4.56,0,6.83-2.27,0-4.54,0-6.81,0,0,2.27,0,4.56,0,6.83s0,4.56,0,6.83c0,4.55,0,9.11,0,13.66h-6.81c-.01-4.55,0-9.11,0-13.66,0-2.27,0-4.56,0-6.83,0-2.27,0-4.56,0-6.83,2.27,0,4.54,0,6.81,0,0-2.27,0-4.56,0-6.83h6.81Z"/>
        <path class="cls-4" d="M107.01,368.78c0,2.27,0,4.56,0,6.83-2.34,0-4.7,0-7.04,0,0-2.27,0-4.56,0-6.83,2.35,0,4.7,0,7.05,0Z"/>
        <path class="cls-4" d="M120.62,382.44c0,2.27,0,4.56,0,6.83h-6.81c0-2.27,0-4.56,0-6.83h6.81Z"/>
        <path class="cls-1" d="M175.1,334.63c0,2.27,0,4.56,0,6.83h-6.81c0-2.27,0-4.56,0-6.83h6.81Z"/>
        <path class="cls-4" d="M147.86,355.12c0,2.27,0,4.56,0,6.83-2.27,0-4.54,0-6.81,0,0-2.27,0-4.56,0-6.83h6.81Z"/>
        <path class="cls-1" d="M141.05,361.95c0,2.27,0,4.56,0,6.83h-6.81v-6.83c2.27,0,4.54,0,6.81,0Z"/>
        <path class="cls-1" d="M127.43,368.78c0,2.27,0,4.56,0,6.83-2.27,0-4.54,0-6.81,0,0,2.27,0,4.56,0,6.83h-6.81c0-2.27,0-4.56,0-6.83,2.27,0,4.54,0,6.81,0v-6.83h6.81Z"/>
        <path class="cls-1" d="M291.1,314.14c0,2.27,0,4.56,0,6.83s0,4.56,0,6.83h-6.81c0-4.55,0-9.11,0-13.66h6.81Z"/>
        <path class="cls-4" d="M297.91,375.61h6.81v6.83c-2.27,0-4.54-.01-6.81,0,0,2.27,0,4.56,0,6.83h-6.81c0-2.27,0-4.56,0-6.83,2.27,0,4.54.01,6.81,0,0-2.27,0-4.56,0-6.83Z"/>
        <path class="cls-4" d="M284.29,307.32c0,2.27,0,4.56,0,6.83h-6.81c0-2.27,0-4.56,0-6.83h6.81Z"/>
        <path class="cls-2" d="M297.91,314.14c0,2.27,0,4.56,0,6.83h-6.81c0-2.27,0-4.56,0-6.83h6.81Z"/>
        <path class="cls-1" d="M277.48,320.97c0,2.27,0,4.56,0,6.83-2.27,0-4.54-.01-6.81,0,0-2.27,0-4.56,0-6.83h6.81Z"/>
        <path class="cls-4" d="M270.67,327.8c0,2.27,0,4.56,0,6.83h-6.81c0,2.27,0,4.56,0,6.83-2.27,0-4.54,0-6.81,0,0,2.27.01,4.56,0,6.83-2.27.01-4.54,0-6.81,0v6.83c-2.27,0-4.54,0-6.81,0-2.27,0-4.54,0-6.81,0,0,2.27,0,4.56,0,6.83s0,4.56,0,6.83h-6.81v-13.66c2.27,0,4.54,0,6.81,0,0-4.55,0-9.11,0-13.66h13.62v-6.83h13.62c0-2.27,0-4.56,0-6.83,2.27,0,4.54.01,6.81,0Z"/>
        <path class="cls-1" d="M270.67,334.63c0,2.27,0,4.56,0,6.83-2.27,0-4.54,0-6.81,0,0,2.27,0,4.56,0,6.83-2.27,0-4.54-.01-6.81,0,.01-2.27,0-4.56,0-6.83,2.27,0,4.54,0,6.81,0,0-2.27,0-4.56,0-6.83h6.81Z"/>
        <path class="cls-4" d="M311.53,341.46c0,2.27,0,4.56,0,6.83h-6.81v-6.83h6.81Z"/>
        <path class="cls-1" d="M304.72,355.12c0,2.27,0,4.56,0,6.83h-6.81v-6.83h6.81Z"/>
        <path class="cls-1" d="M318.34,375.61h6.81c0,2.27,0,4.56,0,6.83h-6.81c0-2.27,0-4.56,0-6.83Z"/>
        <path class="cls-4" d="M304.72,320.97h6.81c0,2.27,0,4.56,0,6.83h-6.81c0-2.27,0-4.56,0-6.83Z"/>
        <path class="cls-5" d="M257.05,348.29c-.01,2.27,0,4.56,0,6.83-2.27,0-4.54,0-6.81,0v-6.83c2.27,0,4.54.01,6.81,0Z"/>
        <path class="cls-6" d="M243.43,355.12v6.83s-6.81,0-6.81,0c0-2.27,0-4.56,0-6.83,2.27,0,4.54,0,6.81,0Z"/>
        <path class="cls-6" d="M236.62,368.78c0,2.27,0,4.56,0,6.83-2.27,0-4.54,0-6.81,0,0-2.27,0-4.56,0-6.83h6.81Z"/>
        <path class="cls-2" d="M229.82,355.12v13.66c0,2.27,0,4.56,0,6.83h-6.81v-20.49c2.27,0,4.54,0,6.81,0Z"/>
        <path class="cls-1" d="M236.62,375.61c0,2.27,0,4.56,0,6.83h-6.81c0-2.27,0-4.56,0-6.83,2.27,0,4.54,0,6.81,0Z"/>
        <path class="cls-2" d="M134.24,211.47c0,2.27,0,4.56,0,6.83h-6.81c0-2.27,0-4.56,0-6.83h6.81Z"/>
        <path class="cls-5" d="M263.86,149.77h40.86v6.83h6.81v6.83h-6.81v-6.83h-20.43v6.83h13.62v6.83h6.81v6.83c-2.27,0-4.54,0-6.81,0,0,2.35,0,4.71,0,7.07-2.27,0-4.54,0-6.81,0v-13.89h-6.81v6.83c-2.27,0-4.54,0-6.81,0v-6.83c-2.27,0-4.54,0-6.81,0s-4.54,0-6.81,0-4.54,0-6.81,0c0,2.27,0,4.56,0,6.83h-13.62c0-2.27,0-4.56,0-6.83,2.27,0,4.54,0,6.81,0,0-2.27,0-4.56,0-6.83h6.81s0-13.66,0-13.66h6.81Z"/>
        <path class="cls-4" d="M257.05,149.77v13.66s-6.81,0-6.81,0c0-2.27,0-4.56,0-6.83s0-4.56,0-6.83h6.81Z"/>
        <path class="cls-5" d="M236.62,225.13c0,2.27,0,4.56,0,6.83,2.27,0,4.54,0,6.81,0,4.54.01,9.08,0,13.62,0v6.83c-2.27,0-4.54,0-6.81,0s-4.54,0-6.81,0c0,2.27,0,4.56,0,6.83-2.27,0-4.54,0-6.81,0s-4.54,0-6.81,0v-6.83c-2.27,0-4.54,0-6.81,0v-6.83h6.81c0-2.27-.01-4.56,0-6.83h6.81Z"/>
        <path class="cls-4" d="M229.82,225.13c-.01,2.27,0,4.56,0,6.83h-6.81v6.83c-2.34,0-4.7,0-7.04,0v-13.66h13.85Z"/>
        <path class="cls-5" d="M229.82,259.27c2.27,0,4.54,0,6.81,0,0,2.27,0,4.56,0,6.83,2.27,0,4.54,0,6.81,0v-6.83c2.27,0,4.54,0,6.81,0,4.54,0,9.08,0,13.62,0v6.83c-4.54,0-9.08,0-13.62,0-2.27,0-4.54,0-6.81,0v6.83c-2.27,0-4.54,0-6.81,0,0-2.27,0-4.56,0-6.83-2.27,0-4.54,0-6.81,0-2.27,0-4.54,0-6.81,0-2.34,0-4.7,0-7.04,0v-6.83c4.61,0,9.24,0,13.85,0Z"/>
        <path class="cls-2" d="M236.62,252.44c2.27,0,4.54,0,6.81,0,2.27,0,4.54,0,6.81,0v6.83c-2.27,0-4.54,0-6.81,0-2.27,0-4.54,0-6.81,0-2.27,0-4.54,0-6.81,0v-6.83c2.27,0,4.54,0,6.81,0Z"/>
        <path class="cls-2" d="M195.53,204.64h6.81c0,2.27,0,4.56,0,6.83h-13.62c0-2.27.01-4.56,0-6.83h6.81Z"/>
        <path class="cls-5" d="M181.91,197.81v6.83h-6.81c0-2.27,0-4.56,0-6.83,2.27,0,4.54,0,6.81,0Z"/>
        <path class="cls-1" d="M181.91,197.81c2.27,0,4.54,0,6.81,0,0,2.27-.01,4.56,0,6.83h-6.81v-6.83Z"/>
        <path class="cls-4" d="M202.34,197.81c0,2.27,0,4.56,0,6.83h-6.81v-6.83c2.27,0,4.54.01,6.81,0Z"/>
        <path class="cls-2" d="M215.96,231.95v6.83c-2.27,0-4.54,0-6.81,0v-6.83h6.81Z"/>
        <path class="cls-1" d="M223.01,238.78c2.27,0,4.54,0,6.81,0v6.83c-2.27,0-4.55,0-6.81,0,0-2.27,0-4.56,0-6.83Z"/>
        <path class="cls-4" d="M243.43,245.61v6.83c-2.27,0-4.54,0-6.81,0v-6.83c2.27,0,4.54,0,6.81,0Z"/>
        <g>
          <path class="cls-7" d="M270.67,142.94c2.27-.01,4.54,0,6.81,0v-6.83h6.81v13.66h-13.62v-6.83Z"/>
          <path class="cls-6" d="M223.01,95.13c0,2.27,0,4.56,0,6.83h6.81c0-2.27,0-4.56,0-6.83,2.27,0,4.54,0,6.81,0,4.54,0,9.08,0,13.62,0,4.54,0,9.08,0,13.62,0,2.27,0,4.54,0,6.81,0v20.49h-6.81v-6.83h-6.81v6.83h-6.81v6.83h13.62v13.66h6.81c.34,0,0,6.23,0,6.83-2.27.01-4.54,0-6.81,0v6.83s-6.81,0-6.81,0h-6.81c0-2.27,0-4.56,0-6.83h-6.81v6.83h-6.81v-6.83h-6.81v6.83c-2.27,0-4.54,0-6.81,0-4.61.01-9.24,0-13.85,0v-13.66h13.85v-6.83h-7.04v-13.66h7.04v-6.83h-7.04v-13.66c2.34,0,4.7,0,7.04,0Z"/>
          <path class="cls-7" d="M202.34,95.13c4.54,0,9.08,0,13.62,0v13.66h7.04v6.83h-7.04v13.66h7.04v6.83h-13.85v13.66c-9.08.01-18.16,0-27.24,0v-13.66c2.27,0,4.54,0,6.81,0,4.54,0,9.08,0,13.62,0v-6.83c-2.27,0-4.54,0-6.81,0v-6.83c0-2.27,0-4.56,0-6.83,0-2.27,0-4.56,0-6.83h-6.81c0-2.27,0-4.56,0-6.83h6.81s0-6.83,0-6.83c2.27,0,4.54,0,6.81,0Z"/>
          <path class="cls-7" d="M297.91,95.13v6.83c2.27.01,4.54,0,6.81,0,0,9.1,0,18.22,0,27.32,0,6.83,0,13.66,0,20.49h-6.81v-47.81c-2.27-.01-4.54,0-6.81,0,0-2.27,0-4.56,0-6.83,2.27,0,4.54,0,6.81,0Z"/>
          <path class="cls-7" d="M181.91,115.62c2.27,0,4.54,0,6.81,0,0,2.27,0,4.56,0,6.83h6.81s0,6.83,0,6.83c-2.27,0-4.54,0-6.81,0h-6.81c0-2.27,0-4.56,0-6.83-2.27,0-4.54.01-6.81,0,0-2.27,0-4.56,0-6.83,2.27,0,4.54,0,6.81,0Z"/>
          <path class="cls-7" d="M188.72,108.79h6.81c0,2.27,0,4.56,0,6.83h-6.81c0-2.27,0-4.56,0-6.83Z"/>
          <path class="cls-7" d="M195.53,95.13v6.83s-6.81,0-6.81,0c0-2.27,0-4.56,0-6.83,2.27,0,4.54,0,6.81,0Z"/>
          <path class="cls-7" d="M277.48,95.13c4.54,0,9.08,0,13.62,0,0,2.27,0,4.56,0,6.83,2.27,0,4.54-.01,6.81,0v47.81h-13.62v-13.66h-6.81v6.83c-2.27,0-4.54-.01-6.81,0,0-.6.34-6.83,0-6.83h-6.81v-13.66h-13.62v-6.83h6.81v-6.83h6.81v6.83h6.81v-20.49c2.27,0,4.54,0,6.81,0Z"/>
          <path class="cls-7" d="M270.67,142.94v6.83h-6.81v-6.83c2.27,0,4.54.01,6.81,0Z"/>
          <path class="cls-7" d="M229.82,95.13c0,2.27,0,4.56,0,6.83h-6.81c0-2.27,0-4.56,0-6.83,2.27,0,4.54,0,6.81,0Z"/>
          <path class="cls-7" d="M195.53,129.28c2.27,0,4.54,0,6.81,0v6.83c-4.54,0-9.08,0-13.62,0v-6.83c2.27,0,4.54,0,6.81,0Z"/>
        </g>
        <path class="cls-5" d="M188.72,129.28v6.83c-2.27,0-4.54,0-6.81,0,0-2.27,0-4.56,0-6.83h6.81Z"/>
        <path class="cls-2" d="M243.43,170.25c0,2.27,0,4.56,0,6.83,0,6.9,0,13.82,0,20.72h-6.81c0-4.55,0-9.11,0-13.66,0-2.35,0-4.71,0-7.07,0-2.27,0-4.56,0-6.83h6.81Z"/>
        <path class="cls-6" d="M243.43,211.47c2.27,0,4.54,0,6.81,0v13.66h-6.81c0-2.27,0-4.56,0-6.83-2.27,0-4.54,0-6.81,0,0,2.27,0,4.56,0,6.83h-6.81c.01-2.27,0-4.56,0-6.83,2.27,0,4.54,0,6.81,0,0-2.27,0-4.56,0-6.83h6.81Z"/>
        <path class="cls-6" d="M236.62,177.08c0,2.35,0,4.71,0,7.07h-6.81v-7.07h6.81Z"/>
        <path class="cls-6" d="M243.43,197.81v6.83h-6.81c0-2.27,0-4.56,0-6.83h6.81Z"/>
        <path class="cls-2" d="M243.43,204.64v6.83h-6.81c0-2.27,0-4.56,0-6.83h6.81Z"/>
        <path class="cls-6" d="M277.48,190.98c2.27,0,4.54,0,6.81,0v13.66c-2.27,0-4.54,0-6.81,0-.01-2.27,0-4.56,0-6.83-2.27,0-4.54.01-6.81,0,0-2.27,0-4.56,0-6.83,2.27,0,4.54,0,6.81,0Z"/>
        <path class="cls-6" d="M304.72,177.08c2.27,0,4.54,0,6.81,0-.02,6.9,0,13.82,0,20.72,0,2.27,0,4.56,0,6.83-2.27,0-4.54,0-6.81,0,0,2.27,0,4.56,0,6.83,0,2.27,0,4.56,0,6.83h-6.81c0,2.27,0,4.56,0,6.83-2.27,0-4.54,0-6.81,0,0,4.55,0,9.11,0,13.66,0,2.27,0,4.56,0,6.83h-13.62v6.83h-6.81c0,2.27,0,4.56,0,6.83-2.27,0-4.54,0-6.81,0-4.54,0-9.08,0-13.62,0v-6.83c-2.27,0-4.54,0-6.81,0v-6.83c2.27,0,4.54,0,6.81,0v-6.83c2.27,0,4.54,0,6.81,0,2.27,0,4.54,0,6.81,0v-20.49h-6.81c0-9.1-.01-18.22,0-27.32h6.81c0,2.27,0,4.56,0,6.83,2.27,0,4.54-.01,6.81,0,0,2.27,0,4.56,0,6.83,2.27,0,4.54,0,6.81,0,.01,2.27,0,4.56,0,6.83h13.62v-6.83h6.81v-6.83h6.81v-13.66c-2.27,0-4.54,0-6.81,0,0-2.35,0-4.71,0-7.07,2.27,0,4.54,0,6.81,0Z"/>
        <polygon class="cls-1" points="304.72 156.59 304.72 163.42 284.29 163.42 284.29 156.59 311.53 156.59 311.53 163.42 297.91 163.42 291.1 163.42 291.1 156.59 304.72 156.59"/>
        <path class="cls-2" d="M181.91,190.98c0,2.27,0,4.56,0,6.83-2.27,0-4.54,0-6.81,0,0-2.27,0-4.56,0-6.83,2.27,0,4.54,0,6.81,0Z"/>
        <path class="cls-1" d="M250.24,156.59c0,2.27,0,4.56,0,6.83s0,4.56,0,6.83c-2.27,0-4.54,0-6.81,0,0-4.55,0-9.11,0-13.66h6.81Z"/>
        <path class="cls-1" d="M229.82,88.3c0,2.27,0,4.56,0,6.83-2.27,0-4.54,0-6.81,0,0-2.27,0-4.56,0-6.83,2.27,0,4.54,0,6.81,0Z"/>
        <path class="cls-4" d="M284.29,88.3c2.27,0,4.54,0,6.81,0,0,2.27,0,4.56,0,6.83-4.54,0-9.08,0-13.62,0,0-2.27,0-4.56,0-6.83,2.27,0,4.54,0,6.81,0Z"/>
        <path class="cls-4" d="M229.82,279.76v6.83c-2.27,0-4.54,0-6.81,0v7.07c-2.34,0-4.7,0-7.04,0s-4.54,0-6.81,0c0,2.27,0,4.56,0,6.83,2.27,0,4.54,0,6.81,0,0,2.27,0,4.56,0,6.83,2.35,0,4.7,0,7.05,0v6.83c-2.35,0-4.7,0-7.05,0,0-2.27,0-4.56,0-6.83-2.27,0-4.54,0-6.81,0,0-2.27,0-4.56,0-6.83-2.27,0-4.54,0-6.81,0v-6.83c-2.27,0-4.54,0-6.81,0,.01-4.63,0-9.27,0-13.89h34.28Z"/>
        <path class="cls-4" d="M291.1,259.27c0,2.27,0,4.56,0,6.83,2.27,0,4.54,0,6.81,0,0,2.27,0,4.56,0,6.83-4.54,0-9.08,0-13.62,0,0,4.55,0,9.11,0,13.66h-6.81v13.89h-6.81c0-2.27,0-4.56,0-6.83-2.27,0-4.54.01-6.81,0s-4.54,0-6.81,0v-7.07c-2.27,0-4.54,0-6.81,0v-6.83c4.54,0,9.08,0,13.62,0,2.27,0,4.54,0,6.81,0,2.27,0,4.54,0,6.81,0,0-2.27,0-4.56,0-6.83,2.27,0,4.54,0,6.81,0,0-4.55,0-9.11,0-13.66h6.81Z"/>
        <path class="cls-4" d="M304.72,272.93c0,2.27,0,4.56,0,6.83h-6.81v-6.83h6.81Z"/>
        <path class="cls-4" d="M311.53,211.47c0,4.55,0,9.11,0,13.66-2.27,0-4.54,0-6.81,0,0,4.55,0,9.11,0,13.66-2.27,0-4.54,0-6.81,0,0,2.27,0,4.56,0,6.83h6.81c0,4.55,0,9.11,0,13.66,0,2.27,0,4.56,0,6.83h-6.81c0-4.55,0-9.11,0-13.66h-6.81c0-2.27,0-4.56,0-6.83,0-2.27,0-4.56,0-6.83h6.81c-.01-4.55-.01-9.11,0-13.66,2.27,0,4.54,0,6.81,0,0-2.27,0-4.56,0-6.83,0-2.27,0-4.56,0-6.83h6.81Z"/>
        <path class="cls-2" d="M181.91,286.59h6.81c0,2.35,0,4.71,0,7.07h-6.81c0-2.35,0-4.71,0-7.07Z"/>
        <path class="cls-1" d="M195.53,293.66c0,2.27,0,4.56,0,6.83h-6.81c0-2.27,0-4.56,0-6.83,2.27,0,4.54,0,6.81,0Z"/>
        <path class="cls-6" d="M181.91,307.32c0,2.27,0,4.56,0,6.83h-6.81c0-2.27,0-4.56,0-6.83,2.27,0,4.54,0,6.81,0Z"/>
        <path class="cls-1" d="M311.53,204.64c0,2.27,0,4.56,0,6.83h-6.81c0-2.27,0-4.56,0-6.83,2.27,0,4.54,0,6.81,0Z"/>
        <path class="cls-4" d="M120.62,368.78v6.83c-2.27,0-4.54,0-6.81,0,0-2.27,0-4.56,0-6.83,2.27,0,4.54,0,6.81,0Z"/>
        <path class="cls-1" d="M291.1,245.61c0,2.27,0,4.56,0,6.83,0,2.27,0,4.56,0,6.83h-6.81c0,4.55,0,9.11,0,13.66-2.27,0-4.54,0-6.81,0,0,2.27,0,4.56,0,6.83-2.27,0-4.54,0-6.81,0v-6.83c2.27,0,4.54,0,6.81,0,0-2.27,0-4.56,0-6.83s0-4.56,0-6.83c-2.27,0-4.54,0-6.81,0,0,2.27,0,4.56,0,6.83v6.83c-2.27,0-4.54,0-6.81,0v6.83c-4.53,0-9.08,0-13.62,0-6.81,0-13.62,0-20.43,0h-34.28v-6.83c2.27,0,4.54,0,6.81,0s4.54,0,6.81,0v-6.83c2.27,0,4.54,0,6.81,0,2.34,0,4.7,0,7.04,0v6.83h6.81v-6.83c2.27,0,4.54,0,6.81,0,0,2.27,0,4.56,0,6.83,2.27,0,4.54,0,6.81,0s4.54,0,6.81,0v-6.83c4.54,0,9.08,0,13.62,0v-6.83c2.27,0,4.54,0,6.81,0,0-2.27,0-4.56,0-6.83h6.81v-6.83h13.62Z"/>
        <path class="cls-1" d="M263.86,170.25v6.83h-6.81c-.01,4.63,0,9.27,0,13.89-.01,9.1,0,18.22,0,27.32v6.83h-6.81v-13.66c-2.27,0-4.54,0-6.81,0v-13.66c0-6.9,0-13.82,0-20.72h13.62c0-2.27,0-4.56,0-6.83,2.27,0,4.54,0,6.81,0Z"/>
        <path class="cls-6" d="M270.67,170.25v6.83c2.27,0,4.54,0,6.81,0,2.27,0,4.54,0,6.81,0v-6.83h6.81v13.89c-4.54,0-9.08,0-13.62,0-2.27,0-4.54,0-6.81,0v-7.07c-2.27,0-4.54,0-6.81,0v-6.83c2.27,0,4.54,0,6.81,0Z"/>
        <rect class="cls-4" x="284.29" y="156.59" width="6.81" height="6.83"/>
        <path class="cls-1" d="M270.67,170.25c2.27,0,4.54,0,6.81,0v6.83c-2.27,0-4.54,0-6.81,0v-6.83Z"/>
        <path class="cls-1" d="M297.91,184.15c0,2.27,0,4.56,0,6.83-2.27,0-4.54,0-6.81,0v-6.83c2.27,0,4.54,0,6.81,0Z"/>
        <path class="cls-2" d="M257.05,218.3h6.81v20.49c-2.27,0-4.54,0-6.81,0v-20.49Z"/>
        <path class="cls-4" d="M250.24,225.13h6.81v6.83c-4.54,0-9.08.01-13.62,0,0-2.27,0-4.56,0-6.83h6.81Z"/>
        <path class="cls-1" d="M243.43,225.13c0,2.27,0,4.56,0,6.83-2.27,0-4.54,0-6.81,0,0-2.27,0-4.56,0-6.83h6.81Z"/>
        <path class="cls-1" d="M250.24,238.78v6.83c-2.27,0-4.54,0-6.81,0,0-2.27,0-4.56,0-6.83,2.27,0,4.54,0,6.81,0Z"/>
        <path class="cls-4" d="M243.43,259.27v6.83c-2.27,0-4.54,0-6.81,0,0-2.27,0-4.56,0-6.83,2.27,0,4.54,0,6.81,0Z"/>
        <path class="cls-6" d="M229.82,266.1v6.83h-6.81v-6.83c2.27,0,4.54,0,6.81,0Z"/>
        <path class="cls-2" d="M236.62,218.3c2.27,0,4.54,0,6.81,0,0,2.27,0,4.56,0,6.83h-6.81c0-2.27,0-4.56,0-6.83Z"/>
        <path class="cls-6" d="M209.15,266.1v6.83c-2.27,0-4.54,0-6.81,0v-6.83c2.27,0,4.54,0,6.81,0Z"/>
        <g>
          <path class="cls-2" d="M270.67,197.81c2.27.01,4.54,0,6.81,0,0,2.27-.01,4.56,0,6.83-2.27,0-4.54,0-6.81,0,0-2.27,0-4.56,0-6.83Z"/>
          <path class="cls-2" d="M297.91,184.15c2.27,0,4.54,0,6.81,0v13.66h-6.81v6.83h-6.81v6.83h-13.62c0-2.27.01-4.56,0-6.83,2.27,0,4.54,0,6.81,0v-13.66c2.27,0,4.54,0,6.81,0,2.27,0,4.54,0,6.81,0,0-2.27,0-4.56,0-6.83Z"/>
          <path class="cls-2" d="M263.86,177.08c2.27,0,4.54,0,6.81,0v7.07c-2.27,0-4.54,0-6.81,0,0,2.27,0,4.56,0,6.83h6.81c0,2.27,0,4.56,0,6.83-2.27-.01-4.54,0-6.81,0,0-2.27,0-4.56,0-6.83h-6.81c0-4.63-.01-9.27,0-13.89h6.81Z"/>
        </g>
        <path class="cls-1" d="M304.72,218.3c0,2.27,0,4.56,0,6.83-2.27,0-4.54,0-6.81,0-.01,4.55-.01,9.11,0,13.66h-6.81c0-4.55,0-9.11,0-13.66,2.27,0,4.54,0,6.81,0,0-2.27,0-4.56,0-6.83h6.81Z"/>
        <path class="cls-5" d="M250.24,279.76v6.83c-6.81-.02-13.62-.02-20.43,0v-6.83c6.81,0,13.62,0,20.43,0Z"/>
        <path class="cls-6" d="M277.48,266.1c0,2.27,0,4.56,0,6.83-2.27,0-4.54,0-6.81,0v-6.83h6.81Z"/>
        <path class="cls-6" d="M270.67,272.93v6.83c-2.27,0-4.54,0-6.81,0v-6.83c2.27,0,4.54,0,6.81,0Z"/>
        <g>
          <path class="cls-1" d="M215.96,293.66v6.83c4.61,0,9.24,0,13.85,0,0,2.27,0,4.56,0,6.83h6.81v-6.83c2.27,0,4.54,0,6.81,0v6.83c4.54,0,9.08,0,13.62,0,0-2.27,0-4.56,0-6.83h6.81v-6.83c2.27.01,4.54,0,6.81,0,0,2.27,0,4.56,0,6.83s0,4.56,0,6.83c-2.27,0-4.54,0-6.81,0-2.27,0-4.54,0-6.81,0,0,2.27,0,4.56,0,6.83-11.34.03-22.7.03-34.05,0v-6.83c-2.34,0-4.7,0-7.04,0,0-2.27,0-4.56,0-6.83-2.27,0-4.54,0-6.81,0,0-2.27,0-4.56,0-6.83,2.27,0,4.54,0,6.81,0Z"/>
          <path class="cls-4" d="M263.86,307.32v6.83c-2.27,0-4.54,0-6.81,0,0-2.27,0-4.56,0-6.83,2.27,0,4.54,0,6.81,0Z"/>
          <path class="cls-6" d="M229.82,286.59c0,4.63-.01,9.27,0,13.89,2.27,0,4.54,0,6.81,0v6.83h-6.81c0-2.27,0-4.56,0-6.83-4.61,0-9.24,0-13.85,0v-6.83c2.34,0,4.7,0,7.04,0v-7.07c2.27,0,4.54,0,6.81,0Z"/>
          <path class="cls-6" d="M250.24,286.59c2.27,0,4.54,0,6.81,0v7.07c2.27,0,4.54-.01,6.81,0v6.83h-6.81c0,2.27,0,4.56,0,6.83-4.54,0-9.08,0-13.62,0v-6.83c2.27,0,4.55,0,6.81,0,0-4.63,0-9.27,0-13.9Z"/>
          <path class="cls-2" d="M250.24,286.59c0,4.63,0,9.27,0,13.9-2.27,0-4.54,0-6.81,0s-4.54,0-6.81,0-4.54,0-6.81,0c-.01-4.63,0-9.27,0-13.89,6.81-.02,13.62-.02,20.43,0Z"/>
        </g>
        <path class="cls-4" d="M270.67,259.27c2.27,0,4.54,0,6.81,0,0,2.27,0,4.56,0,6.83h-6.81c0-2.27,0-4.56,0-6.83Z"/>
        <path class="cls-6" d="M250.24,266.1v6.83c-2.27,0-4.54,0-6.81,0v-6.83c2.27,0,4.54,0,6.81,0Z"/>
        <path class="cls-1" d="M270.67,184.15c2.27,0,4.54,0,6.81,0v6.83c-2.27,0-4.54,0-6.81,0h-6.81c0-2.27,0-4.56,0-6.83,2.27,0,4.54,0,6.81,0Z"/>
        <path class="cls-4" d="M291.1,184.15v6.83c-2.27,0-4.54,0-6.81,0s-4.54,0-6.81,0v-6.83c4.54,0,9.08,0,13.62,0Z"/>
        <g>
          <path class="cls-6" d="M120.62,95.13c0,2.27,0,4.56,0,6.83,2.27,0,4.54-.01,6.81,0s4.54,0,6.81,0c0,2.27,0,4.56,0,6.83h-6.81c0,2.27,0,4.56,0,6.83,2.27,0,4.54,0,6.81,0,0,2.27,0,4.56,0,6.83,2.27,0,4.54,0,6.81,0,0,2.27,0,4.56,0,6.83,0,2.27,0,4.56,0,6.83h-6.81c0-2.27,0-4.56,0-6.83s0-4.56,0-6.83c-2.27,0-4.54,0-6.81,0,0-2.27,0-4.56,0-6.83-2.27,0-4.54,0-6.81,0v-6.83c-2.27,0-4.54.01-6.81,0,0-4.55-.01-9.11,0-13.66h6.81Z"/>
          <path class="cls-2" d="M134.24,60.75c0,2.35,0,4.71,0,7.07,0,2.27,0,4.56,0,6.83h-6.81v-13.89c2.27,0,4.54,0,6.81,0Z"/>
          <path class="cls-2" d="M127.43,74.64v27.32c-2.27-.01-4.54,0-6.81,0,0-2.27,0-4.56,0-6.83s0-4.56,0-6.83c0-4.55,0-9.11,0-13.66h6.81Z"/>
          <path class="cls-2" d="M147.86,60.75c2.27,0,4.54,0,6.81,0,0,2.35,0,4.71,0,7.07h-13.62c0-2.35,0-4.71,0-7.07h6.81Z"/>
          <path class="cls-6" d="M141.05,53.92c0,2.27,0,4.56,0,6.83s0,4.71,0,7.07h-6.81c0-2.35,0-4.71,0-7.07s0-4.56,0-6.83h6.81Z"/>
          <path class="cls-2" d="M147.86,33.43c-.01,4.55,0,9.11,0,13.66-2.27,0-4.54,0-6.81,0,0,2.27,0,4.56,0,6.83h-6.81c0-2.27,0-4.56,0-6.83,2.27,0,4.54,0,6.81,0,0-4.55,0-9.11,0-13.66,2.27,0,4.54.01,6.81,0Z"/>
          <path class="cls-6" d="M154.67,26.6c-.01,2.27,0,4.56,0,6.83-2.27,0-4.54-.01-6.81,0,0-2.27,0-4.56,0-6.83,2.27,0,4.54.01,6.81,0Z"/>
          <path class="cls-1" d="M147.86,47.09v6.83h-6.81c0-2.27,0-4.56,0-6.83,2.27,0,4.54,0,6.81,0Z"/>
          <path class="cls-2" d="M147.86,156.59c0,2.27,0,4.56,0,6.83-2.27,0-4.54,0-6.81,0,0-2.27,0-4.56,0-6.83h6.81Z"/>
          <path class="cls-2" d="M141.05,136.11c0,2.27,0,4.56,0,6.83,0,4.55,0,9.11,0,13.66-2.27,0-4.54,0-6.81,0,0-6.83,0-13.66,0-20.49h6.81Z"/>
          <path class="cls-2" d="M134.24,108.79c0,2.27,0,4.56,0,6.83-2.27,0-4.54,0-6.81,0,0-2.27,0-4.56,0-6.83h6.81Z"/>
          <rect class="cls-4" x="127.43" y="88.3" width="6.81" height="6.83"/>
          <path class="cls-6" d="M134.24,74.64c0,2.27,0,4.56,0,6.83h-6.81v-6.83h6.81Z"/>
          <path class="cls-6" d="M127.43,67.81v6.83h-6.81c0-2.27,0-4.56,0-6.83h6.81Z"/>
          <path class="cls-4" d="M154.67,67.81c0,2.27,0,4.56,0,6.83-2.27,0-4.54,0-6.81,0v-6.83h6.81Z"/>
          <path class="cls-1" d="M147.86,67.81v6.83c-2.27,0-4.54,0-6.81,0,0-2.27,0-4.56,0-6.83h6.81Z"/>
          <path class="cls-4" d="M147.86,53.92v6.83h-6.81c0-2.27,0-4.56,0-6.83h6.81Z"/>
          <path class="cls-5" d="M127.43,60.75v7.07h-6.81c0-2.35,0-4.71,0-7.07,2.27,0,4.54,0,6.81,0Z"/>
          <path class="cls-1" d="M120.62,88.3c0,2.27,0,4.56,0,6.83h-6.81c0-2.27,0-4.56,0-6.83h6.81Z"/>
          <path class="cls-2" d="M134.24,122.45c0,2.27,0,4.56,0,6.83h-6.81c0-2.27,0-4.56,0-6.83,2.27,0,4.54,0,6.81,0Z"/>
        </g>
        <path class="cls-5" d="M318.34,389.65c0-2.2,0-5.01,0-7.21,0-2.27,0-4.56,0-6.83-.03-18.21.02-36.43,0-54.64,2.27,0,4.54,0,6.81,0,0-2.27,0-4.56,0-6.83h-6.81v-6.83h-6.81v-6.83h-6.81v6.83c0,4.55-.01,9.11,0,13.66h6.81c0,2.27,0,4.56,0,6.83.01,4.55.01,9.11,0,13.66,0,2.27,0,4.56,0,6.83h-6.81c0,2.27,0,4.56,0,6.83,0,2.27,0,4.56,0,6.83,0,2.27,0,4.56,0,6.83h-6.81c0,2.27,0,4.56,0,6.83h6.81v6.83c-2.27,0-4.54-.01-6.81,0,0,2.2,0,5.01,0,7.21h20.43Z"/>
        <g>
          <path class="cls-4" d="M318.34,389.04h6.81c0-2.2,0-4.4,0-6.6h-6.81c0,2.2,0,4.4,0,6.6Z"/>
          <path class="cls-4" d="M318.34,375.61h6.81c0,2.27,0,4.56,0,6.83h7.04v-13.66h6.81v-6.83h-6.81v-6.83h6.81v-6.83h-6.81v-6.83h-7.04c-.01-6.83.02-13.66,0-20.49-2.27,0-4.54,0-6.81,0,.02,18.21-.03,36.43,0,54.64Z"/>
        </g>
        <g>
          <path class="cls-6" d="M291.1,389.04c0-2.2,0-4.4,0-6.6,2.27,0,4.54.01,6.81,0,0-2.27,0-4.56,0-6.83,0-2.27,0-4.56,0-6.83h6.81c0-2.27,0-4.56,0-6.83h-6.81v-6.83h6.81c0-2.27,0-4.56,0-6.83v-6.83c-2.27,0-4.54,0-6.81,0,0-6.83,0-13.66,0-20.49h-6.81c0,2.27,0,4.56,0,6.83h-6.81c0-4.55,0-9.11,0-13.66h-6.81c0,2.27,0,4.56,0,6.83,0,2.27,0,4.56,0,6.83-2.27,0-4.54-.01-6.81,0,0,2.27,0,4.56,0,6.83s0,4.56,0,6.83c0,2.27,0,4.56,0,6.83h6.81v6.83h-6.81c0,4.55-.01,9.11,0,13.66h6.81v6.83h-6.81c0-2.27,0-4.56,0-6.83-2.27,0-4.54,0-6.81,0v20.26h27.24Z"/>
          <path class="cls-6" d="M291.1,307.32c0-2.27,0-4.56,0-6.83h-6.81c0,2.27,0,4.56,0,6.83,0,2.27,0,4.56,0,6.83h6.81c0-2.27,0-4.56,0-6.83Z"/>
        </g>
        <path class="cls-5" d="M243.43,389.65v-14.04c-2.27,0-4.54,0-6.81,0,0,2.27,0,4.56,0,6.83h-6.81c0-2.27,0-4.56,0-6.83h-6.81v14.04h20.43Z"/>
        <g>
          <path class="cls-2" d="M270.67,375.61h6.81v-6.83h-6.81c0,2.27,0,4.56,0,6.83Z"/>
          <path class="cls-2" d="M243.43,375.61v13.42h20.43v-20.26c2.27,0,4.54,0,6.81,0-.01-4.55,0-9.11,0-13.66h6.81v-6.83h-6.81c0-2.27,0-4.56,0-6.83-2.27,0-4.54,0-6.81,0,0,2.27,0,4.56,0,6.83-2.27,0-4.54-.01-6.81,0-.01,2.27,0,4.56,0,6.83-2.27,0-4.54,0-6.81,0-2.27,0-4.54,0-6.81,0v6.83s-6.81,0-6.81,0c0,2.27,0,4.56,0,6.83,0,2.27,0,4.56,0,6.83,2.27,0,4.54,0,6.81,0Z"/>
        </g>
        <g>
          <path class="cls-6" d="M195.53,355.12v27.32h6.81v6.6h20.66v-33.91c-4.61,0-9.24,0-13.85,0v-6.83c-2.27,0-4.54.01-6.81,0v6.83h-6.81Z"/>
          <path class="cls-6" d="M202.34,348.29c0-2.27,0-4.56,0-6.83h-6.81c.01,2.27,0,4.56,0,6.83,2.27,0,4.54-.01,6.81,0Z"/>
        </g>
        <g>
          <path class="cls-1" d="M181.91,382.44c.31,0,.05,5.31,0,6.6h20.42v-6.6h-6.81v-27.32h6.81v-6.83c-2.27-.01-4.54,0-6.81,0,0-2.27.01-4.56,0-6.83-.01-2.27,0-4.56,0-6.83-2.27,0-4.54.01-6.81,0v6.83h-6.81v34.15h-6.81c0,2.27,0,4.56,0,6.83h6.81Z"/>
          <path class="cls-1" d="M188.72,327.8h-6.81c.01,2.27,0,4.56,0,6.83,2.27,0,4.54-.01,6.81,0,0-2.27,0-4.56,0-6.83Z"/>
        </g>
        <g>
          <polygon class="cls-5" points="393.37 375.47 393.37 375.55 393.45 375.55 393.37 375.47"/>
          <path class="cls-5" d="M400.41,389.58v-7.32h-7.05v-6.71h-6.69v-6.98h-13.71v-6.71l-.03-.03h-6.69v-6.71h-6.81v-6.83h-6.81s.14-6.83.14-6.83h-6.94v-6.83h-6.81v-6.83h-6.81v-6.83c-2.34,0-4.7,0-7.04,0,.02,6.83-.01,13.66,0,20.49h7.04v6.83h6.81v6.83h-6.81v6.83h6.81v6.83h-6.81v13.66h-7.04c0,2.19,0,5.01,0,7.21l75.26-.06Z"/>
        </g>
      </g>
      <g>
        <path class="cls-5" d="M3.66,517.51h0s0,.04,0,0Z"/>
        <path class="cls-5" d="M476.34,395.87h0s0-.04,0,0Z"/>
        <path class="cls-5" d="M476.34,395.87h-6.81c0-2.27,0-4.56,0-6.83H10.47c0,2.27,0,4.56,0,6.83H3.66c.16,0,0,119.72,0,121.64h6.81c0,2.27,0,4.56,0,6.83h459.07c0-2.27,0-4.56,0-6.83h6.81c0,2.23,0-119.58,0-121.64Z"/>
      </g>
      <path class="cls-2" d="M473.19,528H6.81v-6.83s-6.81,0-6.81,0v-128.97h6.81v-6.6h72.72l320.91-.23h72.75v6.83h6.81v128.89l-6.81.05v6.86ZM14.12,520.67h451.76v-6.8l6.81-.05v-114.28h-6.81v-6.83h-65.44l-320.91.23H14.12v6.6h-6.81v114.31h6.81s0,6.83,0,6.83Z"/>
      <g>
        <path class="cls-3" d="M77.73,455.02v33.75c0,1.42-.56,2.64-1.68,3.63-1.12,1-2.44,1.5-3.96,1.5-1.61,0-2.98-.5-4.1-1.49-1.12-1-1.68-2.2-1.68-3.63v-33.72l-22.71-26.08v-10.85c0-1.46.55-2.7,1.65-3.72,1.1-1.02,2.43-1.52,4-1.52s2.92.52,4.06,1.56c1.14,1.04,1.71,2.28,1.71,3.71v7.05l16.93,19.74,17.2-19.72v-7.12c0-1.42.56-2.64,1.68-3.68,1.12-1.03,2.44-1.55,3.96-1.55s2.79.48,3.93,1.43c1.14.96,1.71,2.23,1.71,3.81v10.73l-22.71,26.16Z"/>
        <path class="cls-3" d="M161.44,453.54v21.64c0,4.59-2.38,8.84-7.15,12.74-4.77,3.9-9.69,5.85-14.75,5.85h-13.23c-5.15,0-10.08-1.98-14.78-5.94-4.7-3.96-7.05-8.18-7.05-12.65v-21.64c0-4.47,2.29-8.69,6.89-12.65,4.59-3.96,9.57-5.94,14.95-5.94h13.23c5.06-.08,9.98,1.83,14.75,5.73,4.77,3.9,7.15,8.19,7.15,12.86ZM115.9,453.97v20.73c0,1.87.74,3.35,2.22,4.45l4.23,3.29c.94.73,2.26,1.1,3.96,1.1h13.1c1.92,0,3.67-.63,5.24-1.89l3.43-2.74c1.39-.98,2.08-2.34,2.08-4.08v-20.73c0-2.03-.7-3.54-2.08-4.51l-3.96-2.87c-1.34-1.02-2.91-1.52-4.7-1.52h-11.69c-2.55,0-4.52.55-5.91,1.65l-3.83,2.99c-1.39,1.06-2.08,2.44-2.08,4.15Z"/>
        <path class="cls-3" d="M229.59,440.19v4.15c0,1.63-.65,3.01-1.95,4.15l-40.07,35.17h36.24c1.57,0,2.9.5,4,1.49,1.1,1,1.65,2.2,1.65,3.63s-.55,2.63-1.65,3.63c-1.1,1-2.43,1.49-4,1.49h-45.41c-1.61,0-2.98-.5-4.1-1.49-1.12-1-1.68-2.2-1.68-3.63v-4.39c0-1.46,1.01-3.09,3.02-4.88l39.25-34.2h-33.87c-1.57,0-2.9-.51-4-1.52-1.1-1.02-1.65-2.26-1.65-3.72,0-1.34.56-2.53,1.68-3.57,1.12-1.04,2.44-1.55,3.96-1.55h42.93c1.57,0,2.9.52,4,1.55,1.1,1.04,1.65,2.27,1.65,3.69Z"/>
        <path class="cls-3" d="M297.76,454.34v12.38c0,1.38-.56,2.58-1.68,3.6-1.12,1.02-2.44,1.52-3.96,1.52h-39.9v2.99c0,1.75.83,3.23,2.49,4.45l3.29,2.5c1.79,1.26,3.49,1.89,5.11,1.89h29.02c1.52,0,2.84.5,3.96,1.49,1.12,1,1.68,2.2,1.68,3.63s-.57,2.58-1.71,3.6c-1.14,1.02-2.45,1.52-3.93,1.52h-29.76c-1.97,0-4.04-.38-6.21-1.13-2.17-.75-3.77-1.53-4.8-2.35l-5.04-4.02c-1.57-1.14-2.88-2.72-3.93-4.75-1.05-2.03-1.58-3.9-1.58-5.61v-23.47c0-1.34.57-3.15,1.71-5.43,1.14-2.28,2.59-4.04,4.33-5.3l4.7-3.35c3.09-2.28,6.52-3.41,10.28-3.41h15.85c3.99,0,7.75,1.5,11.29,4.51l4.23,3.66c3.05,2.48,4.57,6.18,4.57,11.09ZM252.35,453.54v7.92h34.26v-7.13c0-1.91-.65-3.37-1.95-4.39l-3.29-2.62c-1.7-1.26-3.22-1.89-4.57-1.89h-14.17c-1.75,0-3.34.55-4.77,1.65l-3.29,2.5c-1.48,1.02-2.22,2.34-2.22,3.96Z"/>
        <path class="cls-2" d="M332.01,445.32v43.46c0,1.42-.56,2.63-1.68,3.63-1.12,1-2.44,1.49-3.96,1.49-1.61,0-2.98-.5-4.1-1.49-1.12-1-1.68-2.2-1.68-3.63v-43.46h-5.78c-1.57,0-2.9-.51-4-1.52-1.1-1.02-1.65-2.21-1.65-3.6s.5-2.53,1.51-3.57,2.38-1.55,4.13-1.55h5.91v-3.96c0-5.24,1.98-9.59,5.95-13.05,3.96-3.45,8.9-5.18,14.81-5.18h13.23c1.57,0,2.9.51,4,1.52,1.1,1.02,1.65,2.26,1.65,3.72,0,1.38-.56,2.58-1.68,3.6-1.12,1.02-2.44,1.52-3.96,1.52h-13.23c-2.69,0-4.92.73-6.68,2.19-1.77,1.46-2.65,3.35-2.65,5.67v3.96h11.29c1.52-.04,2.84.45,3.96,1.46,1.12,1.02,1.68,2.24,1.68,3.66s-.56,2.58-1.68,3.6c-1.12,1.02-2.44,1.52-3.96,1.52h-11.42Z"/>
        <path class="cls-2" d="M394.09,483.54l18.97-10.97v-32.37c0-1.42.55-2.65,1.65-3.69,1.1-1.04,2.43-1.55,4-1.55s2.9.52,4,1.55c1.1,1.04,1.65,2.27,1.65,3.69v48.58c0,1.38-.56,2.58-1.68,3.6-1.12,1.02-2.44,1.52-3.96,1.52s-2.84-.51-3.96-1.52c-1.12-1.02-1.68-2.21-1.68-3.6v-4.02l-9.79,5.79c-3.85,2.24-7.74,3.35-11.67,3.35h-5.23c-4.61,0-8.56-1.46-11.87-4.39-3.31-2.93-5.08-6.5-5.3-10.73l-1.68-38.59c-.09-1.34.44-2.53,1.58-3.57s2.5-1.55,4.06-1.55,2.83.51,3.93,1.52c1.1,1.02,1.67,2.22,1.71,3.6l1.55,37.86c.13,3.66,2.44,5.49,6.9,5.49h6.84Z"/>
      </g>
    </g>
  </g>
</svg>