<svg xmlns="http://www.w3.org/2000/svg" id="Calque_2" data-name="Calque 2" viewBox="0 0 480 528"><defs><style>.cls-1{fill:#796c9d}.cls-2{fill:#fff}.cls-3{fill:#a082eb}.cls-4{fill:#43495a}.cls-5{fill:#343736}.cls-6{fill:#cecfe9}.cls-7{fill:#a69fb9}</style></defs><g id="Calque_1-2" data-name="Calque 1"><path d="M400.44 376.16h-.96v-6.71h-6.69v-6.98h-13.73v-.66l-.03-6.08h-6.66v-6.71h-6.81v-6.83h-6.72v-.6l.14-6.23h-7.04v-6.83h-6.81v-6.83h-6.81v-6.85l-6.11.02h-.94v-6.83h-6.81v-6.83h-6.81v-6.83h-20.43v-1.67h.73l6.08-.02v-6.81h6.8V265.4h6.81v-27.32h14.56l6.1.02v-6.84h6.82v-20.48h6.81v-53.45l-6.11.02h-.7v-6.83h-6.81v-8.27h6.8v-6.1c.01-1.08.01-2.17.01-3.26v-17.97h6.81v-6.83h6.81V82.21h-6.81V60.75l-.02-6.09h-6.8v-6.8l-6.06-.03h-.75V34.19h-6.08c-.86-.01-1.72-.01-2.58-.01h-12v-6.83h-13.62V6.86h-6.81V0H182.65v6.82h-20.43v6.82h-13.6l-.02 6.08v.74h-.74l-6.07.02v6.81h-.74l-6.07.02v13.65h-6.81v13.68h-13.62v27.54h-6.8v32.67l6.06.03h.75v6.82h6.81v13.66h6.81v15.1h-13.61v39.77h6.81v34.15h6.81v6.83H135v6.82h6.08l1.27.01h13.08v13.67h6.81v20.47l6.07.02h.73v13.62l6.06.03h.75v8.5h-6.81v6.83h-6.81v13.67H148.6v6.12c.01 1.34.01 2.69.01 4.04v3.5h-6.79l-.02 6.09v7.56h-6.81v6.83h-13.61v6.83h-7.51l-6.13-.02.02 6.14v.7H93.92v6.83h-.73l-6.08.01v6.82H73.49v12.94h333.06v-13.12h-6.09Z" class="cls-2"/><path d="M323.63 156.6H339v21.82h-15.37z" class="cls-4"/><path d="M318.46 177.08h27.36v27.55h-27.36z" class="cls-2"/><path d="M311.47 197.26h27.36v27.55h-27.36zM120.62 170.25h13.62v13.89h-13.62z" class="cls-2"/><path d="M127.43 184.03h20.54v27.43h-20.54z" class="cls-2"/><path d="M277.48 6.11v6.83h6.81v6.83h13.62c.02 6.83-.01 13.66 0 20.49h6.81v-6.83h6.81v6.83h6.81c4.61.01 9.24 0 13.85 0v13.66c2.27 0 4.54-.01 6.81 0v6.83h6.81c.01 4.63 0 9.27 0 13.89V88.3h6.81v13.66h-6.81v6.83H339c-.01 6.83.02 13.66 0 20.49v6.83h-6.81v20.49h-7.05v20.49h7.05v13.9h-13.86v-41.21h-6.81v-20.49h-6.81v-27.32c-2.27 0-4.54.01-6.81 0v-6.83h13.62v-6.83H297.9v-6.83h6.81v-6.83c4.54 0 9.08.01 13.62 0h6.81v-6.83h7.04v-7.07h-13.85v-6.83h-6.81v-6.83h-6.81v20.73h-20.43v-13.9h13.62v-6.83h-6.81v-6.83h-6.81v6.83h-6.81V33.43h6.81V26.6c-9.08-.02-18.16.02-27.24 0-.01-2.27 0-4.56 0-6.83h-6.81v6.83h6.81c.01 2.27 0 4.56 0 6.83h6.81v6.83h-13.62v-6.83h-6.81v6.83h6.81v6.83h-6.81v6.83h-6.81v-6.83h6.81v-6.83h-6.81v-6.83h-6.81v6.83h6.81v6.83h-13.62v6.83h6.81v6.83h-6.81v7.07c0 .34 6.21 0 6.81 0v6.83h6.81v-13.9h6.81v-6.83h13.62v20.72h6.81v-6.83h6.81v-7.07c0-.34-6.21 0-6.81 0v-6.83h13.62v20.72h6.81c.34 0 0 6.23 0 6.83h6.81v6.83h6.81v6.83h-6.81v-6.83h-6.81v-6.83h-6.81v6.83h-6.81v-6.83h-6.81c-.34 0 0 6.23 0 6.83H229.8v-6.83h-6.81v-6.83h-7.04v6.83h7.04v6.83h-20.67v6.83H188.7v20.49h-6.81v-6.83h-6.81v6.83h-6.81v6.83c2.27 0 4.54-.01 6.81 0v20.49h-6.81v13.66c2.27 0 4.54-.01 6.81 0v6.83c-2.27.01-4.54 0-6.81 0v6.83h6.81v-6.83c2.27-.01 4.54 0 6.81 0v-6.83c-2.27 0-4.54.01-6.81 0v-6.83h6.81c9.08 0 18.16.01 27.24 0 4.61 0 9.24.01 13.85 0v13.66h6.81v13.66h-6.81v-6.83h-7.04v20.73h-6.81v6.83c-2.27 0-4.54-.01-6.81 0v-6.83h6.81v-20.72h-6.81v6.83h-6.81v-6.83h-6.81v6.83h-6.81v7.07h-6.81v6.83h-6.81V177.1c0-.34-6.21 0-6.81 0v-13.66h-6.81v13.66c-.01 6.9 0 13.82 0 20.73h6.81v13.66h6.81v13.66h6.81v13.66h6.81c.01 4.55 0 9.11 0 13.66v6.83h-13.62c0-4.55.01-9.11 0-13.66v-6.83h-6.81v-6.83h-6.81v-13.66h-6.81c0-2.27.01-4.56 0-6.83s0-4.56 0-6.83h-6.81c0-2.27.01-4.56 0-6.83s0-4.56 0-6.83h-6.81c-.01-4.63 0-9.27 0-13.89v-6.83h-6.81v-6.83h6.81v6.83h6.81v6.83h6.81v-6.83h-6.81v-6.83h6.81v-6.83c.01-4.55 0-9.11 0-13.66V129.3h-6.81v-6.83h-6.81v-20.49c-2.27 0-4.54.01-6.81 0v-6.83h6.81v-6.83h-6.81v-6.83h6.81V67.83h6.81v6.83h13.62v-13.9h-6.81V47.1c0-4.55-.01-9.11 0-13.66 2.27-.01 4.54 0 6.81 0 0-2.27-.01-4.56 0-6.83 2.27-.01 4.54 0 6.81 0v-6.83h13.62v-6.83c4.54-.01 9.08 0 13.62 0V6.12h88.76Zm-54.47 6.83v6.83h20.43v-6.83zm-20.67 6.83h-13.62v6.83h13.62zm-13.62 27.32V33.43H175.1v13.66h6.81v6.83h6.81v6.83c-2.27.01-4.54 0-6.81 0v7.07c-2.27.01-4.54 0-6.81 0v13.66h6.81c0-4.55-.01-9.11 0-13.66 2.27-.01 4.54 0 6.81 0v-7.07c2.27-.01 4.54 0 6.81 0v-6.83h6.81v-6.83c-4.54 0-9.08.01-13.62 0m13.62-13.66v6.83h6.81v-6.83zm0 41.21v6.83h6.81v-6.83zm-34.05 27.32h6.81V88.3h-6.81z" class="cls-5"/><path d="M188.72 259.27c.01 4.55 0 9.11 0 13.66h6.81v6.83c0 4.63.01 9.27 0 13.89h-6.81v6.83h6.81v-6.83h6.81v6.83h6.81v6.83h6.81v6.83h7.05c11.34.03 22.7.03 34.05 0h6.81v-6.83h6.81v-6.83h6.81v-13.89h6.81v-13.66h13.62v13.66h-6.81v13.9h-6.81v6.83h-6.81v13.66h-6.81v6.83c-2.27.01-4.54 0-6.81 0v6.83h-13.62v6.83h-13.62v13.66h-27.47v-6.83c-2.27 0-4.54.01-6.81 0v-6.83h-6.81c-.01-2.27 0-4.56 0-6.83-2.27 0-4.54.01-6.81 0v-6.83h-6.81c-.01-2.27 0-4.56 0-6.83h-6.81v-6.83h6.81v-20.49h6.81v-7.07h-6.81v-6.83c-2.27 0-4.54.01-6.81 0V266.1h6.81v-6.83h6.81ZM195.53 115.62v6.83h-6.81v-6.83zM345.82 163.42c-.01 4.55 0 9.11 0 13.66H332.2v-6.83h6.81v-6.83z" class="cls-5"/><path d="M304.72 266.1v6.83h-6.81v-6.83zM291.1 252.44h6.81v13.66h-6.81v-13.66" class="cls-5"/><path d="M318.34 170.25v27.55h-6.81c0-6.9-.02-13.82 0-20.72v-6.83z" class="cls-1"/><path d="M154.67 341.46v6.83h-6.81v-6.83z" class="cls-4"/><path d="M120.62 375.61v14.03h61.29c.04-1.29.31-7.2 0-7.2h-6.81v-6.83c-.01-4.55 0-9.11 0-13.66h-6.81v-13.66h6.81v-6.83h-6.81v-6.83c-.01-4.55 0-9.11 0-13.66h-6.81c-.01 2.27 0 4.56 0 6.83-2.27 0-4.54-.01-6.81 0v20.49h-6.81v13.66h-6.81v6.83h-6.81v-6.83h-6.81v13.66zM113.81 382.44v-6.83H107v6.83h-7.05v7.2h13.85v-7.2Z" class="cls-5"/><path d="M291.1 12.94v6.83h-6.81v-6.83z" class="cls-4"/><path d="M291.1 6.11v6.83h-13.62V6.11zM291.1 12.94h6.81v6.83h-6.81zM147.86 142.94c0 4.55.01 9.11 0 13.66h-6.81v-13.66z" class="cls-1"/><path d="M181.91 184.15v6.83h20.43v6.83c2.27-.01 4.54 0 6.81 0v-6.83h6.81c-.01 11.38 0 22.77 0 34.15v6.83h-6.81v6.83H223v6.83h13.62v6.83h-6.81v6.83h-13.85c0-.6.34-6.83 0-6.83h-13.62v-6.83h-6.81v-6.83h-6.81v-13.66h-6.81v-6.83h-6.81v-13.66h13.62c.01 2.27 0 4.56 0 6.83h13.62v-13.66c-2.27.01-4.54 0-6.81 0v6.83h-6.81c-.01-2.27 0-4.56 0-6.83h-6.81v-6.83h-6.81v-6.83z" class="cls-6"/><path d="M223.01 184.15h13.62v34.15h-6.81c0 2.27.01 4.56 0 6.83h-13.85c0-11.38-.01-22.77 0-34.15v-6.83zM154.67 177.08v-13.66h6.81v13.66c.6 0 6.81-.34 6.81 0v13.89h6.81v27.32h6.81v6.83h6.81v13.66h6.81v6.83h6.81v6.83h13.62c.34 0 0 6.23 0 6.83h-13.62v6.83h-6.81v-6.83h-6.81v-6.83h-6.81c0-4.55.01-9.11 0-13.66v-6.83h-6.81v-13.66h-6.81v-13.66h-6.81v-6.83c-.01-6.9.01-13.82 0-20.72z" class="cls-1"/><path d="M304.72 129.28h6.81v20.49h6.81v20.49h-6.81v6.83h-6.81v-6.83h-6.81v-6.83h13.62v-6.83h-27.24v6.83h27.24v-6.83h-6.81v-27.32" class="cls-4"/><path d="M223.01 149.77h6.81v-6.83h6.81v6.83h6.81v-6.83h6.81v13.66h-6.81v13.66h-6.81V156.6h-13.62z" class="cls-6"/><path d="M304.72 60.75V47.09h6.81v6.83h6.81v6.83h13.85v7.07h-7.04v6.83h-6.81v-6.83h-6.81v-7.07zM127.43 211.47v-6.83h6.81v6.83h13.62c.01 2.27 0 4.56 0 6.83h6.81v13.66h-13.62v-6.83h-6.81v-13.66z" class="cls-4"/><path d="M257.05 47.09v6.83h6.81v6.83h-6.81v-6.83h-6.81v-6.83zM277.48 33.43v13.66h6.81v-6.83h6.81v6.83h-6.81v6.83h-13.62v-6.83h-13.62v-6.83h6.81v-6.83c4.53.01 9.08.01 13.62 0" class="cls-1"/><path d="M291.1 47.09h6.81v6.83h-13.62v13.9h13.62v6.83h6.81v6.83h-6.81v-6.83h-6.81v6.83h-6.81c0-.6.34-6.83 0-6.83h-6.81V53.93h6.81V47.1h6.81ZM181.91 47.09h-6.81V33.43h13.62v13.66zM257.05 26.6h-6.81v-6.83h6.81c0 2.27-.01 4.56 0 6.83 9.08.02 18.16-.02 27.24 0v6.83h-6.81q-6.81.015-13.62 0h-6.81c0-2.27.01-4.56 0-6.83" class="cls-4"/><path d="M195.53 177.08h6.81v-6.83h6.81v13.89c-4.54 0-9.08.01-13.62 0v-7.07Z" class="cls-6"/><path d="M263.86 60.75c.6 0 6.81-.34 6.81 0v7.07h-6.81v6.83h-6.81V60.76h6.81ZM161.48 177.08c.01 6.9-.01 13.82 0 20.72h-6.81c.01-6.9-.01-13.82 0-20.72zM188.72 177.08v-6.83h6.81v6.83zv7.07h6.81v6.83h-13.62v-13.9zM223.01 81.47h-7.04v-6.83h7.04zh6.81v6.83h6.81v6.83h-6.81V88.3h-6.81v6.83h-20.66V88.3c6.88 0 13.78.01 20.66 0zM223.01 12.94h20.43v6.83h-20.43z" class="cls-4"/><path d="M229.82 156.59h6.81v20.49h-6.81zM243.43 40.26v6.83h-6.81v-6.83zM236.62 47.09v13.66h-6.81v-6.83H223v-6.83zM188.72 47.09c4.54.01 9.08 0 13.62 0v6.83h-20.43v-6.83z" class="cls-1"/><path d="M243.43 40.26v-6.83h6.81v6.83h6.81v6.83h-6.81v6.83h-6.81v6.83h-6.81v7.07h-6.81c-.6 0-6.81.34-6.81 0v-7.07h13.62v-6.83h6.81v-6.83h6.81v-6.83zM257.05 47.09h13.62v6.83h-13.62zM297.91 88.3h13.62v6.83h-13.62zM188.72 19.77h13.62v6.83h-13.62zM181.91 252.44h6.81v6.83h6.81v6.83h6.81v-6.83h13.62v6.83h-13.62v6.83h-13.62c0-4.55.01-9.11 0-13.66h-6.81zM181.91 259.27v6.83h-13.62v-6.83z" class="cls-4"/><path d="M297.91 74.64V88.3h-6.81V74.64z" class="cls-1"/><path d="M175.1 115.62v-6.83h6.81v6.83zv6.83c2.27.01 4.54 0 6.81 0v13.66h-6.81v-13.66c-2.27-.01-4.54 0-6.81 0v-6.83z" class="cls-4"/><path d="M195.53 177.08v7.07c4.54.01 9.08 0 13.62 0v6.83h-13.62v-6.83h-6.81v-7.07z" class="cls-1"/><path d="M181.91 67.81c-.01 4.55 0 9.11 0 13.66h-6.81V67.81c2.27 0 4.54.01 6.81 0" class="cls-4"/><path d="M311.53 67.81h6.81v6.83c-4.54.01-9.08 0-13.62 0v-6.83zM181.91 136.11v13.66h-6.81v-13.66z" class="cls-1"/><path d="M175.1 142.94v13.66c2.27.01 4.54 0 6.81 0v6.83c-2.27 0-4.54-.01-6.81 0v6.83h-6.81v-6.83c2.27 0 4.54.01 6.81 0v-6.83c-2.27-.01-4.54 0-6.81 0v-13.66z" class="cls-4"/><path d="M250.24 88.3v6.83h-13.62V88.3z" class="cls-1"/><path d="M263.86 88.3v6.83h-13.62V88.3z" class="cls-6"/><path d="M284.29 81.47v6.83h-6.81v6.83h-13.62V88.3h13.62v-6.83z" class="cls-1"/><path d="M141.05 129.28h6.81v13.66h-6.81v-13.66" class="cls-4"/><path d="M223.01 177.08v7.07h-7.04v-7.07z" class="cls-2"/><path d="M188.72 60.75v7.07c-2.27 0-4.54-.01-6.81 0v-7.07c2.27 0 4.54.01 6.81 0" class="cls-1"/><path d="M304.72 60.75h6.81v7.07h-6.81v6.83h-6.81v-6.83h6.81z" class="cls-6"/><path d="M215.96 177.08v-6.83H223v6.83z" class="cls-1"/><path d="M229.82 177.08v7.07h-6.81v-7.07z" class="cls-4"/><path d="M175.1 12.94v6.83h-6.81v-6.83zM195.53 6.11v6.83h-6.81V6.11zM202.34 6.11v6.83h-6.81V6.11zM270.52 6.11v6.83h-6.81V6.11zM263.71 6.11v6.83h-6.81V6.11zM161.48 19.77v6.83c-2.27 0-4.54-.01-6.81 0 .01-2.27 0-4.56 0-6.83z" class="cls-1"/><path d="M202.34 33.43h6.81v6.83h-6.81zM236.62 40.26h-6.81v-6.83h6.81zM134.24 190.98h6.81c0 2.27-.01 4.56 0 6.83h-6.81zM134.24 156.59v6.83h6.81v6.83h6.81v6.83h-6.81v-6.83h-6.81v-6.83h-6.81v6.83h6.81v6.83h-6.81v7.07h-6.81v-7.07h6.81v-6.83h-6.81v-13.66zM325.15 190.98v6.83h-6.81v-6.83zM318.34 197.81v6.83h-6.81v-6.83zM161.48 204.64h6.81v6.83h-6.81zM229.82 156.59v6.83h-6.81v-6.83zM175.1 218.3v6.83h-6.81v-6.83zM175.1 231.95h6.81v6.83h-6.81z" class="cls-4"/><path d="M161.48 238.78h6.81v6.83h-6.81z" class="cls-1"/><path d="M168.29 95.13h6.81v6.83h-6.81z" class="cls-4"/><path d="M168.29 88.3h6.81v6.83h-6.81z" class="cls-6"/><path d="M263.86 88.3c0-.6-.34-6.83 0-6.83h6.81v6.83z" class="cls-4"/><path d="M202.34 74.64h6.81v6.83h-6.81zM236.62 67.81v6.83h-6.81v-6.83z" class="cls-1"/><path d="M195.53 53.92v6.83c-2.27 0-4.54-.01-6.81 0v-6.83z" class="cls-4"/><path d="M318.34 204.64v27.32h-6.81v27.32h-6.81v-13.66h-6.81v-6.83h6.81v-13.66h6.81v-20.49z" class="cls-5"/><path d="M339.01 204.64v20.49h-20.66v-13.66h6.81v6.83h7.04v-13.66z" class="cls-6"/><path d="M332.2 204.64v-6.83h13.62v6.83H332.2v6.83h-7.04v-6.83h7.05ZM332.2 225.13v6.83h-7.04v-6.83z" class="cls-4"/><path d="M304.72 300.49v6.83h-6.81v-6.83z" class="cls-6"/><path d="M297.91 307.32v6.83h-6.81v-6.83zM339.01 184.15h6.81v6.83h-6.81z" class="cls-4"/><path d="M147.86 348.29v6.83h-6.81v6.83h-13.62v6.83h-13.62v6.83H107v6.83h-7.05v-6.83h7.04v-6.83h6.81v-6.83h13.62v-6.83h13.62v-6.83h6.81ZM161.48 320.97c-.01 2.27 0 4.56 0 6.83-2.27 0-4.54-.01-6.81 0v-6.83zM154.67 334.63v6.83h-6.81v-6.83z" class="cls-6"/><path d="M175.1 320.97h6.81c0 2.27-.01 4.56 0 6.83s0 4.56 0 6.83c2.27 0 4.54-.01 6.81 0v6.83h-6.81v34.15h-6.81c-.01-4.55 0-9.11 0-13.66h-6.81v-13.66h6.81v-27.32" class="cls-4"/><path d="M99.96 375.61v13.66H79.53v-6.83h13.62v-6.83z" class="cls-1"/><path d="M181.91 300.49v6.83h-6.81v27.32h-6.81c-.01-4.55 0-9.11 0-13.66v-13.66h6.81v-6.83z" class="cls-6"/><path d="M107.01 368.78v6.83h-7.04v-6.83h7.05ZM120.62 382.44v6.83h-6.81v-6.83z" class="cls-4"/><path d="M175.1 334.63v6.83h-6.81v-6.83z" class="cls-1"/><path d="M147.86 355.12v6.83h-6.81v-6.83z" class="cls-4"/><path d="M141.05 361.95v6.83h-6.81v-6.83zM127.43 368.78v6.83h-6.81v6.83h-6.81v-6.83h6.81v-6.83zM291.1 314.14v13.66h-6.81v-13.66z" class="cls-1"/><path d="M297.91 375.61h6.81v6.83c-2.27 0-4.54-.01-6.81 0v6.83h-6.81v-6.83c2.27 0 4.54.01 6.81 0zM284.29 307.32v6.83h-6.81v-6.83z" class="cls-4"/><path d="M297.91 314.14v6.83h-6.81v-6.83z" class="cls-2"/><path d="M277.48 320.97v6.83c-2.27 0-4.54-.01-6.81 0v-6.83z" class="cls-1"/><path d="M270.67 327.8v6.83h-6.81v6.83h-6.81c0 2.27.01 4.56 0 6.83-2.27.01-4.54 0-6.81 0v6.83h-13.62v13.66h-6.81v-13.66h6.81v-13.66h13.62v-6.83h13.62v-6.83c2.27 0 4.54.01 6.81 0" class="cls-4"/><path d="M270.67 334.63v6.83h-6.81v6.83c-2.27 0-4.54-.01-6.81 0 .01-2.27 0-4.56 0-6.83h6.81v-6.83z" class="cls-1"/><path d="M311.53 341.46v6.83h-6.81v-6.83z" class="cls-4"/><path d="M304.72 355.12v6.83h-6.81v-6.83zM318.34 375.61h6.81v6.83h-6.81z" class="cls-1"/><path d="M304.72 320.97h6.81v6.83h-6.81z" class="cls-4"/><path d="M257.05 348.29c-.01 2.27 0 4.56 0 6.83h-6.81v-6.83c2.27 0 4.54.01 6.81 0" class="cls-5"/><path d="M243.43 355.12v6.83h-6.81v-6.83zM236.62 368.78v6.83h-6.81v-6.83z" class="cls-6"/><path d="M229.82 355.12v20.49h-6.81v-20.49z" class="cls-2"/><path d="M236.62 375.61v6.83h-6.81v-6.83z" class="cls-1"/><path d="M134.24 211.47v6.83h-6.81v-6.83z" class="cls-2"/><path d="M263.86 149.77h40.86v6.83h6.81v6.83h-6.81v-6.83h-20.43v6.83h13.62v6.83h6.81v6.83h-6.81v7.07h-6.81v-13.89h-6.81v6.83h-6.81v-6.83h-20.43v6.83h-13.62v-6.83h6.81v-6.83h6.81v-13.66h6.81Z" class="cls-5"/><path d="M257.05 149.77v13.66h-6.81v-13.66z" class="cls-4"/><path d="M236.62 225.13v6.83h6.81c4.54.01 9.08 0 13.62 0v6.83h-13.62v6.83h-13.62v-6.83H223v-6.83h6.81c0-2.27-.01-4.56 0-6.83z" class="cls-5"/><path d="M229.82 225.13c-.01 2.27 0 4.56 0 6.83h-6.81v6.83h-7.04v-13.66z" class="cls-4"/><path d="M229.82 259.27h6.81v6.83h6.81v-6.83h20.43v6.83h-20.43v6.83h-6.81v-6.83h-20.66v-6.83z" class="cls-5"/><path d="M236.62 252.44h13.62v6.83h-20.43v-6.83zM195.53 204.64h6.81v6.83h-13.62c0-2.27.01-4.56 0-6.83z" class="cls-2"/><path d="M181.91 197.81v6.83h-6.81v-6.83z" class="cls-5"/><path d="M181.91 197.81h6.81c0 2.27-.01 4.56 0 6.83h-6.81z" class="cls-1"/><path d="M202.34 197.81v6.83h-6.81v-6.83c2.27 0 4.54.01 6.81 0" class="cls-4"/><path d="M215.96 231.95v6.83h-6.81v-6.83z" class="cls-2"/><path d="M223.01 238.78h6.81v6.83h-6.81z" class="cls-1"/><path d="M243.43 245.61v6.83h-6.81v-6.83z" class="cls-4"/><path d="M270.67 142.94c2.27-.01 4.54 0 6.81 0v-6.83h6.81v13.66h-13.62z" class="cls-7"/><path d="M223.01 95.13v6.83h6.81v-6.83h40.86v20.49h-6.81v-6.83h-6.81v6.83h-6.81v6.83h13.62v13.66h6.81c.34 0 0 6.23 0 6.83-2.27.01-4.54 0-6.81 0v6.83h-13.62v-6.83h-6.81v6.83h-6.81v-6.83h-6.81v6.83h-6.81c-4.61.01-9.24 0-13.85 0v-13.66h13.85v-6.83h-7.04v-13.66h7.04v-6.83h-7.04V95.13z" class="cls-6"/><path d="M202.34 95.13h13.62v13.66H223v6.83h-7.04v13.66H223v6.83h-13.85v13.66c-9.08.01-18.16 0-27.24 0v-13.66h20.43v-6.83h-6.81v-20.49h-6.81v-6.83h6.81v-6.83zM297.91 95.13v6.83c2.27.01 4.54 0 6.81 0v47.81h-6.81v-47.81c-2.27-.01-4.54 0-6.81 0v-6.83z" class="cls-7"/><path d="M181.91 115.62h6.81v6.83h6.81v6.83h-13.62v-6.83c-2.27 0-4.54.01-6.81 0v-6.83zM188.72 108.79h6.81v6.83h-6.81zM195.53 95.13v6.83h-6.81v-6.83zM277.48 95.13h13.62v6.83c2.27 0 4.54-.01 6.81 0v47.81h-13.62v-13.66h-6.81v6.83c-2.27 0-4.54-.01-6.81 0 0-.6.34-6.83 0-6.83h-6.81v-13.66h-13.62v-6.83h6.81v-6.83h6.81v6.83h6.81V95.13zM270.67 142.94v6.83h-6.81v-6.83c2.27 0 4.54.01 6.81 0M229.82 95.13v6.83h-6.81v-6.83zM195.53 129.28h6.81v6.83h-13.62v-6.83z" class="cls-7"/><path d="M188.72 129.28v6.83h-6.81v-6.83z" class="cls-5"/><path d="M243.43 170.25v27.55h-6.81v-27.56h6.81Z" class="cls-2"/><path d="M243.43 211.47h6.81v13.66h-6.81v-6.83h-6.81v6.83h-6.81c.01-2.27 0-4.56 0-6.83h6.81v-6.83zM236.62 177.08v7.07h-6.81v-7.07zM243.43 197.81v6.83h-6.81v-6.83z" class="cls-6"/><path d="M243.43 204.64v6.83h-6.81v-6.83z" class="cls-2"/><path d="M277.48 190.98h6.81v13.66h-6.81c-.01-2.27 0-4.56 0-6.83-2.27 0-4.54.01-6.81 0v-6.83z" class="cls-6"/><path d="M304.72 177.08h6.81c-.02 6.9 0 13.82 0 20.72v6.83h-6.81v13.66h-6.81v6.83h-6.81v20.49h-13.62v6.83h-6.81v6.83h-20.43v-6.83h-6.81v-6.83h6.81v-6.83h13.62v-20.49h-6.81c0-9.1-.01-18.22 0-27.32h6.81v6.83c2.27 0 4.54-.01 6.81 0v6.83h6.81c.01 2.27 0 4.56 0 6.83h13.62v-6.83h6.81v-6.83h6.81v-13.66h-6.81v-7.07h6.81Z" class="cls-6"/><path d="M304.72 156.59v6.83h-20.43v-6.83h27.24v6.83H291.1v-6.83z" class="cls-1"/><path d="M181.91 190.98v6.83h-6.81v-6.83z" class="cls-2"/><path d="M250.24 156.59v13.66h-6.81v-13.66zM229.82 88.3v6.83h-6.81V88.3z" class="cls-1"/><path d="M284.29 88.3h6.81v6.83h-13.62V88.3zM229.82 279.76v6.83h-6.81v7.07h-13.85v6.83h6.81v6.83h7.05v6.83h-7.05v-6.83h-6.81v-6.83h-6.81v-6.83h-6.81c.01-4.63 0-9.27 0-13.89h34.28ZM291.1 259.27v6.83h6.81v6.83h-13.62v13.66h-6.81v13.89h-6.81v-6.83c-2.27 0-4.54.01-6.81 0s-4.54 0-6.81 0v-7.07h-6.81v-6.83h27.24v-6.83h6.81v-13.66h6.81ZM304.72 272.93v6.83h-6.81v-6.83z" class="cls-4"/><path d="M311.53 211.47v13.66h-6.81v13.66h-6.81v6.83h6.81v20.49h-6.81v-13.66h-6.81v-13.66h6.81c-.01-4.55-.01-9.11 0-13.66h6.81v-13.66z" class="cls-4"/><path d="M181.91 286.59h6.81v7.07h-6.81z" class="cls-2"/><path d="M195.53 293.66v6.83h-6.81v-6.83z" class="cls-1"/><path d="M181.91 307.32v6.83h-6.81v-6.83z" class="cls-6"/><path d="M311.53 204.64v6.83h-6.81v-6.83z" class="cls-1"/><path d="M120.62 368.78v6.83h-6.81v-6.83z" class="cls-4"/><path d="M291.1 245.61v13.66h-6.81v13.66h-6.81v6.83h-6.81v-6.83h6.81v-13.66h-6.81v13.66h-6.81v6.83h-68.33v-6.83h13.62v-6.83H223v6.83h6.81v-6.83h6.81v6.83h13.62v-6.83h13.62v-6.83h6.81v-6.83h6.81v-6.83zM263.86 170.25v6.83h-6.81c-.01 4.63 0 9.27 0 13.89-.01 9.1 0 18.22 0 27.32v6.83h-6.81v-13.66h-6.81v-34.38h13.62v-6.83z" class="cls-1"/><path d="M270.67 170.25v6.83h13.62v-6.83h6.81v13.89h-20.43v-7.07h-6.81v-6.83h6.81Z" class="cls-6"/><path d="M284.29 156.59h6.81v6.83h-6.81z" class="cls-4"/><path d="M270.67 170.25h6.81v6.83h-6.81zM297.91 184.15v6.83h-6.81v-6.83z" class="cls-1"/><path d="M257.05 218.3h6.81v20.49h-6.81z" class="cls-2"/><path d="M250.24 225.13h6.81v6.83c-4.54 0-9.08.01-13.62 0v-6.83z" class="cls-4"/><path d="M243.43 225.13v6.83h-6.81v-6.83zM250.24 238.78v6.83h-6.81v-6.83z" class="cls-1"/><path d="M243.43 259.27v6.83h-6.81v-6.83z" class="cls-4"/><path d="M229.82 266.1v6.83h-6.81v-6.83z" class="cls-6"/><path d="M236.62 218.3h6.81v6.83h-6.81z" class="cls-2"/><path d="M209.15 266.1v6.83h-6.81v-6.83z" class="cls-6"/><path d="M270.67 197.81c2.27.01 4.54 0 6.81 0 0 2.27-.01 4.56 0 6.83h-6.81zM297.91 184.15h6.81v13.66h-6.81v6.83h-6.81v6.83h-13.62c0-2.27.01-4.56 0-6.83h6.81v-13.66h13.62zM263.86 177.08h6.81v7.07h-6.81v6.83h6.81v6.83c-2.27-.01-4.54 0-6.81 0v-6.83h-6.81c0-4.63-.01-9.27 0-13.89h6.81Z" class="cls-2"/><path d="M304.72 218.3v6.83h-6.81c-.01 4.55-.01 9.11 0 13.66h-6.81v-13.66h6.81v-6.83z" class="cls-1"/><path d="M250.24 279.76v6.83q-10.215-.03-20.43 0v-6.83z" class="cls-5"/><path d="M277.48 266.1v6.83h-6.81v-6.83zM270.67 272.93v6.83h-6.81v-6.83z" class="cls-6"/><path d="M215.96 293.66v6.83h13.85v6.83h6.81v-6.83h6.81v6.83h13.62v-6.83h6.81v-6.83c2.27.01 4.54 0 6.81 0v13.66h-13.62v6.83c-11.34.03-22.7.03-34.05 0v-6.83h-7.04v-6.83h-6.81v-6.83z" class="cls-1"/><path d="M263.86 307.32v6.83h-6.81v-6.83z" class="cls-4"/><path d="M229.82 286.59c0 4.63-.01 9.27 0 13.89h6.81v6.83h-6.81v-6.83h-13.85v-6.83h7.04v-7.07h6.81ZM250.24 286.59h6.81v7.07c2.27 0 4.54-.01 6.81 0v6.83h-6.81v6.83h-13.62v-6.83h6.81z" class="cls-6"/><path d="M250.24 286.59v13.9h-20.43c-.01-4.63 0-9.27 0-13.89q10.215-.03 20.43 0Z" class="cls-2"/><path d="M270.67 259.27h6.81v6.83h-6.81z" class="cls-4"/><path d="M250.24 266.1v6.83h-6.81v-6.83z" class="cls-6"/><path d="M270.67 184.15h6.81v6.83h-13.62v-6.83z" class="cls-1"/><path d="M291.1 184.15v6.83h-13.62v-6.83z" class="cls-4"/><path d="M120.62 95.13v6.83c2.27 0 4.54-.01 6.81 0s4.54 0 6.81 0v6.83h-6.81v6.83h6.81v6.83h6.81v13.66h-6.81v-13.66h-6.81v-6.83h-6.81v-6.83c-2.27 0-4.54.01-6.81 0 0-4.55-.01-9.11 0-13.66z" class="cls-6"/><path d="M134.24 60.75v13.9h-6.81V60.76h6.81ZM127.43 74.64v27.32c-2.27-.01-4.54 0-6.81 0V74.64zM147.86 60.75h6.81v7.07h-13.62v-7.07z" class="cls-2"/><path d="M141.05 53.92v13.9h-6.81v-13.9z" class="cls-6"/><path d="M147.86 33.43c-.01 4.55 0 9.11 0 13.66h-6.81v6.83h-6.81v-6.83h6.81V33.43c2.27 0 4.54.01 6.81 0" class="cls-2"/><path d="M154.67 26.6c-.01 2.27 0 4.56 0 6.83-2.27 0-4.54-.01-6.81 0V26.6c2.27 0 4.54.01 6.81 0" class="cls-6"/><path d="M147.86 47.09v6.83h-6.81v-6.83z" class="cls-1"/><path d="M147.86 156.59v6.83h-6.81v-6.83zM141.05 136.11v20.49h-6.81v-20.49zM134.24 108.79v6.83h-6.81v-6.83z" class="cls-2"/><path d="M127.43 88.3h6.81v6.83h-6.81z" class="cls-4"/><path d="M134.24 74.64v6.83h-6.81v-6.83zM127.43 67.81v6.83h-6.81v-6.83z" class="cls-6"/><path d="M154.67 67.81v6.83h-6.81v-6.83z" class="cls-4"/><path d="M147.86 67.81v6.83h-6.81v-6.83z" class="cls-1"/><path d="M147.86 53.92v6.83h-6.81v-6.83z" class="cls-4"/><path d="M127.43 60.75v7.07h-6.81v-7.07z" class="cls-5"/><path d="M120.62 88.3v6.83h-6.81V88.3z" class="cls-1"/><path d="M134.24 122.45v6.83h-6.81v-6.83z" class="cls-2"/><path d="M318.34 389.65v-14.04c-.03-18.21.02-36.43 0-54.64h6.81v-6.83h-6.81v-6.83h-6.81v-6.83h-6.81v6.83c0 4.55-.01 9.11 0 13.66h6.81v6.83c.01 4.55.01 9.11 0 13.66v6.83h-6.81v20.49h-6.81v6.83h6.81v6.83c-2.27 0-4.54-.01-6.81 0v7.21z" class="cls-5"/><path d="M318.34 389.04h6.81v-6.6h-6.81zM318.34 375.61h6.81v6.83h7.04v-13.66H339v-6.83h-6.81v-6.83H339v-6.83h-6.81v-6.83h-7.04c-.01-6.83.02-13.66 0-20.49h-6.81c.02 18.21-.03 36.43 0 54.64" class="cls-4"/><path d="M291.1 389.04v-6.6c2.27 0 4.54.01 6.81 0v-13.66h6.81v-6.83h-6.81v-6.83h6.81v-13.66h-6.81v-20.49h-6.81v6.83h-6.81v-13.66h-6.81v13.66c-2.27 0-4.54-.01-6.81 0v20.49h6.81v6.83h-6.81c0 4.55-.01 9.11 0 13.66h6.81v6.83h-6.81v-6.83h-6.81v20.26z" class="cls-6"/><path d="M291.1 307.32v-6.83h-6.81v13.66h6.81z" class="cls-6"/><path d="M243.43 389.65v-14.04h-6.81v6.83h-6.81v-6.83H223v14.04z" class="cls-5"/><path d="M270.67 375.61h6.81v-6.83h-6.81z" class="cls-2"/><path d="M243.43 375.61v13.42h20.43v-20.26h6.81c-.01-4.55 0-9.11 0-13.66h6.81v-6.83h-6.81v-6.83h-6.81v6.83c-2.27 0-4.54-.01-6.81 0-.01 2.27 0 4.56 0 6.83h-13.62v6.83h-6.81v13.66h6.81Z" class="cls-2"/><path d="M195.53 355.12v27.32h6.81v6.6H223v-33.91h-13.85v-6.83c-2.27 0-4.54.01-6.81 0v6.83h-6.81ZM202.34 348.29v-6.83h-6.81c.01 2.27 0 4.56 0 6.83 2.27 0 4.54-.01 6.81 0" class="cls-6"/><path d="M181.91 382.44c.31 0 .05 5.31 0 6.6h20.42v-6.6h-6.81v-27.32h6.81v-6.83c-2.27-.01-4.54 0-6.81 0 0-2.27.01-4.56 0-6.83s0-4.56 0-6.83c-2.27 0-4.54.01-6.81 0v6.83h-6.81v34.15h-6.81v6.83h6.81ZM188.72 327.8h-6.81c.01 2.27 0 4.56 0 6.83 2.27 0 4.54-.01 6.81 0z" class="cls-1"/><path d="M393.37 375.47v.08h.08z" class="cls-5"/><path d="M400.41 389.58v-7.32h-7.05v-6.71h-6.69v-6.98h-13.71v-6.71l-.03-.03h-6.69v-6.71h-6.81v-6.83h-6.81l.14-6.83h-6.94v-6.83h-6.81v-6.83h-6.81v-6.83h-7.04c.02 6.83-.01 13.66 0 20.49h7.04v6.83h6.81v6.83h-6.81v6.83h6.81v6.83h-6.81v13.66h-7.04v7.21l75.26-.06ZM3.66 517.51s0 .04 0 0M476.34 395.87s0-.04 0 0" class="cls-5"/><path d="M476.34 395.87h-6.81v-6.83H10.47v6.83H3.66c.16 0 0 119.72 0 121.64h6.81v6.83h459.07v-6.83h6.81V395.87Z" class="cls-5"/><path d="M473.19 528H6.81v-6.83H0V392.2h6.81v-6.6h72.72l320.91-.23h72.75v6.83H480v128.89l-6.81.05zm-459.07-7.33h451.76v-6.8l6.81-.05V399.54h-6.81v-6.83h-65.44l-320.91.23H14.12v6.6H7.31v114.31h6.81v6.83Z" class="cls-2"/><path d="M77.73 455.02v33.75c0 1.42-.56 2.64-1.68 3.63q-1.68 1.5-3.96 1.5c-1.61 0-2.98-.5-4.1-1.49-1.12-1-1.68-2.2-1.68-3.63v-33.72L43.6 428.98v-10.85q0-2.19 1.65-3.72c1.1-1.02 2.43-1.52 4-1.52s2.92.52 4.06 1.56 1.71 2.28 1.71 3.71v7.05l16.93 19.74 17.2-19.72v-7.12c0-1.42.56-2.64 1.68-3.68 1.12-1.03 2.44-1.55 3.96-1.55s2.79.48 3.93 1.43q1.71 1.44 1.71 3.81v10.73l-22.71 26.16ZM161.44 453.54v21.64c0 4.59-2.38 8.84-7.15 12.74s-9.69 5.85-14.75 5.85h-13.23c-5.15 0-10.08-1.98-14.78-5.94s-7.05-8.18-7.05-12.65v-21.64c0-4.47 2.29-8.69 6.89-12.65 4.59-3.96 9.57-5.94 14.95-5.94h13.23c5.06-.08 9.98 1.83 14.75 5.73s7.15 8.19 7.15 12.86Zm-45.54.43v20.73c0 1.87.74 3.35 2.22 4.45l4.23 3.29c.94.73 2.26 1.1 3.96 1.1h13.1c1.92 0 3.67-.63 5.24-1.89l3.43-2.74c1.39-.98 2.08-2.34 2.08-4.08V454.1c0-2.03-.7-3.54-2.08-4.51l-3.96-2.87c-1.34-1.02-2.91-1.52-4.7-1.52h-11.69q-3.825 0-5.91 1.65l-3.83 2.99c-1.39 1.06-2.08 2.44-2.08 4.15ZM229.59 440.19v4.15c0 1.63-.65 3.01-1.95 4.15l-40.07 35.17h36.24c1.57 0 2.9.5 4 1.49 1.1 1 1.65 2.2 1.65 3.63s-.55 2.63-1.65 3.63-2.43 1.49-4 1.49H178.4c-1.61 0-2.98-.5-4.1-1.49-1.12-1-1.68-2.2-1.68-3.63v-4.39c0-1.46 1.01-3.09 3.02-4.88l39.25-34.2h-33.87c-1.57 0-2.9-.51-4-1.52q-1.65-1.53-1.65-3.72 0-2.01 1.68-3.57c1.12-1.04 2.44-1.55 3.96-1.55h42.93c1.57 0 2.9.52 4 1.55q1.65 1.56 1.65 3.69M297.76 454.34v12.38q0 2.07-1.68 3.6c-1.12 1.02-2.44 1.52-3.96 1.52h-39.9v2.99c0 1.75.83 3.23 2.49 4.45l3.29 2.5c1.79 1.26 3.49 1.89 5.11 1.89h29.02c1.52 0 2.84.5 3.96 1.49 1.12 1 1.68 2.2 1.68 3.63s-.57 2.58-1.71 3.6-2.45 1.52-3.93 1.52h-29.76c-1.97 0-4.04-.38-6.21-1.13s-3.77-1.53-4.8-2.35l-5.04-4.02c-1.57-1.14-2.88-2.72-3.93-4.75s-1.58-3.9-1.58-5.61v-23.47q0-2.01 1.71-5.43c1.14-2.28 2.59-4.04 4.33-5.3l4.7-3.35c3.09-2.28 6.52-3.41 10.28-3.41h15.85c3.99 0 7.75 1.5 11.29 4.51l4.23 3.66c3.05 2.48 4.57 6.18 4.57 11.09Zm-45.41-.8v7.92h34.26v-7.13c0-1.91-.65-3.37-1.95-4.39l-3.29-2.62c-1.7-1.26-3.22-1.89-4.57-1.89h-14.17q-2.625 0-4.77 1.65l-3.29 2.5q-2.22 1.53-2.22 3.96" class="cls-3"/><path d="M332.01 445.32v43.46q0 2.13-1.68 3.63c-1.12 1-2.44 1.49-3.96 1.49-1.61 0-2.98-.5-4.1-1.49-1.12-1-1.68-2.2-1.68-3.63v-43.46h-5.78c-1.57 0-2.9-.51-4-1.52-1.1-1.02-1.65-2.21-1.65-3.6s.5-2.53 1.51-3.57 2.38-1.55 4.13-1.55h5.91v-3.96c0-5.24 1.98-9.59 5.95-13.05 3.96-3.45 8.9-5.18 14.81-5.18h13.23c1.57 0 2.9.51 4 1.52q1.65 1.53 1.65 3.72 0 2.07-1.68 3.6c-1.12 1.02-2.44 1.52-3.96 1.52h-13.23c-2.69 0-4.92.73-6.68 2.19-1.77 1.46-2.65 3.35-2.65 5.67v3.96h11.29c1.52-.04 2.84.45 3.96 1.46q1.68 1.53 1.68 3.66c0 2.13-.56 2.58-1.68 3.6s-2.44 1.52-3.96 1.52h-11.42ZM394.09 483.54l18.97-10.97V440.2q0-2.13 1.65-3.69c1.1-1.04 2.43-1.55 4-1.55s2.9.52 4 1.55q1.65 1.56 1.65 3.69v48.58q0 2.07-1.68 3.6c-1.12 1.02-2.44 1.52-3.96 1.52s-2.84-.51-3.96-1.52c-1.12-1.02-1.68-2.21-1.68-3.6v-4.02l-9.79 5.79c-3.85 2.24-7.74 3.35-11.67 3.35h-5.23c-4.61 0-8.56-1.46-11.87-4.39s-5.08-6.5-5.3-10.73l-1.68-38.59c-.09-1.34.44-2.53 1.58-3.57s2.5-1.55 4.06-1.55 2.83.51 3.93 1.52q1.65 1.53 1.71 3.6l1.55 37.86c.13 3.66 2.44 5.49 6.9 5.49h6.84Z" class="cls-2"/></g></svg>