<svg xmlns="http://www.w3.org/2000/svg" width="334" height="386" fill="none" viewBox="0 0 334 386"><g clip-path="url(#a)"><path fill="#fff" d="M326.95 377.071h-.96v-6.726h-6.69v-6.997h-13.73v-.662l-.03-6.095h-6.66v-6.726h-6.81v-6.846h-6.72v-.602l.14-6.245h-7.04v-6.847h-6.81v-6.846h-6.81v-6.867l-6.11.02h-.94v-6.846h-6.81v-6.847h-6.81v-6.846h-20.43v-1.674h.73l6.08-.02v-6.827h6.8v-20.529h6.81v-27.387h14.56l6.1.021v-6.857h6.82v-20.53h6.81v-53.579l-6.11.02h-.7v-6.847h-6.81v-8.29h6.8v-6.114c.01-1.083.01-2.176.01-3.268v-18.014h6.81v-6.846h6.81V82.409h-6.81V60.897l-.02-6.105h-6.8v-6.816l-6.06-.03h-.75V34.273h-6.08c-.86-.01-1.72-.01-2.58-.01h-12v-6.847h-13.62V6.877h-6.81V0H109.16v6.837H88.73v6.836h-13.6l-.02 6.095v.741h-.74l-6.07.02v6.827h-.74l-6.07.02V41.06h-6.81v13.713H41.06V82.38h-6.8v32.749l6.06.03h.75v6.837h6.81v13.693h6.81v15.136H41.08v39.867h6.81v34.232h6.81v6.847h6.81v6.836h6.08l1.27.01h13.08v13.703h6.81v20.52l6.07.02h.73v13.653l6.06.03h.75v8.521h-6.81v6.846h-6.81v13.703H75.11v6.135c.01 1.343.01 2.697.01 4.05v3.508h-6.79l-.02 6.105v7.578H61.5v6.847H47.89v6.847h-7.51l-6.13-.021.02 6.155v.702H20.43v6.847h-.73l-6.08.01v6.836H0v12.971h333.06v-13.151h-6.09z"/><path fill="#43495a" d="M265.51 156.979h-15.37v21.873h15.37z"/><path fill="#fff" d="M272.33 177.509h-27.36v27.616h27.36z"/><path fill="#fff" d="M265.34 197.738h-27.36v27.616h27.36zM60.75 170.662H47.13v13.924h13.62z"/><path fill="#fff" d="M74.48 184.476H53.94v27.496h20.54z"/><path fill="#343736" d="M203.99 6.125v6.846h6.81v6.847h13.62c.02 6.846-.01 13.693 0 20.54h6.81V33.51h6.81v6.846h6.81c4.61.01 9.24 0 13.85 0v13.694c2.27 0 4.54-.01 6.81 0v6.846h6.81c.01 4.641 0 9.292 0 13.924v13.693h6.81v13.693h-6.81v6.846h-6.81c-.01 6.847.02 13.693 0 20.54v6.847h-6.81v20.539h-7.05v20.54h7.05v13.933h-13.86v-41.309h-6.81v-20.54h-6.81v-27.386c-2.27 0-4.54.01-6.81 0V95.37h13.62v-6.846h-13.62v-6.847h6.81v-6.846c4.54 0 9.08.01 13.62 0h6.81v-6.847h7.04v-7.087h-13.85v-6.846h-6.81v-6.847h-6.81v20.78h-20.43V54.051h13.62v-6.847h-6.81v-6.846h-6.81v6.846h-6.81V33.511h6.81v-6.847c-9.08-.02-18.16.02-27.24 0-.01-2.275 0-4.57 0-6.846h-6.81v6.846h6.81c.01 2.276 0 4.571 0 6.847h6.81v6.846h-13.62v-6.846h-6.81v6.846h6.81v6.847h-6.81v6.847h-6.81v-6.847h6.81v-6.846h-6.81V33.51h-6.81v6.846h6.81v6.847H149.5v6.847h6.81v6.846h-6.81v7.087c0 .341 6.21 0 6.81 0v6.847h6.81V60.897h6.81v-6.846h13.62v20.77h6.81v-6.847h6.81v-7.087c0-.34-6.21 0-6.81 0v-6.846h13.62v20.77h6.81c.34 0 0 6.245 0 6.846h6.81v6.847h6.81v6.846h-6.81v-6.846h-6.81v-6.847h-6.81v6.847h-6.81v-6.847h-6.81c-.34 0 0 6.245 0 6.847h-34.05v-6.847h-6.81v-6.846h-7.04v6.846h7.04v6.847h-20.67v6.846h-13.62v20.54h-6.81v-6.847h-6.81v6.847h-6.81v6.846c2.27 0 4.54-.01 6.81 0v20.54h-6.81v13.693c2.27 0 4.54-.01 6.81 0v6.847c-2.27.01-4.54 0-6.81 0v6.846h6.81v-6.846c2.27-.01 4.54 0 6.81 0v-6.847c-2.27 0-4.54.01-6.81 0v-6.846h6.81c9.08 0 18.16.01 27.24 0 4.61 0 9.24.01 13.85 0v13.693h6.81v13.693h-6.81v-6.847h-7.04v20.78h-6.81v6.847c-2.27 0-4.54-.01-6.81 0v-6.847h6.81v-20.77h-6.81v6.847h-6.81v-6.847h-6.81v6.847h-6.81v7.087h-6.81v6.846h-6.81v-13.923c0-.341-6.21 0-6.81 0v-13.693h-6.81v13.693c-.01 6.917 0 13.853 0 20.78h6.81v13.693h6.81v13.693h6.81v13.693h6.81c.01 4.561 0 9.132 0 13.693v6.847H94.78c0-4.561.01-9.132 0-13.693v-6.847h-6.81v-6.846h-6.81v-13.693h-6.81c0-2.276.01-4.571 0-6.847-.01-2.275 0-4.571 0-6.846h-6.81c0-2.276.01-4.572 0-6.847s0-4.571 0-6.847h-6.81c-.01-4.641 0-9.292 0-13.923v-6.847h-6.81v-6.846h6.81v6.846h6.81v6.847h6.81v-6.847h-6.81v-6.846h6.81v-6.847c.01-4.561 0-9.132 0-13.693v-13.693h-6.81v-6.846h-6.81v-20.54c-2.27 0-4.54.01-6.81 0V95.38h6.81v-6.846h-6.81v-6.847h6.81V67.994h6.81v6.847h13.62V60.907h-6.81V47.214c0-4.561-.01-9.132 0-13.693 2.27-.01 4.54 0 6.81 0 0-2.276-.01-4.571 0-6.847 2.27-.01 4.54 0 6.81 0v-6.846h13.62V12.98c4.54-.01 9.08 0 13.62 0V6.135h88.76zm-54.47 6.846v6.847h20.43V12.97zm-20.67 6.847h-13.62v6.846h13.62zm-13.62 27.386V33.511h-13.62v13.693h6.81v6.847h6.81v6.846c-2.27.01-4.54 0-6.81 0v7.087c-2.27.01-4.54 0-6.81 0v13.693h6.81c0-4.56-.01-9.132 0-13.693 2.27-.01 4.54 0 6.81 0v-7.087c2.27-.01 4.54 0 6.81 0v-6.846h6.81v-6.847c-4.54 0-9.08.01-13.62 0m13.62-13.693v6.846h6.81v-6.846zm0 41.31v6.846h6.81v-6.846zM94.8 102.207h6.81V88.514H94.8z"/><path fill="#343736" d="M115.23 259.898c.01 4.561 0 9.132 0 13.693h6.81v6.846c0 4.642.01 9.293 0 13.924h-6.81v6.847h6.81v-6.847h6.81v6.847h6.81v6.846h6.81v6.847h7.05c11.34.03 22.7.03 34.05 0h6.81v-6.847h6.81v-6.846H204v-13.924h6.81v-13.693h13.62v13.693h-6.81v13.934h-6.81v6.846H204v13.693h-6.81v6.847c-2.27.01-4.54 0-6.81 0v6.846h-13.62v6.847h-13.62v13.693h-27.47v-6.847c-2.27 0-4.54.01-6.81 0v-6.846h-6.81c-.01-2.276 0-4.571 0-6.847-2.27 0-4.54.01-6.81 0v-6.846h-6.81c-.01-2.276 0-4.571 0-6.847h-6.81v-6.846h6.81v-20.54h6.81v-7.087h-6.81v-6.847c-2.27 0-4.54.01-6.81 0v-13.693h6.81v-6.846h6.81zM122.04 115.9v6.846h-6.81V115.9zM272.33 163.816c-.01 4.561 0 9.132 0 13.693h-13.62v-6.847h6.81v-6.846z"/><path fill="#343736" d="M231.23 266.744v6.847h-6.81v-6.847zM217.61 253.051h6.81v13.693h-6.81v-13.693"/><path fill="#796c9d" d="M244.85 170.662v27.617h-6.81c0-6.917-.02-13.854 0-20.77v-6.847z"/><path fill="#43495a" d="M81.18 342.287v6.846h-6.81v-6.846z"/><path fill="#343736" d="M47.13 376.519v14.064h61.29c.04-1.293.31-7.217 0-7.217h-6.81v-6.847c-.01-4.561 0-9.132 0-13.693H94.8v-13.693h6.81v-6.846H94.8v-6.847c-.01-4.561 0-9.132 0-13.693h-6.81c-.01 2.276 0 4.571 0 6.847-2.27 0-4.54-.01-6.81 0v20.539h-6.81v13.693h-6.81v6.847h-6.81v-6.847h-6.81v13.693zM40.32 383.366v-6.847h-6.81v6.847h-7.05v7.217h13.85v-7.217z"/><path fill="#43495a" d="M217.61 12.971v6.847h-6.81V12.97z"/><path fill="#796c9d" d="M217.61 6.125v6.846h-13.62V6.125zM217.61 12.971h6.81v6.847h-6.81zM74.37 143.286c0 4.561.01 9.132 0 13.693h-6.81v-13.693z"/><path fill="#cecfe9" d="M108.42 184.596v6.846h20.43v6.847c2.27-.01 4.54 0 6.81 0v-6.847h6.81c-.01 11.408 0 22.826 0 34.233v6.847h-6.81v6.846h13.85v6.847h13.62v6.846h-6.81v6.847h-13.85c0-.602.34-6.847 0-6.847h-13.62v-6.846h-6.81v-6.847h-6.81v-13.693h-6.81v-6.846h-6.81v-13.694h13.62c.01 2.276 0 4.572 0 6.847h13.62v-13.693c-2.27.01-4.54 0-6.81 0v6.846h-6.81c-.01-2.275 0-4.571 0-6.846h-6.81v-6.847h-6.81v-6.846z"/><path fill="#796c9d" d="M149.52 184.596h13.62v34.233h-6.81c0 2.275.01 4.571 0 6.846h-13.85c0-11.407-.01-22.825 0-34.233v-6.846zM81.18 177.509v-13.693h6.81v13.693c.6 0 6.81-.341 6.81 0v13.923h6.81v27.387h6.81v6.846h6.81v13.693h6.81v6.847h6.81v6.846h13.62c.34 0 0 6.245 0 6.847h-13.62v6.846h-6.81v-6.846h-6.81v-6.847h-6.81c0-4.561.01-9.132 0-13.693v-6.846h-6.81v-13.693H94.8v-13.694h-6.81v-6.846c-.01-6.917.01-13.854 0-20.77z"/><path fill="#43495a" d="M231.23 129.593h6.81v20.54h6.81v20.539h-6.81v6.847h-6.81v-6.847h-6.81v-6.846h13.62v-6.847H210.8v6.847h27.24v-6.847h-6.81v-27.386"/><path fill="#cecfe9" d="M149.52 150.133h6.81v-6.847h6.81v6.847h6.81v-6.847h6.81v13.693h-6.81v13.693h-6.81v-13.693h-13.62z"/><path fill="#43495a" d="M231.23 60.897V47.204h6.81v6.847h6.81v6.846h13.85v7.087h-7.04v6.847h-6.81v-6.847h-6.81v-7.087zM53.94 211.982v-6.847h6.81v6.847h13.62c.01 2.276 0 4.571 0 6.847h6.81v13.693H67.56v-6.847h-6.81v-13.693z"/><path fill="#796c9d" d="M183.56 47.204v6.847h6.81v6.846h-6.81v-6.846h-6.81v-6.847z"/><path fill="#796c9d" d="M203.99 33.51v13.694h6.81v-6.846h6.81v6.846h-6.81v6.847h-13.62v-6.847h-13.62v-6.846h6.81V33.51c4.53.01 9.08.01 13.62 0"/><path fill="#43495a" d="M217.61 47.204h6.81v6.847H210.8v13.933h13.62v6.847h6.81v6.846h-6.81v-6.846h-6.81v6.846h-6.81c0-.601.34-6.846 0-6.846h-6.81V54.06h6.81v-6.847h6.81zM108.42 47.204h-6.81V33.511h13.62v13.693zM183.56 26.664h-6.81v-6.846h6.81c0 2.275-.01 4.57 0 6.846 9.08.02 18.16-.02 27.24 0v6.847h-6.81q-6.81.015-13.62 0h-6.81c0-2.276.01-4.571 0-6.847"/><path fill="#cecfe9" d="M122.04 177.509h6.81v-6.847h6.81v13.924c-4.54 0-9.08.01-13.62 0v-7.087z"/><path fill="#43495a" d="M190.37 60.897c.6 0 6.81-.34 6.81 0v7.087h-6.81v6.847h-6.81V60.907h6.81zM87.99 177.509c.01 6.916-.01 13.853 0 20.77h-6.81c.01-6.917-.01-13.854 0-20.77zM115.23 177.509v-6.847h6.81v6.847zv7.087h6.81v6.846h-13.62v-13.933zM149.52 81.667h-7.04v-6.846h7.04zh6.81v6.847h6.81v6.846h-6.81v-6.846h-6.81v6.846h-20.66v-6.846c6.88 0 13.78.01 20.66 0zM169.95 12.971h-20.43v6.847h20.43z"/><path fill="#796c9d" d="M156.33 156.969h6.81v20.54h-6.81zM169.94 40.358v6.846h-6.81v-6.846zM163.13 47.204v13.693h-6.81v-6.846h-6.81v-6.847zM115.23 47.204c4.54.01 9.08 0 13.62 0v6.847h-20.43v-6.847z"/><path fill="#43495a" d="M169.94 40.358V33.51h6.81v6.846h6.81v6.847h-6.81v6.847h-6.81v6.846h-6.81v7.087h-6.81c-.6 0-6.81.341-6.81 0v-7.087h13.62v-6.846h6.81v-6.847h6.81v-6.846zM183.56 47.204h13.62v6.847h-13.62zM224.42 88.514h13.62v6.846h-13.62zM128.85 19.818h-13.62v6.846h13.62zM108.42 253.051h6.81v6.847h6.81v6.846h6.81v-6.846h13.62v6.846h-13.62v6.847h-13.62c0-4.561.01-9.132 0-13.693h-6.81zM108.42 259.898v6.846H94.8v-6.846z"/><path fill="#796c9d" d="M224.42 74.82v13.694h-6.81V74.82z"/><path fill="#43495a" d="M101.61 115.9v-6.847h6.81v6.847zv6.846c2.27.011 4.54 0 6.81 0v13.694h-6.81v-13.694c-2.27-.01-4.54 0-6.81 0V115.9z"/><path fill="#796c9d" d="M122.04 177.509v7.087c4.54.01 9.08 0 13.62 0v6.846h-13.62v-6.846h-6.81v-7.087z"/><path fill="#43495a" d="M108.42 67.974c-.01 4.561 0 9.132 0 13.693h-6.81V67.974c2.27 0 4.54.01 6.81 0"/><path fill="#796c9d" d="M238.04 67.974h6.81v6.847c-4.54.01-9.08 0-13.62 0v-6.847zM108.42 136.44v13.693h-6.81V136.44z"/><path fill="#43495a" d="M101.61 143.286v13.693c2.27.01 4.54 0 6.81 0v6.847c-2.27 0-4.54-.01-6.81 0v6.846H94.8v-6.846c2.27 0 4.54.01 6.81 0v-6.847c-2.27-.01-4.54 0-6.81 0v-13.693z"/><path fill="#796c9d" d="M176.75 88.514v6.846h-13.62v-6.846z"/><path fill="#cecfe9" d="M190.37 88.514v6.846h-13.62v-6.846z"/><path fill="#796c9d" d="M210.8 81.667v6.847h-6.81v6.846h-13.62v-6.846h13.62v-6.847z"/><path fill="#43495a" d="M67.56 129.593h6.81v13.693h-6.81v-13.693"/><path fill="#fff" d="M149.52 177.509v7.087h-7.04v-7.087z"/><path fill="#796c9d" d="M115.23 60.897v7.087c-2.27 0-4.54-.01-6.81 0v-7.087c2.27 0 4.54.01 6.81 0"/><path fill="#cecfe9" d="M231.23 60.897h6.81v7.087h-6.81v6.847h-6.81v-6.847h6.81z"/><path fill="#796c9d" d="M142.47 177.509v-6.847h7.04v6.847z"/><path fill="#43495a" d="M156.33 177.509v7.087h-6.81v-7.087z"/><path fill="#796c9d" d="M101.61 12.971v6.847H94.8V12.97zM122.04 6.125v6.846h-6.81V6.125z"/><path fill="#796c9d" d="M128.85 6.125v6.846h-6.81V6.125zM197.03 6.125v6.846h-6.81V6.125zM190.22 6.125v6.846h-6.81V6.125zM87.99 19.818v6.846c-2.27 0-4.54-.01-6.81 0 .01-2.275 0-4.57 0-6.846z"/><path fill="#43495a" d="M135.66 33.51h-6.81v6.848h6.81zM163.13 40.358h-6.81V33.51h6.81zM60.75 191.442h6.81c0 2.276-.01 4.571 0 6.847h-6.81zM60.75 156.969v6.847h6.81v6.846h6.81v6.847h-6.81v-6.847h-6.81v-6.846h-6.81v6.846h6.81v6.847h-6.81v7.087h-6.81v-7.087h6.81v-6.847h-6.81v-13.693zM251.66 191.442v6.847h-6.81v-6.847zM244.85 198.289v6.847h-6.81v-6.847zM87.99 205.135h6.81v6.847h-6.81zM156.33 156.969v6.847h-6.81v-6.847zM101.61 218.829v6.846H94.8v-6.846zM101.61 232.512h6.81v6.846h-6.81z"/><path fill="#796c9d" d="M87.99 239.358h6.81v6.847h-6.81z"/><path fill="#43495a" d="M101.61 95.36H94.8v6.847h6.81z"/><path fill="#cecfe9" d="M101.61 88.514H94.8v6.846h6.81z"/><path fill="#43495a" d="M190.37 88.514c0-.602-.34-6.847 0-6.847h6.81v6.847z"/><path fill="#796c9d" d="M135.66 74.82h-6.81v6.847h6.81zM163.13 67.974v6.847h-6.81v-6.847z"/><path fill="#43495a" d="M122.04 54.05v6.847c-2.27 0-4.54-.01-6.81 0v-6.846z"/><path fill="#343736" d="M244.85 205.135v27.387h-6.81v27.386h-6.81v-13.693h-6.81v-6.847h6.81v-13.693h6.81v-20.54z"/><path fill="#cecfe9" d="M265.52 205.135v20.54h-20.66v-13.693h6.81v6.847h7.04v-13.694z"/><path fill="#43495a" d="M258.71 205.136v-6.847h13.62v6.847h-13.62v6.846h-7.04v-6.846h7.05zM258.71 225.675v6.847h-7.04v-6.847z"/><path fill="#cecfe9" d="M231.23 301.218v6.846h-6.81v-6.846z"/><path fill="#43495a" d="M224.42 308.064v6.847h-6.81v-6.847zM265.52 184.596h6.81v6.846h-6.81z"/><path fill="#cecfe9" d="M74.37 349.133v6.847h-6.81v6.846H53.94v6.847H40.32v6.846h-6.81v6.847h-7.05v-6.847h7.04v-6.846h6.81v-6.847h13.62v-6.846h13.62v-6.847h6.82M87.99 321.747c-.01 2.276 0 4.571 0 6.847-2.27 0-4.54-.01-6.81 0v-6.847zM81.18 335.44v6.847h-6.81v-6.847z"/><path fill="#43495a" d="M101.61 321.747h6.81c0 2.276-.01 4.571 0 6.847.01 2.275 0 4.571 0 6.846 2.27 0 4.54-.01 6.81 0v6.847h-6.81v34.232h-6.81c-.01-4.561 0-9.132 0-13.693H94.8v-13.693h6.81v-27.386"/><path fill="#796c9d" d="M26.47 376.519v13.694H6.04v-6.847h13.62v-6.847z"/><path fill="#cecfe9" d="M108.42 301.218v6.846h-6.81v27.386H94.8c-.01-4.561 0-9.132 0-13.693v-13.693h6.81v-6.846z"/><path fill="#43495a" d="M33.52 369.673v6.846h-7.04v-6.846h7.05zM47.13 383.366v6.847h-6.81v-6.847z"/><path fill="#796c9d" d="M101.61 335.44v6.847H94.8v-6.847z"/><path fill="#43495a" d="M74.37 355.98v6.846h-6.81v-6.846z"/><path fill="#796c9d" d="M67.56 362.826v6.847h-6.81v-6.847zM53.94 369.673v6.846h-6.81v6.847h-6.81v-6.847h6.81v-6.846zM217.61 314.901v13.693h-6.81v-13.693z"/><path fill="#43495a" d="M224.42 376.519h6.81v6.847c-2.27 0-4.54-.01-6.81 0v6.847h-6.81v-6.847c2.27 0 4.54.01 6.81 0zM210.8 308.064v6.847h-6.81v-6.847z"/><path fill="#fff" d="M224.42 314.901v6.846h-6.81v-6.846z"/><path fill="#796c9d" d="M203.99 321.747v6.847c-2.27 0-4.54-.01-6.81 0v-6.847z"/><path fill="#43495a" d="M197.18 328.594v6.846h-6.81v6.847h-6.81c0 2.275.01 4.571 0 6.846-2.27.01-4.54 0-6.81 0v6.847h-13.62v13.693h-6.81V355.98h6.81v-13.693h13.62v-6.847h13.62v-6.846c2.27 0 4.54.01 6.81 0"/><path fill="#796c9d" d="M197.18 335.44v6.847h-6.81v6.846c-2.27 0-4.54-.01-6.81 0 .01-2.275 0-4.571 0-6.846h6.81v-6.847z"/><path fill="#43495a" d="M238.04 342.287v6.846h-6.81v-6.846z"/><path fill="#796c9d" d="M231.23 355.98v6.846h-6.81v-6.846zM244.85 376.519h6.81v6.847h-6.81z"/><path fill="#43495a" d="M231.23 321.747h6.81v6.847h-6.81z"/><path fill="#343736" d="M183.56 349.133c-.01 2.276 0 4.571 0 6.847h-6.81v-6.847c2.27 0 4.54.01 6.81 0"/><path fill="#cecfe9" d="M169.94 355.98v6.846h-6.81v-6.846zM163.13 369.673v6.846h-6.81v-6.846z"/><path fill="#fff" d="M156.33 355.98v20.539h-6.81V355.98z"/><path fill="#796c9d" d="M163.13 376.519v6.847h-6.81v-6.847z"/><path fill="#fff" d="M60.75 211.982v6.847h-6.81v-6.847z"/><path fill="#343736" d="M190.37 150.133h40.86v6.846h6.81v6.847h-6.81v-6.847H210.8v6.847h13.62v6.846h6.81v6.847h-6.81v7.087h-6.81v-13.924h-6.81v6.847h-6.81v-6.847h-20.43v6.847h-13.62v-6.847h6.81v-6.846h6.81v-13.693h6.81z"/><path fill="#43495a" d="M183.56 150.133v13.693h-6.81v-13.693z"/><path fill="#343736" d="M163.13 225.675v6.847h6.81c4.54.01 9.08 0 13.62 0v6.846h-13.62v6.847h-13.62v-6.847h-6.81v-6.846h6.81c0-2.276-.01-4.571 0-6.847z"/><path fill="#43495a" d="M156.33 225.675c-.01 2.276 0 4.571 0 6.847h-6.81v6.846h-7.04v-13.693z"/><path fill="#343736" d="M156.33 259.898h6.81v6.846h6.81v-6.846h20.43v6.846h-20.43v6.847h-6.81v-6.847h-20.66v-6.846z"/><path fill="#fff" d="M163.13 253.051h13.62v6.847h-20.43v-6.847zM122.04 205.135h6.81v6.847h-13.62c0-2.275.01-4.571 0-6.847z"/><path fill="#343736" d="M108.42 198.289v6.847h-6.81v-6.847z"/><path fill="#796c9d" d="M108.42 198.289h6.81c0 2.275-.01 4.571 0 6.847h-6.81z"/><path fill="#43495a" d="M128.85 198.289v6.847h-6.81v-6.847c2.27 0 4.54.01 6.81 0"/><path fill="#fff" d="M142.47 232.512v6.846h-6.81v-6.846z"/><path fill="#796c9d" d="M149.52 239.358h6.81v6.847h-6.81z"/><path fill="#43495a" d="M169.94 246.205v6.846h-6.81v-6.846z"/><path fill="#a69fb9" d="M197.18 143.286c2.27-.01 4.54 0 6.81 0v-6.846h6.81v13.693h-13.62z"/><path fill="#cecfe9" d="M149.52 95.36v6.847h6.81V95.36h40.86v20.54h-6.81v-6.847h-6.81v6.847h-6.81v6.846h13.62v13.694h6.81c.34 0 0 6.245 0 6.846-2.27.01-4.54 0-6.81 0v6.847h-13.62v-6.847h-6.81v6.847h-6.81v-6.847h-6.81v6.847h-6.81c-4.61.01-9.24 0-13.85 0V136.44h13.85v-6.847h-7.04V115.9h7.04v-6.847h-7.04V95.36z"/><path fill="#a69fb9" d="M128.85 95.36h13.62v13.693h7.04v6.847h-7.04v13.693h7.04v6.847h-13.85v13.693c-9.08.01-18.16 0-27.24 0V136.44h20.43v-6.847h-6.81v-20.54h-6.81v-6.846h6.81V95.36zM224.42 95.36v6.847c2.27.01 4.54 0 6.81 0v47.926h-6.81v-47.926c-2.27-.01-4.54 0-6.81 0V95.36z"/><path fill="#a69fb9" d="M108.42 115.9h6.81v6.846h6.81v6.847h-13.62v-6.847c-2.27 0-4.54.011-6.81 0V115.9zM115.23 109.053h6.81v6.847h-6.81zM122.04 95.36v6.847h-6.81V95.36zM203.99 95.36h13.62v6.847c2.27 0 4.54-.01 6.81 0v47.926H210.8V136.44h-6.81v6.846c-2.27 0-4.54-.01-6.81 0 0-.601.34-6.846 0-6.846h-6.81v-13.694h-13.62V115.9h6.81v-6.847h6.81v6.847h6.81V95.36zM197.18 143.286v6.847h-6.81v-6.847c2.27 0 4.54.01 6.81 0M156.33 95.36v6.847h-6.81V95.36z"/><path fill="#a69fb9" d="M122.04 129.593h6.81v6.847h-13.62v-6.847z"/><path fill="#343736" d="M115.23 129.593v6.847h-6.81v-6.847z"/><path fill="#fff" d="M169.94 170.662v27.617h-6.81v-27.627h6.81z"/><path fill="#cecfe9" d="M169.94 211.982h6.81v13.693h-6.81v-6.846h-6.81v6.846h-6.81c.01-2.275 0-4.571 0-6.846h6.81v-6.847zM163.13 177.509v7.087h-6.81v-7.087zM169.94 198.289v6.847h-6.81v-6.847z"/><path fill="#fff" d="M169.94 205.135v6.847h-6.81v-6.847z"/><path fill="#cecfe9" d="M203.99 191.442h6.81v13.694h-6.81c-.01-2.276 0-4.572 0-6.847-2.27 0-4.54.01-6.81 0v-6.847z"/><path fill="#cecfe9" d="M231.23 177.509h6.81c-.02 6.916 0 13.853 0 20.77v6.846h-6.81v13.694h-6.81v6.846h-6.81v20.54h-13.62v6.846h-6.81v6.847h-20.43v-6.847h-6.81v-6.846h6.81v-6.847h13.62v-20.539h-6.81c0-9.123-.01-18.265 0-27.387h6.81v6.847c2.27 0 4.54-.01 6.81 0v6.846h6.81c.01 2.276 0 4.572 0 6.847h13.62v-6.847h6.81v-6.846h6.81v-13.693h-6.81v-7.087h6.81z"/><path fill="#796c9d" d="M231.23 156.969v6.847H210.8v-6.847h27.24v6.847h-20.43v-6.847z"/><path fill="#fff" d="M108.42 191.442v6.847h-6.81v-6.847z"/><path fill="#796c9d" d="M176.75 156.969v13.693h-6.81v-13.693zM156.33 88.514v6.846h-6.81v-6.846z"/><path fill="#43495a" d="M210.8 88.514h6.81v6.846h-13.62v-6.846zM156.33 280.437v6.847h-6.81v7.087h-13.85v6.847h6.81v6.846h7.05v6.847h-7.05v-6.847h-6.81v-6.846h-6.81v-6.847h-6.81c.01-4.641 0-9.292 0-13.924h34.28zM217.61 259.898v6.846h6.81v6.847H210.8v13.693h-6.81v13.924h-6.81v-6.847c-2.27 0-4.54.01-6.81 0s-4.54 0-6.81 0v-7.087h-6.81v-6.847h27.24v-6.846h6.81v-13.693h6.81z"/><path fill="#43495a" d="M231.23 273.591v6.846h-6.81v-6.846zM238.04 211.982v13.693h-6.81v13.693h-6.81v6.847h6.81v20.539h-6.81v-13.693h-6.81v-13.693h6.81c-.01-4.561-.01-9.132 0-13.693h6.81v-13.693z"/><path fill="#fff" d="M108.42 287.284h6.81v7.087h-6.81z"/><path fill="#796c9d" d="M122.04 294.371v6.847h-6.81v-6.847z"/><path fill="#cecfe9" d="M108.42 308.064v6.847h-6.81v-6.847z"/><path fill="#796c9d" d="M238.04 205.135v6.847h-6.81v-6.847z"/><path fill="#43495a" d="M47.13 369.673v6.846h-6.81v-6.846z"/><path fill="#796c9d" d="M217.61 246.205v13.693h-6.81v13.693h-6.81v6.846h-6.81v-6.846h6.81v-13.693h-6.81v13.693h-6.81v6.846h-68.33v-6.846h13.62v-6.847h13.85v6.847h6.81v-6.847h6.81v6.847h13.62v-6.847h13.62v-6.846h6.81v-6.847h6.81v-6.846zM190.37 170.662v6.847h-6.81c-.01 4.641 0 9.292 0 13.923-.01 9.122 0 18.265 0 27.387v6.846h-6.81v-13.693h-6.81v-34.463h13.62v-6.847z"/><path fill="#cecfe9" d="M197.18 170.662v6.847h13.62v-6.847h6.81v13.924h-20.43v-7.087h-6.81v-6.847h6.81z"/><path fill="#43495a" d="M217.61 156.969h-6.81v6.847h6.81z"/><path fill="#796c9d" d="M197.18 170.662h6.81v6.847h-6.81zM224.42 184.596v6.846h-6.81v-6.846z"/><path fill="#fff" d="M183.56 218.829h6.81v20.539h-6.81z"/><path fill="#43495a" d="M176.75 225.675h6.81v6.847c-4.54 0-9.08.01-13.62 0v-6.847z"/><path fill="#796c9d" d="M169.94 225.675v6.847h-6.81v-6.847zM176.75 239.358v6.847h-6.81v-6.847z"/><path fill="#43495a" d="M169.94 259.898v6.846h-6.81v-6.846z"/><path fill="#cecfe9" d="M156.33 266.744v6.847h-6.81v-6.847z"/><path fill="#fff" d="M163.13 218.829h6.81v6.846h-6.81z"/><path fill="#cecfe9" d="M135.66 266.744v6.847h-6.81v-6.847z"/><path fill="#fff" d="M197.18 198.289c2.27.01 4.54 0 6.81 0 0 2.275-.01 4.571 0 6.846h-6.81z"/><path fill="#fff" d="M224.42 184.596h6.81v13.693h-6.81v6.846h-6.81v6.847h-13.62c0-2.275.01-4.571 0-6.847h6.81v-13.693h13.62zM190.37 177.509h6.81v7.087h-6.81v6.846h6.81v6.847c-2.27-.01-4.54 0-6.81 0v-6.847h-6.81c0-4.641-.01-9.292 0-13.923h6.81z"/><path fill="#796c9d" d="M231.23 218.829v6.846h-6.81c-.01 4.561-.01 9.132 0 13.693h-6.81v-13.693h6.81v-6.846z"/><path fill="#343736" d="M176.75 280.437v6.847q-10.215-.03-20.43 0v-6.847z"/><path fill="#cecfe9" d="M203.99 266.744v6.847h-6.81v-6.847zM197.18 273.591v6.846h-6.81v-6.846z"/><path fill="#796c9d" d="M142.47 294.371v6.847h13.85v6.846h6.81v-6.846h6.81v6.846h13.62v-6.846h6.81v-6.847c2.27.01 4.54 0 6.81 0v13.693h-13.62v6.847c-11.34.03-22.7.03-34.05 0v-6.847h-7.04v-6.846h-6.81v-6.847z"/><path fill="#43495a" d="M190.37 308.064v6.847h-6.81v-6.847z"/><path fill="#cecfe9" d="M156.33 287.284c0 4.641-.01 9.292 0 13.924h6.81v6.846h-6.81v-6.846h-13.85v-6.847h7.04v-7.087h6.81zM176.75 287.284h6.81v7.087c2.27 0 4.54-.01 6.81 0v6.847h-6.81v6.846h-13.62v-6.846h6.81z"/><path fill="#fff" d="M176.75 287.284v13.934h-20.43c-.01-4.642 0-9.293 0-13.924q10.215-.03 20.43 0z"/><path fill="#43495a" d="M197.18 259.898h6.81v6.846h-6.81z"/><path fill="#cecfe9" d="M176.75 266.744v6.847h-6.81v-6.847z"/><path fill="#796c9d" d="M197.18 184.596h6.81v6.846h-13.62v-6.846z"/><path fill="#43495a" d="M217.61 184.596v6.846h-13.62v-6.846z"/><path fill="#cecfe9" d="M47.13 95.36v6.847c2.27 0 4.54-.01 6.81 0s4.54 0 6.81 0v6.846h-6.81v6.847h6.81v6.846h6.81v13.694h-6.81v-13.694h-6.81V115.9h-6.81v-6.847c-2.27 0-4.54.01-6.81 0 0-4.561-.01-9.132 0-13.693z"/><path fill="#fff" d="M60.75 60.897v13.934h-6.81V60.907h6.81zM53.94 74.82v27.387c-2.27-.01-4.54 0-6.81 0V74.821zM74.37 60.897h6.81v7.087H67.56v-7.087z"/><path fill="#cecfe9" d="M67.56 54.05v13.934h-6.81V54.051z"/><path fill="#fff" d="M74.37 33.51c-.01 4.562 0 9.133 0 13.694h-6.81v6.847h-6.81v-6.847h6.81V33.511c2.27 0 4.54.01 6.81 0"/><path fill="#cecfe9" d="M81.18 26.664c-.01 2.276 0 4.571 0 6.847-2.27 0-4.54-.01-6.81 0v-6.847c2.27 0 4.54.01 6.81 0"/><path fill="#796c9d" d="M74.37 47.204v6.847h-6.81v-6.847z"/><path fill="#fff" d="M74.37 156.969v6.847h-6.81v-6.847zM67.56 136.44v20.539h-6.81V136.44zM60.75 109.053v6.847h-6.81v-6.847z"/><path fill="#43495a" d="M60.75 88.514h-6.81v6.846h6.81z"/><path fill="#cecfe9" d="M60.75 74.82v6.847h-6.81v-6.846zM53.94 67.974v6.847h-6.81v-6.847z"/><path fill="#43495a" d="M81.18 67.974v6.847h-6.81v-6.847z"/><path fill="#796c9d" d="M74.37 67.974v6.847h-6.81v-6.847z"/><path fill="#43495a" d="M74.37 54.05v6.847h-6.81v-6.846z"/><path fill="#343736" d="M53.94 60.897v7.087h-6.81v-7.087z"/><path fill="#796c9d" d="M47.13 88.514v6.846h-6.81v-6.846z"/><path fill="#fff" d="M60.75 122.746v6.847h-6.81v-6.847z"/><path fill="#343736" d="M244.85 390.593v-14.074c-.03-18.254.02-36.518 0-54.772h6.81v-6.846h-6.81v-6.847h-6.81v-6.846h-6.81v6.846c0 4.561-.01 9.132 0 13.693h6.81v6.847c.01 4.561.01 9.132 0 13.693v6.846h-6.81v20.54h-6.81v6.846h6.81v6.847c-2.27 0-4.54-.01-6.81 0v7.227z"/><path fill="#43495a" d="M244.85 389.982h6.81v-6.616h-6.81zM244.85 376.519h6.81v6.847h7.04v-13.693h6.81v-6.847h-6.81v-6.846h6.81v-6.847h-6.81v-6.846h-7.04c-.01-6.847.02-13.693 0-20.54h-6.81c.02 18.254-.03 36.518 0 54.772"/><path fill="#cecfe9" d="M217.61 389.982v-6.616c2.27 0 4.54.01 6.81 0v-13.693h6.81v-6.847h-6.81v-6.846h6.81v-13.693h-6.81v-20.54h-6.81v6.847h-6.81v-13.693h-6.81v13.693c-2.27 0-4.54-.01-6.81 0v20.539h6.81v6.847h-6.81c0 4.561-.01 9.132 0 13.693h6.81v6.846h-6.81v-6.846h-6.81v20.309z"/><path fill="#cecfe9" d="M217.61 308.064v-6.846h-6.81v13.693h6.81z"/><path fill="#343736" d="M169.94 390.593v-14.074h-6.81v6.847h-6.81v-6.847h-6.81v14.074z"/><path fill="#fff" d="M197.18 376.519h6.81v-6.846h-6.81z"/><path fill="#fff" d="M169.94 376.519v13.453h20.43v-20.309h6.81c-.01-4.561 0-9.132 0-13.693h6.81v-6.847h-6.81v-6.846h-6.81v6.846c-2.27 0-4.54-.01-6.81 0-.01 2.276 0 4.571 0 6.847h-13.62v6.846h-6.81v13.693h6.81z"/><path fill="#cecfe9" d="M122.04 355.98v27.386h6.81v6.616h20.66V355.99h-13.85v-6.847c-2.27 0-4.54.01-6.81 0v6.847h-6.81zM128.85 349.133v-6.846h-6.81c.01 2.275 0 4.571 0 6.846 2.27 0 4.54-.01 6.81 0"/><path fill="#796c9d" d="M108.42 383.366c.31 0 .05 5.323 0 6.616h20.42v-6.616h-6.81V355.98h6.81v-6.847c-2.27-.01-4.54 0-6.81 0 0-2.275.01-4.571 0-6.846s0-4.571 0-6.847c-2.27 0-4.54.01-6.81 0v6.847h-6.81v34.232h-6.81v6.847h6.82M115.23 328.594h-6.81c.01 2.275 0 4.571 0 6.846 2.27 0 4.54-.01 6.81 0z"/><path fill="#343736" d="M319.88 376.379v.08h.08z"/><path fill="#343736" d="M326.92 390.523v-7.337h-7.05v-6.727h-6.69v-6.997h-13.71v-6.726l-.03-.03h-6.69v-6.726h-6.81v-6.847h-6.81l.14-6.846h-6.94v-6.847h-6.81v-6.846h-6.81v-6.847h-7.04c.02 6.847-.01 13.693 0 20.54h7.04v6.846h6.81v6.847h-6.81v6.846h6.81v6.847h-6.81v13.693h-7.04v7.227l75.26-.06z"/><path fill="#fff" d="M333 381H1v5h332z"/></g><defs><clipPath id="a"><path fill="#fff" d="M0 0h334v386H0z"/></clipPath></defs></svg>