<svg xmlns="http://www.w3.org/2000/svg" xml:space="preserve" width="500" height="392" viewBox="0 0 500 392"><path d="M443.74 530.078 175.748 288.781l375-52.703Z" style="opacity:1;fill:#ed2131;fill-opacity:1;fill-rule:nonzero;stroke:none;stroke-width:1.68524;stop-opacity:1" transform="matrix(1.33333 0 0 -1.33333 -234.331 706.771)"/><path d="M421.137 309.579h21.366v73.501h-21.366z" style="fill:#fff;fill-opacity:1;fill-rule:nonzero;stroke:none;stroke-width:1.68524" transform="matrix(1.33333 0 0 -1.33333 -234.331 706.771)"/><path d="m368.24 383.08-26.42-73.502h23.814l3.882 12.1h20.564l3.881-12.1h23.816l-26.42 73.501zm5.136-44.35 6.375 23.31 6.466-23.31z" style="opacity:1;fill:#fff;fill-opacity:1;fill-rule:nonzero;stroke:none;stroke-width:1.68524;stop-opacity:1" transform="matrix(1.33333 0 0 -1.33333 -234.331 706.771)"/><path d="m183.764 195.998-22.032 47.813L139.64 196l-33.944 30.564.002 67.434h27.66v-55.172l18.952 40.39h18.027l18.95-40.39v55.172h27.66v-98zM366.475 195.998V294h28.488v-37.635h35.896l3.834-23.273h-39.73v-13.817h42.17l-8.473-23.277z" style="opacity:1;fill:#fff;fill-opacity:1;fill-rule:nonzero;stroke:none;stroke-width:2.24699;stop-opacity:1"/></svg>