<svg width="321" height="407" viewBox="0 0 321 407" fill="none" xmlns="http://www.w3.org/2000/svg">
<rect x="26" width="295" height="407" fill="#E4E5FB"/>
<path d="M295.942 381.32H295.117V375.535H289.369V369.517H284.136H278.335H277.571V368.948L277.545 363.705H271.822V357.92H265.97V352.032H260.196V351.514L260.316 346.143H254.267V340.254H248.415V334.365H242.563V328.459L237.313 328.476C237.047 328.476 236.781 328.476 236.506 328.476C236.506 328.27 236.506 328.054 236.506 327.847V322.588H230.654V316.699H224.802V310.811H212.274H210.83C209.842 310.811 208.854 310.811 207.866 310.811H207.247C207.247 310.344 207.247 309.879 207.247 309.422C207.247 309.405 207.247 309.388 207.247 309.371C207.453 309.371 207.668 309.371 207.874 309.371L213.099 309.354V303.482H218.942V298.222C218.942 297.369 218.942 296.516 218.942 295.662C218.942 294.549 218.942 293.446 218.942 292.342C218.942 291.282 218.942 290.213 218.942 289.152C218.942 288.247 218.942 287.35 218.942 286.453C218.942 286.247 218.942 286.031 218.942 285.825H224.794V262.269C225.008 262.269 225.215 262.269 225.429 262.269H226.031H231.273H232.183C233.094 262.269 234.014 262.269 234.924 262.269C235.715 262.269 236.514 262.269 237.305 262.269L242.546 262.287V257.01C242.546 256.803 242.546 256.597 242.546 256.389H243.174H248.407V251.13V238.731H254.258V209.719C254.258 207.934 254.258 206.15 254.258 204.365C254.258 202.227 254.258 200.08 254.258 197.942V192.648L249.008 192.665C248.81 192.665 248.604 192.665 248.407 192.665V186.776H242.555V179.646H248.398V174.387C248.407 173.455 248.407 172.515 248.407 171.576C248.407 170.55 248.407 169.524 248.407 168.498C248.407 165.402 248.407 162.256 248.407 159.212C248.407 158.169 248.407 157.126 248.407 156.082H254.258V150.194H260.11V127.88H254.877H254.258C254.258 125.708 254.258 123.535 254.258 121.362C254.258 119.517 254.258 117.672 254.258 115.827C254.258 113.68 254.258 111.525 254.258 109.378L254.241 104.127H249.017H248.398V103.506V98.2642L243.191 98.2384C242.976 98.2384 242.761 98.2384 242.546 98.2384V86.4782H237.322C236.583 86.4696 235.844 86.4696 235.105 86.4696C233.953 86.4696 232.802 86.4696 231.651 86.4696C230.499 86.4696 229.356 86.4696 228.205 86.4696C227.277 86.4696 226.349 86.4696 225.421 86.4696C225.215 86.4696 225 86.4696 224.794 86.4696V85.8487V80.5808H213.09C213.09 78.4167 213.09 76.2268 213.09 74.054C213.09 72.9504 213.09 71.8382 213.09 70.7347C213.09 69.8811 213.09 69.0275 213.09 68.1739V62.9146H207.866H207.238V57H179.08H178.461H174.208H173.228H172.609H121.482H120.503H119.884H115.63H114.651H114.032H108.799V62.2593V62.8801C108.765 62.8801 108.722 62.8801 108.687 62.8801C107.502 62.8801 106.316 62.8801 105.139 62.8801C104.202 62.8801 103.257 62.8801 102.32 62.8801C101.848 62.8801 101.366 62.8801 100.894 62.8801H99.0291H97.1473H96.4771H91.244V68.1395V68.7602C91.0378 68.7602 90.823 68.7602 90.6168 68.7602C90.1442 68.7602 89.6716 68.7602 89.2075 68.7602H87.3257H85.4353H84.7736H79.5578L79.5406 74.0023C79.5406 74.2179 79.5406 74.4248 79.5406 74.6403C79.3258 74.6403 79.1196 74.6403 78.9048 74.6403L73.6889 74.6576V79.8997C73.6889 80.1066 73.6889 80.3135 73.6889 80.5291C73.4741 80.5291 73.2679 80.5291 73.0531 80.5291L67.8372 80.5463V85.797C67.8372 87.53 67.8372 89.2716 67.8372 91.0132C67.8372 91.4443 67.8372 91.8841 67.8372 92.3152H67.2185H61.9855V97.5831C61.9855 98.4367 61.9855 99.2989 61.9855 100.161C61.9855 101.265 61.9855 102.368 61.9855 103.472C61.9855 103.687 61.9855 103.894 61.9855 104.11H61.3668H59.76H56.3572H55.5151H50.2821V109.369C50.2821 110.257 50.2821 111.137 50.2821 112.025C50.2821 113.171 50.2821 114.309 50.2821 115.448C50.2821 116.508 50.2821 117.56 50.2821 118.62C50.2821 119.526 50.2821 120.431 50.2821 121.336C50.2821 123.526 50.2821 125.708 50.2821 127.854H49.672H44.439V133.114C44.439 133.967 44.439 134.83 44.439 135.683C44.439 136.787 44.439 137.89 44.439 138.994C44.439 141.054 44.439 143.124 44.439 145.193C44.439 147.055 44.439 148.918 44.439 150.771V156.022L49.6462 156.048C49.861 156.048 50.0759 156.048 50.2907 156.048V161.928H55.5237H56.1424C56.1424 162.143 56.1424 162.351 56.1424 162.566C56.1424 163.661 56.1424 164.756 56.1424 165.86C56.1424 166.722 56.1424 167.584 56.1424 168.446V173.706H61.3754H61.9941V174.326C61.9941 177.464 61.9941 180.612 61.9941 183.759C61.9941 184.75 61.9941 185.733 61.9941 186.724H57.8352H55.5323H50.2993V221.014H56.151V240.913C56.151 242.335 56.151 243.758 56.151 245.18V250.457H61.384H62.0027C62.0027 250.664 62.0027 250.879 62.0027 251.087V256.346H67.8544V262.226H73.0788L74.1701 262.234H75.8715H77.5643C78.0197 262.234 78.4751 262.234 78.9219 262.234C79.343 262.234 79.764 262.234 80.1851 262.234H81.8865H83.5707C83.9745 262.234 84.3784 262.234 84.7822 262.234C84.9885 262.234 85.2033 262.234 85.4095 262.234C85.4095 262.45 85.4095 262.658 85.4095 262.873C85.4095 263.925 85.4095 264.976 85.4095 266.037C85.4095 266.943 85.4095 267.856 85.4095 268.762V274.02H91.2612C91.2612 274.883 91.2612 275.745 91.2612 276.599C91.2612 277.909 91.2612 279.22 91.2612 280.531V291.67L96.4771 291.687C96.6833 291.687 96.8981 291.687 97.1043 291.687V303.43L102.312 303.456C102.526 303.456 102.741 303.456 102.956 303.456C102.956 303.663 102.956 303.878 102.956 304.085C102.956 305.18 102.956 306.275 102.956 307.37C102.956 308.302 102.956 309.241 102.956 310.172C102.956 310.38 102.956 310.577 102.956 310.785H97.1043V316.673H96.4857H91.2526V321.933C91.2526 322.794 91.2526 323.657 91.2526 324.519C91.2526 325.622 91.2526 326.717 91.2526 327.822C91.2526 328.037 91.2526 328.244 91.2526 328.459H79.5406V333.736C79.5492 334.891 79.5492 336.055 79.5492 337.219V339.616V340.236H73.7147L73.6975 345.487C73.6975 346.548 73.6975 347.608 73.6975 348.669C73.6975 349.575 73.6975 350.479 73.6975 351.376C73.6975 351.583 73.6975 351.799 73.6975 352.005H67.8458V357.894C67.631 357.894 67.4248 357.894 67.2185 357.894C66.7373 357.894 66.2561 357.894 65.7835 357.894H63.9189H62.0371H61.3754H56.151V363.154C56.151 363.36 56.151 363.576 56.151 363.783C55.9448 363.783 55.7471 363.783 55.5409 363.783H54.5355H52.8256H51.1242C50.6516 363.783 50.1704 363.783 49.6978 363.783L44.4304 363.765L44.4476 369.059C44.4476 369.258 44.4476 369.465 44.4476 369.663C44.2328 369.663 44.0265 369.663 43.8203 369.663C43.3219 369.663 42.8235 369.663 42.3337 369.663H40.409H38.4756H37.7796H32.5551V374.923C32.5551 375.129 32.5551 375.345 32.5551 375.552H31.9278L26.7034 375.561V381.441H15V392.597H301.192V392.339V381.286H295.959L295.942 381.32Z" fill="white"/>
<path d="M243.148 192.018H229.941V210.831H243.148V192.018Z" fill="#43495A"/>
<path d="M249.008 209.676H225.498V233.429H249.008V209.676Z" fill="white"/>
<path d="M243.002 227.075H219.492V250.828H243.002V227.075Z" fill="white"/>
<path d="M67.2012 203.787H55.4978V215.763H67.2012V203.787Z" fill="white"/>
<path d="M78.9995 215.668H61.3499V239.318H78.9995V215.668Z" fill="white"/>
<path d="M190.285 62.268V68.1567C192.235 68.1567 194.186 68.1567 196.136 68.1567V74.0455C198.087 74.0455 200.037 74.0455 201.988 74.0455H207.84C207.857 79.9342 207.831 85.8229 207.84 91.7117H213.691C213.691 89.7545 213.691 87.7801 213.691 85.8229H219.543C219.543 87.7801 219.543 89.7545 219.543 91.7117C221.494 91.7117 223.444 91.7117 225.395 91.7117C229.356 91.7203 233.335 91.7117 237.296 91.7117V103.489C239.247 103.489 241.197 103.48 243.148 103.489V109.378H248.999C249.008 113.37 248.999 117.37 248.999 121.354C248.999 125.337 248.999 129.208 248.999 133.131H254.851V144.909H248.999V150.797H243.148C243.139 156.686 243.165 162.574 243.148 168.463C243.148 170.421 243.148 172.395 243.148 174.353H237.296V192.018C235.277 192.018 233.257 192.018 231.238 192.018C231.238 193.976 231.238 195.95 231.238 197.907C231.238 199.864 231.238 201.839 231.238 203.796C231.238 205.753 231.238 207.727 231.238 209.685C233.257 209.685 235.277 209.685 237.296 209.685C237.296 211.71 237.296 213.745 237.296 215.78C237.296 217.815 237.296 219.712 237.296 221.669C235.277 221.669 233.257 221.669 231.238 221.669H225.386C225.386 215.72 225.386 209.754 225.386 203.804C225.386 197.916 225.386 192.027 225.386 186.139H219.535V168.472H213.683C213.683 160.626 213.683 152.763 213.683 144.917C211.732 144.917 209.782 144.926 207.831 144.917V139.028C211.732 139.028 215.633 139.028 219.535 139.028V133.14C215.633 133.14 211.732 133.14 207.831 133.14V127.251H213.683C213.683 125.294 213.683 123.319 213.683 121.362C217.584 121.362 221.485 121.371 225.386 121.362C227.337 121.362 229.287 121.362 231.238 121.362V115.474H237.287V109.378H225.386V103.489H219.535V97.6004H213.683C213.683 101.523 213.683 105.455 213.683 109.378C213.683 111.404 213.683 113.439 213.683 115.474C211.732 115.474 209.782 115.474 207.831 115.474C203.93 115.474 200.029 115.474 196.128 115.474V103.489C200.029 103.489 203.93 103.489 207.831 103.489V97.6004C205.881 97.6004 203.93 97.6004 201.979 97.6004V91.7117H196.128C196.128 93.6688 196.128 95.6432 196.128 97.6004C194.177 97.6004 192.227 97.6004 190.276 97.6004V85.8229C192.227 85.8229 194.177 85.8229 196.128 85.8229V79.9342C188.325 79.917 180.523 79.9515 172.721 79.9342C172.712 77.977 172.721 76.0027 172.721 74.0455H166.869V79.9342C168.82 79.9342 170.77 79.9342 172.721 79.9342C172.73 81.8914 172.721 83.8657 172.721 85.8229C174.672 85.8229 176.622 85.8229 178.573 85.8229V91.7117C176.622 91.7117 174.672 91.7117 172.721 91.7117C170.77 91.7117 168.82 91.7117 166.869 91.7117C166.869 89.7545 166.869 87.7801 166.869 85.8229H161.018C161.018 87.7801 161.018 89.7545 161.018 91.7117C162.968 91.7117 164.919 91.7117 166.869 91.7117C166.869 93.6688 166.869 95.6432 166.869 97.6004C164.919 97.6004 162.968 97.6004 161.018 97.6004C161.018 99.5575 161.018 101.532 161.018 103.489H155.166C155.166 101.532 155.166 99.5575 155.166 97.6004C157.116 97.6004 159.067 97.6004 161.018 97.6004C161.018 95.6432 161.018 93.6688 161.018 91.7117C159.067 91.7117 157.116 91.7117 155.166 91.7117C155.166 89.7545 155.166 87.7801 155.166 85.8229H149.314V91.7117C151.265 91.7117 153.215 91.7117 155.166 91.7117C155.166 93.6688 155.166 95.6432 155.166 97.6004C151.265 97.6004 147.364 97.6004 143.462 97.6004V103.489H149.314V109.378C147.364 109.378 145.413 109.378 143.462 109.378V115.474C143.462 115.767 148.799 115.474 149.314 115.474V121.362H155.166C155.166 119.405 155.166 117.431 155.166 115.474C155.166 113.447 155.166 111.413 155.166 109.378C157.116 109.378 159.067 109.378 161.018 109.378C161.018 107.421 161.018 105.446 161.018 103.489H172.721C172.721 105.446 172.721 107.421 172.721 109.378C172.721 113.37 172.721 117.37 172.721 121.354H178.573V115.465H184.424V109.369C184.424 109.076 179.088 109.369 178.573 109.369V103.48C180.523 103.48 182.474 103.48 184.424 103.48C186.375 103.48 188.325 103.48 190.276 103.48V121.345H196.128C196.42 121.345 196.128 126.716 196.128 127.234H201.979C201.979 129.191 201.979 131.165 201.979 133.122C203.93 133.122 205.881 133.122 207.831 133.122V139.011C205.881 139.011 203.93 139.011 201.979 139.011C201.979 137.054 201.979 135.08 201.979 133.122C200.029 133.122 198.078 133.122 196.128 133.122V127.234C194.177 127.234 192.227 127.234 190.276 127.234C190.276 129.191 190.276 131.165 190.276 133.122C188.325 133.122 186.375 133.122 184.424 133.122V127.234H178.573C178.28 127.234 178.573 132.605 178.573 133.122C174.672 133.122 170.77 133.122 166.869 133.122C162.968 133.122 159.067 133.122 155.166 133.122C153.215 133.122 151.265 133.122 149.314 133.122C149.314 131.165 149.314 129.191 149.314 127.234C147.364 127.234 145.413 127.234 143.462 127.234C143.462 125.277 143.462 123.302 143.462 121.345H137.413V127.234C139.424 127.234 141.452 127.234 143.462 127.234C143.462 129.191 143.462 131.165 143.462 133.122C137.551 133.122 131.622 133.122 125.701 133.122V139.011C123.75 139.011 121.8 139.011 119.849 139.011C117.899 139.011 115.948 139.011 113.998 139.011C113.998 140.968 113.998 142.943 113.998 144.9C113.998 146.857 113.998 148.832 113.998 150.788C113.998 152.746 113.998 154.72 113.998 156.677C112.047 156.677 110.097 156.677 108.146 156.677V150.788H102.294C102.294 152.746 102.294 154.72 102.294 156.677C100.344 156.677 98.3931 156.677 96.4425 156.677V162.566C98.3931 162.566 100.344 162.557 102.294 162.566C102.294 166.489 102.294 170.421 102.294 174.344C102.294 176.301 102.294 178.276 102.294 180.232H96.4425V192.01C98.3931 192.01 100.344 192.001 102.294 192.01C102.294 193.967 102.294 195.941 102.294 197.899C100.344 197.907 98.3931 197.899 96.4425 197.899V203.787H102.294C102.294 201.83 102.294 199.856 102.294 197.899C104.245 197.89 106.195 197.899 108.146 197.899V192.01C106.195 192.01 104.245 192.018 102.294 192.01C102.294 190.053 102.294 188.078 102.294 186.121H108.146C115.948 186.121 123.75 186.13 131.553 186.121C135.514 186.121 139.493 186.13 143.454 186.121C143.454 188.078 143.454 190.053 143.454 192.01C143.454 193.967 143.454 195.941 143.454 197.899H149.306V209.676H143.454C143.454 207.719 143.454 205.745 143.454 203.787H137.404C137.404 205.745 137.404 207.719 137.404 209.676C137.404 211.702 137.404 213.737 137.404 215.772C137.404 217.728 137.404 219.703 137.404 221.66H131.553C131.553 223.618 131.553 225.592 131.553 227.549C129.602 227.549 127.652 227.541 125.701 227.549V221.66H131.553C131.553 219.703 131.553 217.728 131.553 215.772V203.796H125.701V209.685C123.75 209.685 121.8 209.685 119.849 209.685C119.849 207.727 119.849 205.753 119.849 203.796H113.998C113.998 205.753 113.998 207.727 113.998 209.685C112.047 209.685 110.097 209.685 108.146 209.685C108.146 211.71 108.146 213.745 108.146 215.78H102.294C102.294 217.737 102.294 219.712 102.294 221.669C100.344 221.669 98.3931 221.669 96.4425 221.669V209.693C96.4425 209.4 91.1064 209.693 90.5908 209.693C90.5908 205.77 90.5908 201.839 90.5908 197.916H84.7391C84.7391 201.839 84.7391 205.77 84.7391 209.693C84.7305 215.643 84.7391 221.608 84.7391 227.566H90.5908C90.5908 229.523 90.5908 231.498 90.5908 233.455C90.5908 235.412 90.5908 237.387 90.5908 239.344H96.4425C96.4425 241.301 96.4425 243.275 96.4425 245.233C96.4425 247.19 96.4425 249.164 96.4425 251.121H102.294C102.294 253.079 102.294 255.053 102.294 257.01C102.294 258.967 102.294 260.942 102.294 262.899H108.146C108.155 266.821 108.146 270.753 108.146 274.676C108.146 276.634 108.146 278.607 108.146 280.565H96.4425C96.4425 276.642 96.4511 272.711 96.4425 268.788C96.4425 266.83 96.4425 264.856 96.4425 262.899H90.5908C90.5908 260.942 90.5908 258.967 90.5908 257.01C88.6402 257.01 86.6897 257.01 84.7391 257.01V245.233H78.8874C78.8874 243.275 78.896 241.301 78.8874 239.344C78.8788 237.387 78.8874 235.412 78.8874 233.455H73.0357C73.0357 231.498 73.0443 229.523 73.0357 227.566C73.0271 225.61 73.0357 223.635 73.0357 221.677H67.184C67.1754 217.685 67.184 213.685 67.184 209.702C67.184 207.744 67.184 205.77 67.184 203.813C65.2334 203.813 63.2828 203.813 61.3323 203.813C61.3323 201.856 61.3323 199.881 61.3323 197.925C63.2828 197.925 65.2334 197.925 67.184 197.925C67.184 199.881 67.184 201.856 67.184 203.813C69.1346 203.813 71.0851 203.813 73.0357 203.813C73.0357 205.77 73.0357 207.744 73.0357 209.702H78.8874V203.813C76.9368 203.813 74.9863 203.813 73.0357 203.813C73.0357 201.856 73.0357 199.881 73.0357 197.925C74.9863 197.925 76.9368 197.925 78.8874 197.925C78.8874 195.967 78.8874 193.993 78.8874 192.035C78.896 188.113 78.8874 184.181 78.8874 180.258C78.8874 176.335 78.8874 172.404 78.8874 168.481H73.0357C73.0357 166.524 73.0357 164.549 73.0357 162.592C71.0851 162.592 69.1346 162.592 67.184 162.592C67.184 160.635 67.184 158.66 67.184 156.703C67.184 154.746 67.184 152.772 67.184 150.814C67.184 148.857 67.184 146.883 67.184 144.926C65.2334 144.926 63.2828 144.934 61.3323 144.926V139.037H67.184V133.148H61.3323V127.26H67.184C67.184 125.302 67.184 123.328 67.184 121.371C67.184 119.414 67.184 117.439 67.184 115.482H73.0357C73.0357 117.439 73.0357 119.414 73.0357 121.371C74.9863 121.371 76.9368 121.371 78.8874 121.371C80.838 121.371 82.7885 121.371 84.7391 121.371C84.7391 119.414 84.7391 117.439 84.7391 115.482C84.7391 113.456 84.7391 111.421 84.7391 109.386C82.7885 109.386 80.838 109.386 78.8874 109.386V97.609C78.8874 93.6861 78.8788 89.7545 78.8874 85.8316C80.838 85.8229 82.7885 85.8316 84.7391 85.8316C84.7391 83.8744 84.7305 81.9 84.7391 79.9428C86.6897 79.9342 88.6402 79.9428 90.5908 79.9428V74.0541C92.5414 74.0541 94.4919 74.0541 96.4425 74.0541C98.3931 74.0541 100.344 74.0541 102.294 74.0541V68.1654C106.195 68.1567 110.097 68.1654 113.998 68.1654V62.2766H190.267L190.285 62.268ZM143.48 68.1567V74.0455H161.035V68.1567H143.48ZM125.718 74.0455H114.015V79.9342H125.718V74.0455ZM114.015 97.6004V85.8229H102.311V97.6004C104.262 97.6004 106.213 97.6004 108.163 97.6004V103.489C110.114 103.489 112.064 103.489 114.015 103.489V109.378C112.064 109.386 110.114 109.378 108.163 109.378C108.163 111.404 108.163 113.439 108.163 115.474C106.213 115.482 104.262 115.474 102.311 115.474V127.251H108.163C108.163 123.328 108.155 119.396 108.163 115.474C110.114 115.465 112.064 115.474 114.015 115.474C114.015 113.447 114.015 111.413 114.015 109.378C115.965 109.369 117.916 109.378 119.867 109.378V103.489C121.809 103.489 123.768 103.489 125.718 103.489V97.6004C121.817 97.6004 117.916 97.609 114.015 97.6004ZM125.718 85.8229V91.7117H131.57V85.8229H125.718ZM125.718 121.354V127.242H131.57V121.354H125.718ZM96.4597 144.909H102.311V133.131H96.4597V144.909Z" fill="#343736"/>
<path d="M114.015 280.539C114.024 284.462 114.015 288.394 114.015 292.317C115.966 292.317 117.916 292.317 119.867 292.317V298.205C119.867 302.197 119.875 306.198 119.867 310.181C117.916 310.181 115.966 310.181 114.015 310.181C114.015 312.138 114.015 314.112 114.015 316.07H119.867C119.867 314.112 119.867 312.138 119.867 310.181C121.817 310.181 123.768 310.181 125.719 310.181V316.07C127.669 316.07 129.62 316.07 131.57 316.07C131.57 318.027 131.57 320.002 131.57 321.958C133.521 321.958 135.471 321.958 137.422 321.958C137.422 323.916 137.422 325.89 137.422 327.847C139.441 327.847 141.461 327.847 143.48 327.847C153.224 327.873 162.986 327.873 172.738 327.847C174.689 327.847 176.64 327.847 178.59 327.847V321.958C180.541 321.958 182.491 321.958 184.442 321.958C184.442 320.002 184.442 318.027 184.442 316.07H190.294V304.094H196.145C196.145 300.171 196.145 296.24 196.145 292.317C200.046 292.317 203.948 292.317 207.849 292.317V304.094C205.898 304.094 203.948 304.094 201.997 304.094C201.997 308.086 201.997 312.086 201.997 316.079H196.145C196.145 318.035 196.145 320.01 196.145 321.967H190.294C190.294 323.925 190.294 325.898 190.294 327.856C190.294 329.813 190.294 331.788 190.294 333.744H184.442C184.442 335.702 184.442 337.676 184.442 339.633C182.491 339.642 180.541 339.633 178.59 339.633C178.59 341.59 178.59 343.565 178.59 345.522H166.887V351.411H155.183C155.183 355.334 155.183 359.265 155.183 363.188C153.233 363.188 151.282 363.188 149.332 363.188C147.381 363.188 145.43 363.188 143.48 363.188C139.519 363.188 135.54 363.188 131.579 363.188V357.299C129.628 357.299 127.678 357.308 125.727 357.299C125.727 355.342 125.727 353.368 125.727 351.411H119.875C119.867 349.453 119.875 347.479 119.875 345.522C117.925 345.522 115.974 345.53 114.024 345.522C114.024 343.565 114.024 341.59 114.024 339.633H108.172C108.163 337.676 108.172 335.702 108.172 333.744H102.32C102.32 331.788 102.32 329.813 102.32 327.856H108.172C108.172 325.898 108.172 323.925 108.172 321.967C108.172 320.01 108.172 318.035 108.172 316.079C108.172 314.121 108.172 312.147 108.172 310.19H114.024C114.024 308.163 114.024 306.129 114.024 304.094H108.172C108.172 302.136 108.172 300.162 108.172 298.205C106.221 298.205 104.271 298.213 102.32 298.205V286.427C104.271 286.427 106.221 286.427 108.172 286.427C108.172 284.471 108.172 282.496 108.172 280.539C110.123 280.539 112.073 280.539 114.024 280.539H114.015Z" fill="#343736"/>
<path d="M119.867 156.686C119.867 158.643 119.867 160.618 119.867 162.574H114.015C114.015 160.618 114.015 158.643 114.015 156.686H119.867Z" fill="#343736"/>
<path d="M249.008 197.899C249 201.822 249.008 205.753 249.008 209.676C247.058 209.676 245.107 209.676 243.156 209.676C241.206 209.676 239.255 209.676 237.305 209.676C237.305 207.718 237.305 205.745 237.305 203.787C239.255 203.787 241.206 203.787 243.156 203.787C243.156 201.83 243.156 199.855 243.156 197.899C245.107 197.899 247.058 197.899 249.008 197.899Z" fill="#343736"/>
<path d="M213.692 286.427C213.692 288.385 213.692 290.359 213.692 292.317H207.84C207.84 290.359 207.84 288.385 207.84 286.427H213.692Z" fill="#343736"/>
<path d="M201.988 274.65H207.84C207.84 278.573 207.84 282.505 207.84 286.427C205.889 286.427 203.939 286.427 201.988 286.427C201.988 284.471 201.988 282.496 201.988 280.539C201.988 278.582 201.988 276.608 201.988 274.65Z" fill="#343736"/>
<path d="M225.395 203.787C225.395 209.736 225.395 215.703 225.395 221.651C225.395 223.609 225.395 225.583 225.395 227.54H219.543C219.543 221.591 219.526 215.625 219.543 209.676C219.543 207.719 219.543 205.745 219.543 203.787H225.395Z" fill="#796C9D"/>
<path d="M84.7565 351.402C84.7565 353.359 84.7565 355.334 84.7565 357.291C82.8059 357.291 80.8554 357.291 78.9048 357.291C78.9048 355.334 78.9048 353.359 78.9048 351.402H84.7565Z" fill="#43495A"/>
<path d="M55.4978 380.845C55.4978 382.803 55.4978 384.778 55.4978 386.734C55.4978 388.622 55.4978 391.054 55.4978 392.942H108.163C108.198 391.83 108.43 386.734 108.163 386.734H102.311C102.311 384.778 102.311 382.803 102.311 380.845C102.303 376.922 102.311 372.991 102.311 369.068H96.4598V357.291H102.311C102.311 355.334 102.311 353.359 102.311 351.402H96.4598C96.4598 349.445 96.4598 347.471 96.4598 345.513C96.4512 341.59 96.4598 337.659 96.4598 333.736H90.608C90.5994 335.693 90.608 337.667 90.608 339.625C88.6575 339.625 86.7069 339.616 84.7563 339.625C84.7563 341.582 84.7563 343.556 84.7563 345.513C84.7563 347.471 84.7563 349.445 84.7563 351.402C84.7563 353.359 84.7563 355.334 84.7563 357.291C82.8058 357.291 80.8552 357.291 78.9046 357.291C78.9046 359.248 78.9046 361.222 78.9046 363.18C78.9046 365.136 78.9046 367.111 78.9046 369.068C76.9541 369.068 75.0035 369.068 73.0529 369.068C73.0529 371.026 73.0529 373 73.0529 374.957H67.2012V369.068C65.2506 369.068 63.3001 369.068 61.3495 369.068C61.3495 371.026 61.3495 373 61.3495 374.957C61.3495 376.914 61.3495 378.889 61.3495 380.845C59.3989 380.845 57.4484 380.845 55.4978 380.845Z" fill="#343736"/>
<path d="M49.6462 386.734C49.6462 384.778 49.6462 382.803 49.6462 380.845C47.6956 380.845 45.7451 380.845 43.7945 380.845C43.7945 382.803 43.7945 384.778 43.7945 386.734H37.7366C37.7366 388.622 37.7366 391.054 37.7366 392.942H49.6376C49.6376 391.054 49.6376 388.622 49.6376 386.734H49.6462Z" fill="#343736"/>
<path d="M201.988 68.1567V74.0455C200.038 74.0455 198.087 74.0455 196.136 74.0455V68.1567C198.087 68.1567 200.038 68.1567 201.988 68.1567Z" fill="#43495A"/>
<path d="M201.988 62.268V68.1567C200.038 68.1567 198.087 68.1567 196.137 68.1567C194.186 68.1567 192.235 68.1567 190.285 68.1567V62.268H201.988Z" fill="#796C9D"/>
<path d="M201.988 68.1567C203.939 68.1567 205.889 68.1567 207.84 68.1567C207.84 70.1138 207.84 72.0883 207.84 74.0455H201.988V68.1567Z" fill="#796C9D"/>
<path d="M78.9049 180.241C78.9049 184.164 78.9135 188.095 78.9049 192.018H73.0532C73.0532 188.095 73.0532 184.164 73.0532 180.241H78.9049Z" fill="#796C9D"/>
<path d="M108.163 215.772C108.163 217.728 108.163 219.703 108.163 221.66C112.065 221.66 115.966 221.66 119.867 221.66H125.719V227.549C127.669 227.541 129.62 227.549 131.57 227.549C131.57 225.592 131.57 223.618 131.57 221.66H137.422C137.413 231.472 137.422 241.293 137.422 251.104V256.993H131.57V262.881C133.521 262.881 135.471 262.881 137.422 262.881C139.373 262.881 141.461 262.881 143.471 262.881C143.471 264.839 143.471 266.813 143.471 268.77C145.422 268.77 147.372 268.77 149.323 268.77C151.274 268.77 153.224 268.77 155.175 268.77V274.659C153.224 274.659 151.274 274.659 149.323 274.659V280.548C145.362 280.548 141.383 280.548 137.422 280.548C137.422 280.03 137.714 274.659 137.422 274.659H125.719V268.77H119.867V262.881H114.015V251.104H108.163V245.216C106.213 245.216 104.262 245.216 102.312 245.216C102.312 241.293 102.312 237.361 102.312 233.437H114.015C114.024 235.395 114.015 237.37 114.015 239.327H125.719C125.719 237.37 125.719 235.395 125.719 233.437C125.719 231.481 125.719 229.506 125.719 227.549C123.768 227.558 121.817 227.549 119.867 227.549V233.437H114.015C114.007 231.481 114.015 229.506 114.015 227.549C112.065 227.549 110.114 227.549 108.163 227.549C108.163 225.592 108.163 223.618 108.163 221.66C106.213 221.66 104.262 221.66 102.312 221.66C102.312 219.703 102.312 217.728 102.312 215.772H108.163Z" fill="#CECFE9"/>
<path d="M143.48 215.772H155.183C155.183 219.695 155.183 223.626 155.183 227.549C155.183 229.506 155.183 231.481 155.183 233.437C155.183 235.395 155.183 237.37 155.183 239.327C155.183 241.284 155.183 243.258 155.183 245.216C153.233 245.216 151.282 245.216 149.331 245.216C149.331 247.172 149.34 249.147 149.331 251.104H137.43C137.43 241.293 137.422 231.472 137.43 221.66C137.43 219.703 137.43 217.728 137.43 215.772H143.48Z" fill="#796C9D"/>
<path d="M84.7566 209.676C84.7566 205.753 84.7566 201.822 84.7566 197.899H90.6083C90.6083 201.822 90.6083 205.753 90.6083 209.676C91.1239 209.676 96.4599 209.383 96.4599 209.676V221.651C98.4105 221.651 100.361 221.651 102.312 221.651C102.312 223.609 102.312 225.583 102.312 227.54C102.312 229.497 102.312 231.472 102.312 233.429C102.312 237.352 102.312 241.284 102.312 245.207C104.262 245.207 106.213 245.207 108.163 245.207V251.095H114.015V262.873H119.867V268.762H125.718V274.65H137.422C137.714 274.65 137.422 280.021 137.422 280.539C133.521 280.539 129.62 280.539 125.718 280.539C125.718 282.496 125.718 284.471 125.718 286.427C123.768 286.427 121.817 286.427 119.867 286.427V280.539C117.916 280.539 115.966 280.539 114.015 280.539C114.015 278.582 114.015 276.608 114.015 274.65H108.163C108.163 270.727 108.172 266.796 108.163 262.873C108.163 260.916 108.163 258.941 108.163 256.984H102.312C102.312 255.027 102.312 253.053 102.312 251.095C102.312 249.138 102.312 247.164 102.312 245.207C100.361 245.207 98.4105 245.207 96.4599 245.207C96.4599 243.249 96.4599 241.275 96.4599 239.318C96.4599 237.361 96.4599 235.386 96.4599 233.429H90.6083C90.6083 231.472 90.6083 229.497 90.6083 227.54C90.5997 221.591 90.6169 215.625 90.6083 209.676H84.7566Z" fill="#796C9D"/>
<path d="M213.692 168.463H219.543V186.13H225.395C225.395 192.018 225.395 197.907 225.395 203.796H219.543C219.543 205.753 219.543 207.727 219.543 209.685C217.593 209.685 215.642 209.685 213.692 209.685V203.796H207.84V197.907H219.543V192.018H196.136V197.907H219.543V192.018H213.692V186.13C213.692 180.241 213.692 174.353 213.692 168.463Z" fill="#43495A"/>
<path d="M143.48 186.13C145.43 186.13 147.381 186.13 149.331 186.13V180.241H155.183V186.13H161.035V180.241H166.887C166.887 182.198 166.887 184.172 166.887 186.13C166.887 188.087 166.887 190.062 166.887 192.018H161.035C161.035 195.941 161.035 199.873 161.035 203.796H155.183C155.183 199.873 155.183 195.941 155.183 192.018C153.233 192.018 151.282 192.018 149.331 192.018C147.381 192.018 145.43 192.018 143.48 192.018C143.48 190.062 143.48 188.087 143.48 186.13Z" fill="#CECFE9"/>
<path d="M213.692 109.378C213.692 105.455 213.692 101.523 213.692 97.6003H219.543V103.489H225.395V109.378H237.296V115.473H231.247V121.362C229.296 121.362 227.346 121.362 225.395 121.362V115.473C223.445 115.473 221.494 115.473 219.543 115.473V109.378H213.692Z" fill="#43495A"/>
<path d="M61.3499 239.327V233.437H67.2016C67.2016 235.395 67.2016 237.37 67.2016 239.327H78.905C78.9136 241.284 78.905 243.258 78.905 245.216H84.7567V256.993C82.8061 256.993 80.8555 256.993 78.905 256.993C76.9544 256.993 75.0038 256.993 73.0533 256.993V251.104H67.2016C67.2016 249.147 67.2016 247.172 67.2016 245.216C67.2016 243.258 67.2016 241.284 67.2016 239.327H61.3499Z" fill="#43495A"/>
<path d="M172.73 97.6003V103.489H178.581V109.378H172.73C172.73 107.421 172.73 105.446 172.73 103.489H166.878V97.6003C168.828 97.6003 170.779 97.6003 172.73 97.6003Z" fill="#796C9D"/>
<path d="M190.285 85.8229V97.6004C192.235 97.6004 194.186 97.6004 196.137 97.6004C196.137 95.6432 196.137 93.6688 196.137 91.7117H201.988V97.6004C200.038 97.6004 198.087 97.6004 196.137 97.6004C196.137 99.5575 196.137 101.532 196.137 103.489C194.186 103.489 192.235 103.489 190.285 103.489C188.334 103.489 186.384 103.489 184.433 103.489V97.6004C180.532 97.6004 176.631 97.6004 172.73 97.6004V91.7117C174.68 91.7117 176.631 91.7117 178.581 91.7117V85.8229C182.474 85.8316 186.384 85.8316 190.285 85.8229Z" fill="#796C9D"/>
<path d="M201.988 97.6003C203.939 97.6003 205.889 97.6003 207.84 97.6003V103.489C203.939 103.489 200.038 103.489 196.137 103.489V115.473C200.038 115.473 203.939 115.473 207.84 115.473V121.362C209.791 121.362 211.741 121.362 213.692 121.362C213.692 123.319 213.692 125.294 213.692 127.251H207.84V121.362C205.889 121.362 203.939 121.362 201.988 121.362C201.988 123.319 201.988 125.294 201.988 127.251H196.137C196.137 126.734 196.429 121.362 196.137 121.362H190.285V103.498C192.235 103.498 194.186 103.498 196.137 103.498C196.137 101.541 196.137 99.5661 196.137 97.6089C198.087 97.6089 200.038 97.6089 201.988 97.6089V97.6003Z" fill="#43495A"/>
<path d="M108.163 97.6004C106.213 97.6004 104.262 97.6004 102.312 97.6004V85.8229H114.015V97.6004C112.065 97.6004 110.114 97.6004 108.163 97.6004Z" fill="#43495A"/>
<path d="M172.73 79.9341C170.779 79.9341 168.828 79.9341 166.878 79.9341V74.0454H172.73C172.73 76.0026 172.721 77.9769 172.73 79.9341C180.532 79.9514 188.334 79.9169 196.136 79.9341V85.8228C194.186 85.8228 192.235 85.8228 190.285 85.8228C186.384 85.8315 182.482 85.8315 178.581 85.8228C176.631 85.8228 174.68 85.8228 172.73 85.8228C172.73 83.8657 172.738 81.8913 172.73 79.9341Z" fill="#43495A"/>
<path d="M119.867 209.676C121.817 209.676 123.768 209.676 125.718 209.676V203.787H131.57V215.763C127.669 215.763 123.768 215.772 119.867 215.763C119.867 213.737 119.867 211.702 119.867 209.668V209.676Z" fill="#CECFE9"/>
<path d="M178.581 109.378C179.097 109.378 184.433 109.085 184.433 109.378V115.473H178.581V121.362H172.73C172.73 117.37 172.73 113.37 172.73 109.386H178.581V109.378Z" fill="#43495A"/>
<path d="M90.6081 209.676C90.6167 215.625 90.5995 221.591 90.6081 227.541H84.7564C84.765 221.591 84.7478 215.625 84.7564 209.676H90.6081Z" fill="#43495A"/>
<path d="M114.015 209.676C114.015 207.719 114.015 205.745 114.015 203.787H119.867C119.867 205.745 119.867 207.719 119.867 209.676C117.916 209.676 115.966 209.676 114.015 209.676C114.015 211.702 114.015 213.737 114.015 215.772C115.966 215.772 117.916 215.772 119.867 215.772V221.66C115.966 221.66 112.064 221.66 108.163 221.66C108.163 219.703 108.163 217.728 108.163 215.772C108.163 213.745 108.163 211.71 108.163 209.676C110.114 209.676 112.064 209.676 114.015 209.676Z" fill="#43495A"/>
<path d="M143.48 127.242C141.469 127.242 139.441 127.242 137.43 127.242V121.354H143.48C143.48 123.311 143.48 125.285 143.48 127.242C145.43 127.242 147.381 127.242 149.332 127.242C149.332 129.199 149.332 131.174 149.332 133.131C151.282 133.131 153.233 133.131 155.183 133.131V139.02C153.233 139.02 151.282 139.02 149.332 139.02C149.332 137.063 149.332 135.088 149.332 133.131C147.381 133.131 145.43 133.131 143.48 133.131C143.48 135.088 143.48 137.063 143.48 139.02C141.469 139.02 139.441 139.02 137.43 139.02C133.529 139.02 129.628 139.02 125.727 139.02V133.131C131.639 133.131 137.568 133.14 143.48 133.131C143.48 131.174 143.48 129.199 143.48 127.242Z" fill="#43495A"/>
<path d="M161.035 68.1567H143.48V74.0455H161.035V68.1567Z" fill="#43495A"/>
<path d="M149.332 192.01C151.282 192.01 153.233 192.01 155.183 192.01C155.183 195.933 155.183 199.864 155.183 203.787C155.183 205.745 155.183 207.719 155.183 209.676H149.332V192.01Z" fill="#796C9D"/>
<path d="M161.026 91.7116C161.026 93.6688 161.026 95.6431 161.026 97.6003C159.076 97.6003 157.125 97.6003 155.175 97.6003C155.175 95.6431 155.175 93.6688 155.175 91.7116C157.125 91.7116 159.076 91.7116 161.026 91.7116Z" fill="#796C9D"/>
<path d="M155.175 97.6003C155.175 99.5575 155.175 101.532 155.175 103.489C155.175 105.446 155.175 107.421 155.175 109.378C153.224 109.378 151.273 109.378 149.323 109.378V103.489H143.471V97.6003C147.372 97.6003 151.273 97.6003 155.175 97.6003Z" fill="#796C9D"/>
<path d="M114.015 97.6003C117.916 97.6089 121.817 97.6003 125.718 97.6003V103.489C123.768 103.489 121.817 103.489 119.867 103.489C117.916 103.489 115.966 103.489 114.015 103.489C112.064 103.489 110.114 103.489 108.163 103.489V97.6003C110.114 97.6003 112.064 97.6003 114.015 97.6003Z" fill="#796C9D"/>
<path d="M161.026 91.7117C161.026 89.7545 161.026 87.78 161.026 85.8229H166.878C166.878 87.78 166.878 89.7545 166.878 91.7117C168.829 91.7117 170.779 91.7117 172.73 91.7117V97.6004C170.779 97.6004 168.829 97.6004 166.878 97.6004V103.489H161.026C161.026 105.446 161.026 107.421 161.026 109.378C159.076 109.378 157.125 109.378 155.175 109.378C155.175 111.404 155.175 113.439 155.175 115.473H149.323C148.807 115.473 143.471 115.767 143.471 115.473V109.378C145.422 109.378 147.372 109.378 149.323 109.378C151.273 109.378 153.224 109.378 155.175 109.378C155.175 107.421 155.175 105.446 155.175 103.489H161.026C161.026 101.532 161.026 99.5575 161.026 97.6004C162.977 97.6004 164.927 97.6004 166.878 97.6004C166.878 95.6432 166.878 93.6688 166.878 91.7117C164.927 91.7117 162.977 91.7117 161.026 91.7117Z" fill="#43495A"/>
<path d="M172.73 97.6003C176.631 97.6003 180.532 97.6003 184.433 97.6003V103.489C182.483 103.489 180.532 103.489 178.581 103.489H172.73V97.6003Z" fill="#43495A"/>
<path d="M207.84 133.131C211.741 133.131 215.642 133.131 219.543 133.131V139.02C215.642 139.02 211.741 139.02 207.84 139.02V133.131Z" fill="#43495A"/>
<path d="M125.718 74.0454H114.015V79.9341H125.718V74.0454Z" fill="#43495A"/>
<path d="M108.163 274.65H114.015C114.015 276.608 114.015 278.582 114.015 280.539C115.966 280.539 117.916 280.539 119.867 280.539V286.427C121.817 286.427 123.768 286.427 125.718 286.427C125.718 284.471 125.718 282.496 125.718 280.539C129.62 280.539 133.521 280.539 137.422 280.539V286.427C135.471 286.427 133.521 286.427 131.57 286.427C129.62 286.427 127.669 286.427 125.718 286.427V292.317C123.768 292.317 121.817 292.317 119.867 292.317C117.916 292.317 115.966 292.317 114.015 292.317C114.015 288.394 114.024 284.462 114.015 280.539C112.064 280.539 110.114 280.539 108.163 280.539C108.163 278.582 108.163 276.608 108.163 274.65Z" fill="#43495A"/>
<path d="M108.163 280.539C108.163 282.496 108.163 284.471 108.163 286.427C106.213 286.427 104.262 286.427 102.312 286.427C100.361 286.427 98.4105 286.427 96.46 286.427V280.539H108.163Z" fill="#43495A"/>
<path d="M207.84 121.354V133.131C205.889 133.131 203.939 133.131 201.988 133.131C201.988 131.174 201.988 129.199 201.988 127.242C201.988 125.285 201.988 123.311 201.988 121.354C203.939 121.354 205.889 121.354 207.84 121.354Z" fill="#796C9D"/>
<path d="M102.312 156.686C102.312 154.728 102.312 152.754 102.312 150.797H108.163V156.686C106.213 156.686 104.262 156.686 102.312 156.686C102.312 158.643 102.312 160.618 102.312 162.574C104.262 162.584 106.213 162.574 108.163 162.574C108.163 164.532 108.163 166.507 108.163 168.463C108.163 170.421 108.163 172.395 108.163 174.353H102.312C102.312 170.43 102.312 166.498 102.312 162.574C100.361 162.566 98.4105 162.574 96.46 162.574V156.686C98.4105 156.686 100.361 156.686 102.312 156.686Z" fill="#43495A"/>
<path d="M119.867 209.676C119.867 211.702 119.867 213.737 119.867 215.772C123.768 215.78 127.669 215.772 131.57 215.772C131.57 217.728 131.57 219.703 131.57 221.66H119.867V215.772C117.916 215.772 115.965 215.772 114.015 215.772C114.015 213.745 114.015 211.71 114.015 209.676C115.965 209.676 117.916 209.676 119.867 209.676Z" fill="#796C9D"/>
<path d="M108.163 115.465C108.155 119.388 108.163 123.319 108.163 127.242H102.312V115.465C104.262 115.465 106.213 115.473 108.163 115.465Z" fill="#43495A"/>
<path d="M219.543 115.465C221.494 115.465 223.445 115.465 225.395 115.465V121.354C221.494 121.362 217.593 121.354 213.692 121.354C213.692 119.396 213.692 117.422 213.692 115.465C215.642 115.465 217.593 115.465 219.543 115.465Z" fill="#796C9D"/>
<path d="M108.163 174.353V186.13H102.312C102.312 184.172 102.312 182.198 102.312 180.241C102.312 178.284 102.312 176.309 102.312 174.353H108.163Z" fill="#796C9D"/>
<path d="M102.312 180.241C102.312 182.198 102.312 184.172 102.312 186.13C102.312 188.087 102.312 190.062 102.312 192.018C104.262 192.027 106.213 192.018 108.163 192.018V197.907C106.213 197.907 104.262 197.899 102.312 197.907C102.312 199.864 102.312 201.839 102.312 203.796H96.46V197.907C98.4105 197.907 100.361 197.916 102.312 197.907C102.312 195.95 102.312 193.976 102.312 192.018C100.361 192.01 98.4105 192.018 96.46 192.018V180.241H102.312Z" fill="#43495A"/>
<path d="M166.878 133.131V139.02C162.977 139.02 159.076 139.02 155.175 139.02V133.131C159.076 133.131 162.977 133.131 166.878 133.131Z" fill="#796C9D"/>
<path d="M178.581 133.131V139.02C174.68 139.02 170.779 139.02 166.878 139.02V133.131C170.779 133.131 174.68 133.131 178.581 133.131Z" fill="#CECFE9"/>
<path d="M196.137 127.242V133.131C194.186 133.131 192.236 133.131 190.285 133.131C190.285 135.088 190.285 137.063 190.285 139.02C188.334 139.02 186.384 139.02 184.433 139.02C182.483 139.02 180.532 139.02 178.582 139.02V133.131C180.532 133.131 182.483 133.131 184.433 133.131C186.384 133.131 188.334 133.131 190.285 133.131C190.285 131.174 190.285 129.199 190.285 127.242C192.236 127.242 194.186 127.242 196.137 127.242Z" fill="#796C9D"/>
<path d="M73.0532 168.463H78.9049C78.9049 172.386 78.9049 176.318 78.9049 180.241H73.0532C73.0532 178.284 73.0532 176.309 73.0532 174.353C73.0532 172.395 73.0532 170.421 73.0532 168.463Z" fill="#43495A"/>
<path d="M143.48 209.676C143.48 211.702 143.48 213.737 143.48 215.772H137.43C137.43 213.745 137.43 211.71 137.43 209.676H143.48Z" fill="white"/>
<path d="M114.015 109.378C114.015 111.404 114.015 113.439 114.015 115.473C112.064 115.473 110.114 115.465 108.163 115.473C108.163 113.447 108.163 111.413 108.163 109.378C110.114 109.378 112.064 109.386 114.015 109.378Z" fill="#796C9D"/>
<path d="M213.692 109.378H219.543V115.473C217.593 115.473 215.642 115.473 213.692 115.473C213.692 117.431 213.692 119.405 213.692 121.362C211.741 121.362 209.79 121.362 207.84 121.362V115.473C209.79 115.473 211.741 115.473 213.692 115.473C213.692 113.447 213.692 111.413 213.692 109.378Z" fill="#CECFE9"/>
<path d="M137.422 209.676C137.422 207.719 137.422 205.745 137.422 203.787H143.471C143.471 205.745 143.471 207.719 143.471 209.676H137.422Z" fill="#796C9D"/>
<path d="M149.331 209.676V215.772H143.48C143.48 213.745 143.48 211.71 143.48 209.676H149.331Z" fill="#43495A"/>
<path d="M102.312 68.1567V74.0455C100.361 74.0455 98.4105 74.0455 96.46 74.0455V68.1567C98.4105 68.1567 100.361 68.1567 102.312 68.1567Z" fill="#796C9D"/>
<path d="M119.867 62.268V68.1567C117.916 68.1567 115.965 68.1567 114.015 68.1567V62.268C115.965 62.268 117.916 62.268 119.867 62.268Z" fill="#796C9D"/>
<path d="M125.718 62.268V68.1567C123.768 68.1567 121.817 68.1567 119.867 68.1567V62.268C121.817 62.268 123.768 62.268 125.718 62.268Z" fill="#796C9D"/>
<path d="M184.304 62.268V68.1567C182.354 68.1567 180.403 68.1567 178.452 68.1567V62.268C180.403 62.268 182.354 62.268 184.304 62.268Z" fill="#796C9D"/>
<path d="M178.453 62.268V68.1567C176.502 68.1567 174.551 68.1567 172.601 68.1567V62.268C174.551 62.268 176.502 62.268 178.453 62.268Z" fill="#796C9D"/>
<path d="M90.6083 74.0454V79.9341C88.6577 79.9341 86.7072 79.9255 84.7566 79.9341C84.7652 77.9769 84.7566 76.0026 84.7566 74.0454C86.7072 74.0454 88.6577 74.0454 90.6083 74.0454Z" fill="#796C9D"/>
<path d="M131.57 85.8229H125.719V91.7117H131.57V85.8229Z" fill="#43495A"/>
<path d="M155.175 91.7117C153.224 91.7117 151.274 91.7117 149.323 91.7117V85.8229H155.175C155.175 87.78 155.175 89.7545 155.175 91.7117Z" fill="#43495A"/>
<path d="M67.2014 221.66H73.0531C73.0531 223.618 73.0445 225.592 73.0531 227.549H67.2014C67.2014 225.592 67.2014 223.618 67.2014 221.66Z" fill="#43495A"/>
<path d="M67.2012 192.01C67.2012 193.967 67.2012 195.941 67.2012 197.899C69.1518 197.899 71.1024 197.899 73.0529 197.899C73.0529 199.855 73.0529 201.83 73.0529 203.787C75.0035 203.787 76.9541 203.787 78.9046 203.787V209.676H73.0529C73.0529 207.719 73.0529 205.745 73.0529 203.787C71.1024 203.787 69.1518 203.787 67.2012 203.787C67.2012 201.83 67.2012 199.855 67.2012 197.899C65.2506 197.899 63.3001 197.899 61.3495 197.899C61.3495 199.855 61.3495 201.83 61.3495 203.787C63.3001 203.787 65.2506 203.787 67.2012 203.787C67.2012 205.745 67.2012 207.719 67.2012 209.676C65.2506 209.676 63.3001 209.676 61.3495 209.676C61.3495 211.702 61.3495 213.737 61.3495 215.772H55.4978V209.676C57.4484 209.676 59.3989 209.676 61.3495 209.676C61.3495 207.719 61.3495 205.745 61.3495 203.787C59.3989 203.787 57.4484 203.787 55.4978 203.787V192.01C59.3989 192.01 63.3001 192.01 67.2012 192.01Z" fill="#43495A"/>
<path d="M231.247 221.66V227.549C229.296 227.549 227.346 227.549 225.395 227.549C225.395 225.592 225.395 223.618 225.395 221.66H231.247Z" fill="#43495A"/>
<path d="M225.395 227.549V233.438C223.445 233.438 221.494 233.438 219.543 233.438C219.543 231.481 219.543 229.506 219.543 227.549H225.395Z" fill="#43495A"/>
<path d="M90.6082 233.437H96.4599C96.4599 235.395 96.4599 237.37 96.4599 239.327H90.6082C90.6082 237.37 90.6082 235.395 90.6082 233.437Z" fill="#43495A"/>
<path d="M149.331 192.01V197.899H143.48C143.48 195.941 143.48 193.967 143.48 192.01C145.43 192.01 147.381 192.01 149.331 192.01Z" fill="#43495A"/>
<path d="M102.312 245.216C102.312 247.172 102.312 249.147 102.312 251.104H96.46C96.46 249.147 96.46 247.172 96.46 245.216C98.4105 245.216 100.361 245.216 102.312 245.216Z" fill="#43495A"/>
<path d="M102.312 256.984H108.163C108.163 258.941 108.163 260.916 108.163 262.873H102.312C102.312 260.916 102.312 258.941 102.312 256.984Z" fill="#43495A"/>
<path d="M90.6082 262.873H96.4599C96.4599 264.83 96.4599 266.804 96.4599 268.762H90.6082C90.6082 266.804 90.6082 264.83 90.6082 262.873Z" fill="#796C9D"/>
<path d="M102.312 139.02H96.46V144.909H102.312V139.02Z" fill="#43495A"/>
<path d="M102.312 133.131H96.46V139.02H102.312V133.131Z" fill="#CECFE9"/>
<path d="M178.582 133.131C178.582 132.614 178.289 127.242 178.582 127.242H184.433V133.131C182.483 133.131 180.532 133.131 178.582 133.131Z" fill="#43495A"/>
<path d="M131.57 121.354H125.719V127.242H131.57V121.354Z" fill="#796C9D"/>
<path d="M155.175 115.465C155.175 117.422 155.175 119.396 155.175 121.354H149.323V115.465H155.175Z" fill="#796C9D"/>
<path d="M119.867 103.489V109.378C117.916 109.378 115.965 109.369 114.015 109.378V103.489C115.965 103.489 117.916 103.489 119.867 103.489Z" fill="#43495A"/>
<path d="M225.395 233.437V256.993C223.444 256.993 221.494 256.993 219.543 256.993V280.548H213.692C213.692 276.625 213.692 272.693 213.692 268.77H207.84C207.84 266.813 207.84 264.839 207.84 262.881C209.79 262.881 211.741 262.881 213.692 262.881C213.692 258.958 213.692 255.027 213.692 251.104C215.642 251.104 217.593 251.104 219.543 251.104C219.543 247.181 219.543 243.249 219.543 239.327C219.543 237.37 219.543 235.395 219.543 233.437C221.494 233.437 223.444 233.437 225.395 233.437Z" fill="#343736"/>
<path d="M243.157 233.437V251.104C241.206 251.104 239.255 251.104 237.305 251.104C235.294 251.104 233.266 251.104 231.256 251.104H225.404V239.327H231.256V245.216H237.305C237.305 243.258 237.305 241.284 237.305 239.327C237.305 237.37 237.305 235.395 237.305 233.437C239.255 233.437 241.206 233.437 243.157 233.437Z" fill="#CECFE9"/>
<path d="M237.305 233.438C237.305 231.481 237.305 229.506 237.305 227.549H249.008V233.438C247.058 233.438 245.107 233.438 243.156 233.438C241.206 233.438 239.255 233.438 237.305 233.438C237.305 235.395 237.305 237.37 237.305 239.326H231.255C231.255 237.37 231.255 235.395 231.255 233.438C233.275 233.438 235.294 233.438 237.313 233.438H237.305Z" fill="#43495A"/>
<path d="M237.305 251.104C237.305 253.061 237.305 255.035 237.305 256.993C235.294 256.993 233.266 256.993 231.255 256.993V251.104C233.266 251.104 235.294 251.104 237.305 251.104Z" fill="#43495A"/>
<path d="M213.692 316.079V321.967H207.84C207.84 320.01 207.84 318.035 207.84 316.079C209.79 316.079 211.741 316.079 213.692 316.079Z" fill="#CECFE9"/>
<path d="M207.84 321.967C207.84 323.925 207.84 325.898 207.84 327.856H201.988C201.988 325.898 201.988 323.925 201.988 321.967H207.84Z" fill="#43495A"/>
<path d="M243.156 215.772C245.107 215.772 247.058 215.772 249.008 215.772V221.66H243.156C243.156 219.703 243.156 217.728 243.156 215.772Z" fill="#43495A"/>
<path d="M78.9048 357.291C78.9048 359.248 78.9048 361.222 78.9048 363.18H73.053C73.053 365.136 73.053 367.111 73.053 369.068C71.1025 369.068 69.1519 369.068 67.2013 369.068C65.2508 369.068 63.3002 369.068 61.3496 369.068C61.3496 371.026 61.3496 372.999 61.3496 374.957H55.4979C53.5474 374.957 51.5968 374.957 49.6462 374.957C49.6462 376.914 49.6462 378.889 49.6462 380.845C47.6956 380.845 45.7451 380.845 43.7945 380.845C43.7945 382.803 43.7945 384.778 43.7945 386.734H37.7366C37.7366 384.778 37.7366 382.803 37.7366 380.845C39.7473 380.845 41.7752 380.845 43.7859 380.845C43.7859 378.889 43.7859 376.914 43.7859 374.957C45.7365 374.957 47.6871 374.957 49.6376 374.957C49.6376 372.999 49.6376 371.026 49.6376 369.068C51.5882 369.068 53.5388 369.068 55.4893 369.068C57.4399 369.068 59.3905 369.068 61.341 369.068C61.341 367.111 61.341 365.136 61.341 363.18C63.2916 363.18 65.2422 363.18 67.1927 363.18C69.1433 363.18 71.0939 363.18 73.0445 363.18C73.0445 361.222 73.0445 359.248 73.0445 357.291H78.8962H78.9048Z" fill="#CECFE9"/>
<path d="M90.6083 333.736C90.5997 335.693 90.6083 337.667 90.6083 339.625C88.6577 339.625 86.7072 339.616 84.7566 339.625C84.7566 337.667 84.7566 335.693 84.7566 333.736H90.6083Z" fill="#CECFE9"/>
<path d="M84.7565 345.513C84.7565 347.471 84.7565 349.445 84.7565 351.402H78.9048C78.9048 349.445 78.9048 347.471 78.9048 345.513H84.7565Z" fill="#CECFE9"/>
<path d="M102.312 333.736H108.163C108.163 335.693 108.155 337.667 108.163 339.625C108.172 341.582 108.163 343.556 108.163 345.513C110.114 345.513 112.065 345.505 114.015 345.513V351.402H108.163V380.845H102.312C102.303 376.922 102.312 372.991 102.312 369.068H96.46V357.291H102.312C102.312 355.334 102.312 353.359 102.312 351.402C102.312 349.445 102.312 347.471 102.312 345.513C102.312 341.59 102.312 337.659 102.312 333.736Z" fill="#43495A"/>
<path d="M37.7453 380.845C37.7453 382.803 37.7453 384.778 37.7453 386.734C37.7453 388.692 37.7453 390.666 37.7453 392.624H20.1902V386.734H31.8936V380.845C33.8441 380.845 35.7947 380.845 37.7453 380.845Z" fill="#796C9D"/>
<path d="M108.163 316.079C108.163 318.035 108.163 320.01 108.163 321.967C106.213 321.967 104.262 321.967 102.311 321.967C102.311 323.925 102.311 325.898 102.311 327.856C102.311 329.813 102.311 331.788 102.311 333.744C102.311 337.667 102.311 341.599 102.311 345.522H96.4599C96.4513 341.599 96.4599 337.667 96.4599 333.744C96.4599 331.788 96.4599 329.813 96.4599 327.856C96.4599 325.898 96.4599 323.925 96.4599 321.967C98.4104 321.967 100.361 321.967 102.311 321.967C102.311 320.01 102.311 318.035 102.311 316.079H108.163Z" fill="#CECFE9"/>
<path d="M43.803 374.957C43.803 376.914 43.803 378.889 43.803 380.845C41.7923 380.845 39.7644 380.845 37.7537 380.845C37.7537 378.889 37.7537 376.914 37.7537 374.957C39.773 374.957 41.7923 374.957 43.8116 374.957H43.803Z" fill="#43495A"/>
<path d="M55.4979 386.734C55.4979 388.692 55.4979 390.666 55.4979 392.624H49.6462C49.6462 390.666 49.6462 388.692 49.6462 386.734H55.4979Z" fill="#43495A"/>
<path d="M102.312 345.513C102.312 347.471 102.312 349.445 102.312 351.402H96.46C96.46 349.445 96.46 347.471 96.46 345.513H102.312Z" fill="#796C9D"/>
<path d="M78.9049 363.18C78.9049 365.136 78.9049 367.111 78.9049 369.068C76.9544 369.068 75.0038 369.068 73.0532 369.068C73.0532 367.111 73.0532 365.136 73.0532 363.18H78.9049Z" fill="#43495A"/>
<path d="M73.0531 369.068C73.0531 371.026 73.0531 373 73.0531 374.957H67.2014V369.068C69.152 369.068 71.1026 369.068 73.0531 369.068Z" fill="#796C9D"/>
<path d="M61.3497 374.957C61.3497 376.914 61.3497 378.889 61.3497 380.845C59.3991 380.845 57.4485 380.845 55.4979 380.845C55.4979 382.803 55.4979 384.778 55.4979 386.734H49.6462C49.6462 384.778 49.6462 382.803 49.6462 380.845C51.5968 380.845 53.5474 380.845 55.4979 380.845V374.957H61.3497Z" fill="#796C9D"/>
<path d="M201.988 327.848C201.988 329.804 201.988 331.779 201.988 333.736C201.988 335.693 201.988 337.667 201.988 339.625H196.136C196.136 335.702 196.136 331.77 196.136 327.848H201.988Z" fill="#796C9D"/>
<path d="M207.84 380.845H213.692V386.734C211.741 386.734 209.791 386.726 207.84 386.734C207.84 388.692 207.84 390.666 207.84 392.624H201.988C201.988 390.666 201.988 388.692 201.988 386.734C203.939 386.734 205.889 386.743 207.84 386.734C207.84 384.778 207.84 382.803 207.84 380.845Z" fill="#43495A"/>
<path d="M196.137 321.967C196.137 323.925 196.137 325.898 196.137 327.856H190.285C190.285 325.898 190.285 323.925 190.285 321.967H196.137Z" fill="#43495A"/>
<path d="M207.84 327.848C207.84 329.804 207.84 331.779 207.84 333.736H201.988C201.988 331.779 201.988 329.804 201.988 327.848H207.84Z" fill="white"/>
<path d="M190.285 333.736C190.285 335.693 190.285 337.667 190.285 339.625C188.334 339.625 186.384 339.616 184.433 339.625C184.433 337.667 184.433 335.693 184.433 333.736H190.285Z" fill="#796C9D"/>
<path d="M184.433 339.625C184.433 341.582 184.433 343.556 184.433 345.513H178.582C178.582 347.471 178.582 349.445 178.582 351.402C176.631 351.402 174.68 351.402 172.73 351.402C172.73 353.359 172.738 355.334 172.73 357.291C170.779 357.299 168.829 357.291 166.878 357.291V363.18C164.928 363.18 162.977 363.18 161.026 363.18C159.076 363.18 157.125 363.18 155.175 363.18C155.175 365.136 155.175 367.111 155.175 369.068C155.175 371.026 155.175 372.999 155.175 374.957H149.323V363.18C151.274 363.18 153.224 363.18 155.175 363.18C155.175 359.257 155.175 355.325 155.175 351.402H166.878V345.513H178.582C178.582 343.556 178.582 341.582 178.582 339.625C180.532 339.625 182.483 339.633 184.433 339.625Z" fill="#43495A"/>
<path d="M184.433 345.513C184.433 347.471 184.433 349.445 184.433 351.402C182.483 351.402 180.532 351.402 178.581 351.402C178.581 353.359 178.581 355.334 178.581 357.291C176.631 357.291 174.68 357.282 172.73 357.291C172.738 355.334 172.73 353.359 172.73 351.402C174.68 351.402 176.631 351.402 178.581 351.402C178.581 349.445 178.581 347.471 178.581 345.513H184.433Z" fill="#796C9D"/>
<path d="M219.543 351.402C219.543 353.359 219.543 355.334 219.543 357.291H213.692V351.402H219.543Z" fill="#43495A"/>
<path d="M213.692 363.18C213.692 365.136 213.692 367.111 213.692 369.068H207.84V363.18H213.692Z" fill="#796C9D"/>
<path d="M225.395 380.845H231.247C231.247 382.803 231.247 384.778 231.247 386.734H225.395C225.395 384.778 225.395 382.803 225.395 380.845Z" fill="#796C9D"/>
<path d="M213.692 333.736H219.543C219.543 335.693 219.543 337.667 219.543 339.625H213.692C213.692 337.667 213.692 335.693 213.692 333.736Z" fill="#43495A"/>
<path d="M172.73 357.291C172.721 359.248 172.73 361.222 172.73 363.18C170.779 363.18 168.828 363.18 166.878 363.18V357.291C168.828 357.291 170.779 357.299 172.73 357.291Z" fill="#343736"/>
<path d="M161.026 363.18V369.068H155.175C155.175 367.111 155.175 365.136 155.175 363.18C157.125 363.18 159.076 363.18 161.026 363.18Z" fill="#CECFE9"/>
<path d="M155.175 374.957C155.175 376.914 155.175 378.889 155.175 380.845C153.224 380.845 151.274 380.845 149.323 380.845C149.323 378.889 149.323 376.914 149.323 374.957H155.175Z" fill="#CECFE9"/>
<path d="M149.331 363.18V374.957C149.331 376.914 149.331 378.889 149.331 380.845H143.48V363.18C145.43 363.18 147.381 363.18 149.331 363.18Z" fill="white"/>
<path d="M155.175 380.845C155.175 382.803 155.175 384.778 155.175 386.734H149.323C149.323 384.778 149.323 382.803 149.323 380.845C151.274 380.845 153.224 380.845 155.175 380.845Z" fill="#796C9D"/>
<path d="M67.2016 239.326C67.2016 241.284 67.2016 243.258 67.2016 245.216H61.3499C61.3499 243.258 61.3499 241.284 61.3499 239.326H67.2016Z" fill="white"/>
<path d="M178.581 186.13H213.691V192.018H219.543V197.907H213.691V192.018H196.136V197.907H207.84V203.796H213.691V209.685C211.741 209.685 209.79 209.685 207.84 209.685C207.84 211.71 207.84 213.745 207.84 215.78C205.889 215.78 203.939 215.78 201.988 215.78V203.804H196.136V209.693C194.186 209.693 192.235 209.693 190.285 209.693V203.804C188.334 203.804 186.384 203.804 184.433 203.804C182.482 203.804 180.532 203.804 178.581 203.804C176.631 203.804 174.68 203.804 172.73 203.804C172.73 205.762 172.73 207.736 172.73 209.693H161.026C161.026 207.736 161.026 205.762 161.026 203.804C162.977 203.804 164.927 203.804 166.878 203.804C166.878 201.847 166.878 199.873 166.878 197.916H172.73V186.139H178.581V186.13Z" fill="#343736"/>
<path d="M172.73 186.13V197.907H166.878C166.878 195.95 166.878 193.976 166.878 192.018C166.878 190.061 166.878 188.087 166.878 186.13H172.73Z" fill="#43495A"/>
<path d="M155.175 251.104C155.175 253.061 155.175 255.035 155.175 256.993C157.125 256.993 159.076 256.993 161.026 256.993C164.927 257.002 168.829 256.993 172.73 256.993V262.881C170.779 262.881 168.829 262.881 166.878 262.881C164.927 262.881 162.977 262.881 161.026 262.881C161.026 264.839 161.026 266.813 161.026 268.77C159.076 268.77 157.125 268.77 155.175 268.77C153.224 268.77 151.273 268.77 149.323 268.77V262.881C147.372 262.881 145.422 262.881 143.471 262.881V256.993H149.323C149.323 255.035 149.314 253.061 149.323 251.104H155.175Z" fill="#343736"/>
<path d="M149.331 251.104C149.323 253.061 149.331 255.035 149.331 256.993H143.48V262.881C141.469 262.881 139.441 262.881 137.43 262.881V251.104H149.331Z" fill="#43495A"/>
<path d="M149.331 280.539C151.282 280.539 153.233 280.539 155.183 280.539C155.183 282.496 155.183 284.471 155.183 286.427C157.134 286.427 159.084 286.427 161.035 286.427V280.539C162.985 280.539 164.936 280.539 166.887 280.539C170.788 280.539 174.689 280.539 178.59 280.539V286.427C174.689 286.427 170.788 286.427 166.887 286.427C164.936 286.427 162.985 286.427 161.035 286.427V292.317C159.084 292.317 157.134 292.317 155.183 292.317C155.183 290.359 155.183 288.385 155.183 286.427C153.233 286.427 151.282 286.427 149.331 286.427C147.381 286.427 145.43 286.427 143.48 286.427C141.469 286.427 139.441 286.427 137.43 286.427V280.539C141.392 280.539 145.37 280.539 149.331 280.539Z" fill="#343736"/>
<path d="M155.175 274.65C157.125 274.65 159.076 274.65 161.026 274.65C162.977 274.65 164.928 274.65 166.878 274.65V280.539C164.928 280.539 162.977 280.539 161.026 280.539C159.076 280.539 157.125 280.539 155.175 280.539C153.224 280.539 151.274 280.539 149.323 280.539V274.65C151.274 274.65 153.224 274.65 155.175 274.65Z" fill="white"/>
<path d="M119.867 233.437H125.718C125.718 235.395 125.718 237.37 125.718 239.327H114.015C114.015 237.37 114.023 235.395 114.015 233.437H119.867Z" fill="white"/>
<path d="M108.163 227.549V233.438H102.312C102.312 231.481 102.312 229.506 102.312 227.549C104.262 227.549 106.213 227.549 108.163 227.549Z" fill="#343736"/>
<path d="M108.163 227.549C110.114 227.549 112.064 227.549 114.015 227.549C114.015 229.506 114.006 231.481 114.015 233.438H108.163V227.549Z" fill="#796C9D"/>
<path d="M125.718 227.549C125.718 229.506 125.718 231.481 125.718 233.438H119.867V227.549C121.817 227.549 123.768 227.558 125.718 227.549Z" fill="#43495A"/>
<path d="M137.422 256.984V262.873C135.471 262.873 133.521 262.873 131.57 262.873V256.984H137.422Z" fill="white"/>
<path d="M143.48 262.873C145.43 262.873 147.381 262.873 149.331 262.873V268.762C147.381 268.762 145.422 268.762 143.48 268.762C143.48 266.804 143.48 264.83 143.48 262.873Z" fill="#796C9D"/>
<path d="M161.026 268.762V274.65C159.076 274.65 157.125 274.65 155.175 274.65V268.762C157.125 268.762 159.076 268.762 161.026 268.762Z" fill="#43495A"/>
<path d="M184.433 180.241C186.384 180.232 188.334 180.241 190.285 180.241V174.353H196.137V186.13H184.433V180.241Z" fill="#A69FB9"/>
<path d="M143.48 139.02C143.48 140.977 143.48 142.951 143.48 144.909H149.331C149.331 142.951 149.331 140.977 149.331 139.02C151.282 139.02 153.233 139.02 155.183 139.02C159.084 139.02 162.985 139.02 166.886 139.02C170.788 139.02 174.689 139.02 178.59 139.02C180.54 139.02 182.491 139.02 184.442 139.02V156.686H178.59V150.797H172.738V156.686H166.886V162.574H178.59V174.353H184.442C184.734 174.353 184.442 179.724 184.442 180.241C182.491 180.249 180.54 180.241 178.59 180.241V186.13H172.738H166.886C166.886 184.172 166.886 182.198 166.886 180.241H161.035V186.13H155.183V180.241H149.331V186.13C147.381 186.13 145.43 186.13 143.48 186.13C139.518 186.139 135.54 186.13 131.579 186.13V174.353H143.48V168.463H137.43V156.686H143.48V150.797H137.43V139.02C139.441 139.02 141.469 139.02 143.48 139.02Z" fill="#CECFE9"/>
<path d="M125.718 139.02C129.62 139.02 133.521 139.02 137.422 139.02V150.797H143.471V156.686H137.422V168.463H143.471V174.353H131.57V186.13C123.768 186.139 115.966 186.13 108.163 186.13V174.353C110.114 174.353 112.064 174.353 114.015 174.353C117.916 174.353 121.817 174.353 125.718 174.353V168.463C123.768 168.463 121.817 168.463 119.867 168.463V162.574C119.867 160.618 119.867 158.643 119.867 156.686C119.867 154.728 119.867 152.754 119.867 150.797H114.015C114.015 148.84 114.015 146.865 114.015 144.909H119.867V139.02C121.817 139.02 123.768 139.02 125.718 139.02Z" fill="#A69FB9"/>
<path d="M207.84 139.02V144.909C209.791 144.917 211.741 144.909 213.692 144.909C213.692 152.754 213.692 160.618 213.692 168.463C213.692 174.353 213.692 180.241 213.692 186.13H207.84V144.909C205.889 144.9 203.939 144.909 201.988 144.909C201.988 142.951 201.988 140.977 201.988 139.02C203.939 139.02 205.889 139.02 207.84 139.02Z" fill="#A69FB9"/>
<path d="M108.163 156.686C110.114 156.686 112.065 156.686 114.015 156.686C114.015 158.643 114.015 160.618 114.015 162.574H119.867V168.463C117.916 168.463 115.966 168.463 114.015 168.463H108.163C108.163 166.507 108.163 164.532 108.163 162.574C106.213 162.574 104.262 162.584 102.312 162.574C102.312 160.618 102.312 158.643 102.312 156.686C104.262 156.686 106.213 156.686 108.163 156.686Z" fill="#A69FB9"/>
<path d="M114.015 150.797H119.867C119.867 152.754 119.867 154.728 119.867 156.686H114.015C114.015 154.728 114.015 152.754 114.015 150.797Z" fill="#A69FB9"/>
<path d="M119.867 139.02V144.909H114.015C114.015 142.951 114.015 140.977 114.015 139.02C115.965 139.02 117.916 139.02 119.867 139.02Z" fill="#A69FB9"/>
<path d="M190.285 139.02C194.186 139.02 198.087 139.02 201.988 139.02C201.988 140.977 201.988 142.951 201.988 144.909C203.939 144.909 205.889 144.9 207.84 144.909V186.13H196.136V174.353H190.285V180.241C188.334 180.241 186.384 180.232 184.433 180.241C184.433 179.724 184.725 174.353 184.433 174.353H178.581V162.574H166.878V156.686H172.73V150.797H178.581V156.686H184.433V139.02C186.384 139.02 188.334 139.02 190.285 139.02Z" fill="#A69FB9"/>
<path d="M184.433 180.241V186.13H178.582V180.241C180.532 180.241 182.483 180.249 184.433 180.241Z" fill="#A69FB9"/>
<path d="M149.331 139.02C149.331 140.977 149.331 142.951 149.331 144.909H143.48C143.48 142.951 143.48 140.977 143.48 139.02C145.43 139.02 147.381 139.02 149.331 139.02Z" fill="#A69FB9"/>
<path d="M119.867 168.463C121.817 168.463 123.768 168.463 125.718 168.463V174.353C121.817 174.353 117.916 174.353 114.015 174.353V168.463C115.965 168.463 117.916 168.463 119.867 168.463Z" fill="#A69FB9"/>
<path d="M114.015 168.463V174.353C112.064 174.353 110.114 174.353 108.163 174.353C108.163 172.395 108.163 170.421 108.163 168.463H114.015Z" fill="#343736"/>
<path d="M161.026 203.787C161.026 205.745 161.026 207.719 161.026 209.676C161.026 215.625 161.026 221.591 161.026 227.54H155.175C155.175 223.618 155.175 219.686 155.175 215.763C155.175 213.737 155.175 211.702 155.175 209.668C155.175 207.71 155.175 205.736 155.175 203.778H161.026V203.787Z" fill="white"/>
<path d="M161.026 239.326C162.977 239.326 164.928 239.326 166.878 239.326V251.104H161.026C161.026 249.147 161.026 247.172 161.026 245.216C159.076 245.216 157.125 245.216 155.175 245.216C155.175 247.172 155.175 249.147 155.175 251.104H149.323C149.332 249.147 149.323 247.172 149.323 245.216C151.274 245.216 153.224 245.216 155.175 245.216C155.175 243.258 155.175 241.284 155.175 239.326H161.026Z" fill="#CECFE9"/>
<path d="M155.175 209.676C155.175 211.702 155.175 213.737 155.175 215.772H149.323V209.676H155.175Z" fill="#CECFE9"/>
<path d="M161.026 227.549V233.438H155.175C155.175 231.481 155.175 229.506 155.175 227.549H161.026Z" fill="#CECFE9"/>
<path d="M161.026 233.437V239.327H155.175C155.175 237.37 155.175 235.395 155.175 233.437H161.026Z" fill="white"/>
<path d="M190.285 221.66C192.235 221.66 194.186 221.66 196.137 221.66V233.438C194.186 233.438 192.235 233.438 190.285 233.438C190.276 231.481 190.285 229.506 190.285 227.549C188.334 227.549 186.384 227.558 184.433 227.549C184.433 225.592 184.433 223.618 184.433 221.66C186.384 221.66 188.334 221.66 190.285 221.66Z" fill="#CECFE9"/>
<path d="M213.691 209.676C215.642 209.676 217.593 209.676 219.543 209.676C219.526 215.625 219.543 221.591 219.543 227.541C219.543 229.497 219.543 231.472 219.543 233.429C217.593 233.429 215.642 233.429 213.691 233.429C213.691 235.386 213.691 237.361 213.691 239.318C213.691 241.275 213.691 243.249 213.691 245.207H207.84C207.84 247.164 207.84 249.139 207.84 251.095C205.889 251.095 203.939 251.095 201.988 251.095C201.988 255.018 201.988 258.95 201.988 262.873C201.988 264.83 201.988 266.804 201.988 268.762H190.285V274.65H184.433C184.433 276.608 184.433 278.582 184.433 280.539C182.482 280.539 180.532 280.539 178.581 280.539C174.68 280.539 170.779 280.539 166.878 280.539V274.65C164.927 274.65 162.977 274.65 161.026 274.65V268.762C162.977 268.762 164.927 268.762 166.878 268.762V262.873C168.828 262.873 170.779 262.873 172.73 262.873C174.68 262.873 176.631 262.873 178.581 262.873V245.207H172.73C172.73 237.36 172.721 229.497 172.73 221.651H178.581C178.581 223.609 178.581 225.583 178.581 227.541C180.532 227.541 182.482 227.532 184.433 227.541C184.433 229.497 184.433 231.472 184.433 233.429C186.384 233.429 188.334 233.429 190.285 233.429C190.293 235.386 190.285 237.361 190.285 239.318H201.988V233.429H207.84V227.541H213.691V215.763C211.741 215.763 209.79 215.763 207.84 215.763C207.84 213.737 207.84 211.702 207.84 209.668C209.79 209.668 211.741 209.668 213.691 209.668V209.676Z" fill="#CECFE9"/>
<path d="M213.692 192.01V197.899H196.136V192.01H219.543V197.899H207.84H201.988V192.01H213.692Z" fill="#796C9D"/>
<path d="M108.163 221.66C108.163 223.618 108.163 225.592 108.163 227.549C106.213 227.549 104.262 227.549 102.312 227.549C102.312 225.592 102.312 223.618 102.312 221.66C104.262 221.66 106.213 221.66 108.163 221.66Z" fill="white"/>
<path d="M166.878 192.01C166.878 193.967 166.878 195.941 166.878 197.899C166.878 199.855 166.878 201.83 166.878 203.787C164.927 203.787 162.977 203.787 161.026 203.787C161.026 199.864 161.026 195.933 161.026 192.01H166.878Z" fill="#796C9D"/>
<path d="M149.331 133.131C149.331 135.088 149.331 137.063 149.331 139.02C147.381 139.02 145.43 139.02 143.48 139.02C143.48 137.063 143.48 135.088 143.48 133.131C145.43 133.131 147.381 133.131 149.331 133.131Z" fill="#796C9D"/>
<path d="M196.137 133.131C198.087 133.131 200.038 133.131 201.988 133.131C201.988 135.088 201.988 137.063 201.988 139.02C198.087 139.02 194.186 139.02 190.285 139.02C190.285 137.063 190.285 135.088 190.285 133.131C192.235 133.131 194.186 133.131 196.137 133.131Z" fill="#43495A"/>
<path d="M149.331 298.205V304.094C147.381 304.094 145.43 304.094 143.48 304.094V310.19C141.469 310.19 139.441 310.19 137.43 310.19C135.42 310.19 133.529 310.19 131.579 310.19C131.579 312.147 131.579 314.121 131.579 316.079C133.529 316.079 135.48 316.079 137.43 316.079C137.43 318.035 137.43 320.01 137.43 321.967C139.45 321.967 141.469 321.967 143.488 321.967V327.856C141.469 327.856 139.45 327.856 137.43 327.856C137.43 325.899 137.43 323.925 137.43 321.967C135.48 321.967 133.529 321.967 131.579 321.967C131.579 320.01 131.579 318.035 131.579 316.079C129.628 316.079 127.678 316.079 125.727 316.079V310.19C123.776 310.19 121.826 310.19 119.875 310.19C119.884 306.198 119.875 302.197 119.875 298.213H149.331V298.205Z" fill="#43495A"/>
<path d="M201.988 280.539C201.988 282.496 201.988 284.471 201.988 286.427C203.939 286.427 205.889 286.427 207.84 286.427C207.84 288.385 207.84 290.359 207.84 292.317C203.939 292.317 200.038 292.317 196.136 292.317C196.136 296.24 196.136 300.171 196.136 304.094H190.285V316.07H184.433C184.433 314.113 184.433 312.139 184.433 310.181C182.482 310.181 180.532 310.19 178.581 310.181C176.631 310.172 174.68 310.181 172.73 310.181V304.085C170.779 304.085 168.828 304.085 166.878 304.085V298.196C170.779 298.196 174.68 298.196 178.581 298.196C180.532 298.196 182.482 298.196 184.433 298.196C186.384 298.196 188.334 298.196 190.285 298.196C190.285 296.24 190.285 294.265 190.285 292.308C192.235 292.308 194.186 292.308 196.136 292.308C196.136 288.385 196.136 284.454 196.136 280.531H201.988V280.539Z" fill="#43495A"/>
<path d="M213.692 292.317C213.692 294.273 213.692 296.248 213.692 298.205H207.84V292.317H213.692Z" fill="#43495A"/>
<path d="M219.543 239.326C219.543 243.249 219.543 247.181 219.543 251.104C217.593 251.104 215.642 251.104 213.692 251.104C213.692 255.027 213.692 258.958 213.692 262.881C211.741 262.881 209.791 262.881 207.84 262.881C207.84 264.839 207.84 266.813 207.84 268.77H213.692C213.692 272.693 213.692 276.625 213.692 280.548C213.692 282.505 213.692 284.479 213.692 286.436H207.84C207.84 282.513 207.84 278.582 207.84 274.659H201.988C201.988 272.702 201.988 270.727 201.988 268.77C201.988 266.813 201.988 264.839 201.988 262.881H207.84C207.831 258.958 207.831 255.027 207.84 251.104C209.791 251.104 211.741 251.104 213.692 251.104C213.692 249.147 213.692 247.172 213.692 245.216C213.692 243.258 213.692 241.284 213.692 239.326H219.543Z" fill="#43495A"/>
<path d="M108.163 304.094H114.015C114.015 306.12 114.015 308.155 114.015 310.19H108.163C108.163 308.163 108.163 306.129 108.163 304.094Z" fill="white"/>
<path d="M119.867 310.19C119.867 312.147 119.867 314.121 119.867 316.079H114.015C114.015 314.121 114.015 312.147 114.015 310.19C115.965 310.19 117.916 310.19 119.867 310.19Z" fill="#796C9D"/>
<path d="M108.163 321.967C108.163 323.925 108.163 325.898 108.163 327.856H102.312C102.312 325.898 102.312 323.925 102.312 321.967C104.262 321.967 106.213 321.967 108.163 321.967Z" fill="#CECFE9"/>
<path d="M219.543 233.437C219.543 235.395 219.543 237.37 219.543 239.327H213.692C213.692 237.37 213.692 235.395 213.692 233.437C215.642 233.437 217.593 233.437 219.543 233.437Z" fill="#796C9D"/>
<path d="M55.4979 374.957V380.845C53.5474 380.845 51.5968 380.845 49.6462 380.845C49.6462 378.889 49.6462 376.914 49.6462 374.957C51.5968 374.957 53.5474 374.957 55.4979 374.957Z" fill="#43495A"/>
<path d="M201.988 268.762C201.988 270.719 201.988 272.693 201.988 274.65C201.988 276.608 201.988 278.582 201.988 280.539H196.137C196.137 284.462 196.137 288.394 196.137 292.317C194.186 292.317 192.235 292.317 190.285 292.317C190.285 294.273 190.285 296.248 190.285 298.205C188.334 298.205 186.384 298.205 184.433 298.205V292.317C186.384 292.317 188.334 292.317 190.285 292.317C190.285 290.359 190.285 288.385 190.285 286.427C190.285 284.471 190.285 282.496 190.285 280.539C188.334 280.539 186.384 280.539 184.433 280.539C184.433 282.496 184.433 284.471 184.433 286.427V292.317C182.483 292.317 180.532 292.317 178.581 292.317V298.205C174.689 298.205 170.779 298.205 166.878 298.205C161.026 298.205 155.175 298.205 149.323 298.205H119.867V292.317C121.817 292.317 123.768 292.317 125.718 292.317C127.669 292.317 129.62 292.317 131.57 292.317V286.427C133.521 286.427 135.471 286.427 137.422 286.427C139.433 286.427 141.46 286.427 143.471 286.427V292.317H149.323V286.427C151.273 286.427 153.224 286.427 155.175 286.427C155.175 288.385 155.175 290.359 155.175 292.317C157.125 292.317 159.076 292.317 161.026 292.317C162.977 292.317 164.927 292.317 166.878 292.317V286.427C170.779 286.427 174.68 286.427 178.581 286.427V280.539C180.532 280.539 182.483 280.539 184.433 280.539C184.433 278.582 184.433 276.608 184.433 274.65H190.285V268.762H201.988Z" fill="#796C9D"/>
<path d="M178.581 203.787V209.676H172.73C172.721 213.668 172.73 217.668 172.73 221.651C172.721 229.497 172.73 237.361 172.73 245.207V251.095H166.878V239.318C164.927 239.318 162.977 239.318 161.026 239.318V227.54C161.026 221.591 161.026 215.625 161.026 209.676H172.73C172.73 207.719 172.73 205.745 172.73 203.787C174.68 203.787 176.631 203.787 178.581 203.787Z" fill="#796C9D"/>
<path d="M184.433 203.787V209.676C186.384 209.676 188.334 209.676 190.285 209.676C192.236 209.676 194.186 209.676 196.137 209.676V203.787H201.988V215.763C198.087 215.763 194.186 215.763 190.285 215.763C188.334 215.763 186.384 215.763 184.433 215.763V209.668C182.483 209.668 180.532 209.668 178.582 209.668V203.778C180.532 203.778 182.483 203.778 184.433 203.778V203.787Z" fill="#CECFE9"/>
<path d="M201.988 192.01H196.136V197.899H201.988V192.01Z" fill="#43495A"/>
<path d="M184.433 203.787C186.384 203.787 188.334 203.787 190.285 203.787V209.676C188.334 209.676 186.384 209.676 184.433 209.676V203.787Z" fill="#796C9D"/>
<path d="M207.84 215.772C207.84 217.728 207.84 219.703 207.84 221.66C205.889 221.66 203.939 221.66 201.988 221.66V215.772C203.939 215.772 205.889 215.772 207.84 215.772Z" fill="#796C9D"/>
<path d="M172.73 245.216H178.581V262.881C176.631 262.881 174.68 262.881 172.73 262.881V245.216Z" fill="white"/>
<path d="M166.878 251.104H172.73V256.993C168.828 256.993 164.927 257.002 161.026 256.993C161.026 255.035 161.026 253.061 161.026 251.104H166.878Z" fill="#43495A"/>
<path d="M161.026 251.104C161.026 253.061 161.026 255.035 161.026 256.993C159.076 256.993 157.125 256.993 155.175 256.993C155.175 255.035 155.175 253.061 155.175 251.104H161.026Z" fill="#796C9D"/>
<path d="M166.878 262.873V268.762C164.927 268.762 162.977 268.762 161.026 268.762C161.026 266.804 161.026 264.83 161.026 262.873C162.977 262.873 164.927 262.873 166.878 262.873Z" fill="#796C9D"/>
<path d="M161.026 280.539V286.427C159.076 286.427 157.125 286.427 155.175 286.427C155.175 284.471 155.175 282.496 155.175 280.539C157.125 280.539 159.076 280.539 161.026 280.539Z" fill="#43495A"/>
<path d="M149.331 286.427V292.317H143.48V286.427C145.43 286.427 147.381 286.427 149.331 286.427Z" fill="#CECFE9"/>
<path d="M155.175 245.216C157.125 245.216 159.076 245.216 161.026 245.216C161.026 247.172 161.026 249.147 161.026 251.104H155.175C155.175 249.147 155.175 247.172 155.175 245.216Z" fill="white"/>
<path d="M131.57 286.427V292.317C129.62 292.317 127.669 292.317 125.719 292.317V286.427C127.669 286.427 129.62 286.427 131.57 286.427Z" fill="#CECFE9"/>
<path d="M184.433 227.549C186.384 227.558 188.334 227.549 190.285 227.549C190.285 229.506 190.276 231.481 190.285 233.437C188.334 233.437 186.384 233.437 184.433 233.437C184.433 231.481 184.433 229.506 184.433 227.549Z" fill="white"/>
<path d="M207.84 215.772C209.791 215.772 211.741 215.772 213.692 215.772V227.549H207.84V233.437H201.988V239.327H190.285C190.285 237.37 190.294 235.395 190.285 233.437C192.235 233.437 194.186 233.437 196.137 233.437V221.66C198.087 221.66 200.038 221.66 201.988 221.66C203.939 221.66 205.889 221.66 207.84 221.66C207.84 219.703 207.84 217.728 207.84 215.772Z" fill="white"/>
<path d="M178.582 209.676C180.532 209.676 182.483 209.676 184.433 209.676V215.772C182.483 215.772 180.532 215.772 178.582 215.772C178.582 217.728 178.582 219.703 178.582 221.66H184.433C184.433 223.618 184.433 225.592 184.433 227.549C182.483 227.54 180.532 227.549 178.582 227.549C178.582 225.592 178.582 223.618 178.582 221.66H172.73C172.73 217.668 172.721 213.668 172.73 209.685H178.582V209.676Z" fill="white"/>
<path d="M213.692 245.216C213.692 247.172 213.692 249.147 213.692 251.104C211.741 251.104 209.791 251.104 207.84 251.104C207.831 255.027 207.831 258.958 207.84 262.881H201.988C201.988 258.958 201.988 255.027 201.988 251.104C203.939 251.104 205.889 251.104 207.84 251.104C207.84 249.147 207.84 247.172 207.84 245.216H213.692Z" fill="#796C9D"/>
<path d="M166.878 298.205V304.094C161.026 304.077 155.175 304.077 149.323 304.094V298.205C155.175 298.205 161.026 298.205 166.878 298.205Z" fill="#343736"/>
<path d="M190.285 286.427C190.285 288.385 190.285 290.359 190.285 292.317C188.334 292.317 186.384 292.317 184.433 292.317V286.427H190.285Z" fill="#CECFE9"/>
<path d="M184.433 292.317V298.205C182.483 298.205 180.532 298.205 178.582 298.205V292.317C180.532 292.317 182.483 292.317 184.433 292.317Z" fill="#CECFE9"/>
<path d="M137.422 310.19V316.079C141.383 316.079 145.362 316.079 149.323 316.079C149.323 318.035 149.323 320.01 149.323 321.967H155.175V316.079C157.125 316.079 159.076 316.079 161.026 316.079V321.967C164.927 321.967 168.829 321.967 172.73 321.967C172.73 320.01 172.73 318.035 172.73 316.079H178.581V310.19C180.532 310.198 182.482 310.19 184.433 310.19C184.433 312.147 184.433 314.121 184.433 316.079C184.433 318.035 184.433 320.01 184.433 321.967C182.482 321.967 180.532 321.967 178.581 321.967C176.631 321.967 174.68 321.967 172.73 321.967C172.73 323.925 172.73 325.899 172.73 327.856C162.985 327.882 153.224 327.882 143.471 327.856V321.967C141.46 321.967 139.432 321.967 137.422 321.967C137.422 320.01 137.422 318.035 137.422 316.079C135.471 316.079 133.521 316.079 131.57 316.079C131.57 314.121 131.57 312.147 131.57 310.19C133.521 310.19 135.471 310.19 137.422 310.19Z" fill="#796C9D"/>
<path d="M178.581 321.967V327.856C176.631 327.856 174.68 327.856 172.73 327.856C172.73 325.898 172.73 323.925 172.73 321.967C174.68 321.967 176.631 321.967 178.581 321.967Z" fill="#43495A"/>
<path d="M149.331 304.094C149.331 308.086 149.323 312.086 149.331 316.07C151.282 316.07 153.233 316.07 155.183 316.07V321.958H149.331C149.331 320.002 149.331 318.027 149.331 316.07C145.37 316.07 141.392 316.07 137.43 316.07V310.181C139.441 310.181 141.469 310.181 143.48 310.181V304.085C145.43 304.085 147.381 304.085 149.331 304.085V304.094Z" fill="#CECFE9"/>
<path d="M166.878 304.094C168.828 304.094 170.779 304.094 172.73 304.094V310.19C174.68 310.19 176.631 310.181 178.581 310.19V316.079H172.73C172.73 318.035 172.73 320.01 172.73 321.967C168.828 321.967 164.927 321.967 161.026 321.967V316.079C162.977 316.079 164.936 316.079 166.878 316.079C166.878 312.086 166.878 308.086 166.878 304.094Z" fill="#CECFE9"/>
<path d="M166.878 304.094C166.878 308.086 166.878 312.086 166.878 316.079C164.927 316.079 162.977 316.079 161.026 316.079C159.076 316.079 157.125 316.079 155.175 316.079C153.224 316.079 151.273 316.079 149.323 316.079C149.314 312.086 149.323 308.086 149.323 304.103C155.175 304.085 161.026 304.085 166.878 304.103V304.094Z" fill="white"/>
<path d="M184.433 280.539C186.384 280.539 188.334 280.539 190.285 280.539C190.285 282.496 190.285 284.471 190.285 286.427H184.433C184.433 284.471 184.433 282.496 184.433 280.539Z" fill="#43495A"/>
<path d="M166.878 286.427V292.317C164.927 292.317 162.977 292.317 161.026 292.317V286.427C162.977 286.427 164.927 286.427 166.878 286.427Z" fill="#CECFE9"/>
<path d="M184.433 215.772C186.384 215.772 188.334 215.772 190.285 215.772V221.66C188.334 221.66 186.384 221.66 184.433 221.66H178.582C178.582 219.703 178.582 217.728 178.582 215.772C180.532 215.772 182.483 215.772 184.433 215.772Z" fill="#796C9D"/>
<path d="M201.988 215.772V221.66C200.038 221.66 198.087 221.66 196.137 221.66C194.186 221.66 192.235 221.66 190.285 221.66V215.772C194.186 215.772 198.087 215.772 201.988 215.772Z" fill="#43495A"/>
<path d="M55.4981 139.02C55.4981 140.977 55.4981 142.951 55.4981 144.909C57.4487 144.909 59.3992 144.9 61.3498 144.909C63.3004 144.917 65.2509 144.909 67.2015 144.909C67.2015 146.865 67.2015 148.84 67.2015 150.797H61.3498C61.3498 152.754 61.3498 154.728 61.3498 156.686C63.3004 156.686 65.2509 156.686 67.2015 156.686C67.2015 158.643 67.2015 160.618 67.2015 162.574C69.1521 162.574 71.1027 162.574 73.0532 162.574C73.0532 164.532 73.0532 166.507 73.0532 168.463C73.0532 170.421 73.0532 172.395 73.0532 174.353H67.2015C67.2015 172.395 67.2015 170.421 67.2015 168.463C67.2015 166.507 67.2015 164.532 67.2015 162.574C65.2509 162.574 63.3004 162.574 61.3498 162.574C61.3498 160.618 61.3498 158.643 61.3498 156.686C59.3992 156.686 57.4487 156.686 55.4981 156.686V150.797C53.5475 150.797 51.597 150.805 49.6464 150.797C49.6464 146.874 49.6378 142.943 49.6464 139.02H55.4981Z" fill="#CECFE9"/>
<path d="M67.2013 109.378C67.2013 111.404 67.2013 113.439 67.2013 115.473C67.2013 117.431 67.2013 119.405 67.2013 121.362H61.3496V109.386C63.3002 109.386 65.2507 109.386 67.2013 109.386V109.378Z" fill="white"/>
<path d="M61.3495 121.354V144.909C59.3989 144.9 57.4484 144.909 55.4978 144.909C55.4978 142.951 55.4978 140.977 55.4978 139.02C55.4978 137.063 55.4978 135.088 55.4978 133.131C55.4978 129.208 55.4978 125.276 55.4978 121.354H61.3495Z" fill="white"/>
<path d="M78.9049 109.378C80.8555 109.378 82.8061 109.378 84.7566 109.378C84.7566 111.404 84.7566 113.439 84.7566 115.473H73.0532C73.0532 113.447 73.0532 111.413 73.0532 109.378H78.9049Z" fill="white"/>
<path d="M73.0531 103.489C73.0531 105.446 73.0531 107.421 73.0531 109.378C73.0531 111.335 73.0531 113.439 73.0531 115.473H67.2014C67.2014 113.447 67.2014 111.413 67.2014 109.378C67.2014 107.343 67.2014 105.446 67.2014 103.489H73.0531Z" fill="#CECFE9"/>
<path d="M78.9048 85.8229C78.8962 89.7459 78.9048 93.6774 78.9048 97.6004C76.9543 97.6004 75.0037 97.6004 73.0531 97.6004C73.0531 99.5575 73.0531 101.532 73.0531 103.489H67.2014C67.2014 101.532 67.2014 99.5575 67.2014 97.6004C69.152 97.6004 71.1026 97.6004 73.0531 97.6004C73.0531 93.6774 73.0531 89.7459 73.0531 85.8229C75.0037 85.8229 76.9543 85.8316 78.9048 85.8229Z" fill="white"/>
<path d="M84.7565 79.9341C84.7479 81.8913 84.7565 83.8657 84.7565 85.8228C82.8059 85.8228 80.8554 85.8142 78.9048 85.8228C78.9048 83.8657 78.9048 81.8913 78.9048 79.9341C80.8554 79.9341 82.8059 79.9427 84.7565 79.9341Z" fill="#CECFE9"/>
<path d="M78.9049 97.6003V103.489H73.0532C73.0532 101.532 73.0532 99.5575 73.0532 97.6003C75.0038 97.6003 76.9544 97.6003 78.9049 97.6003Z" fill="#796C9D"/>
<path d="M78.9049 192.01C78.9049 193.967 78.9049 195.941 78.9049 197.899C76.9544 197.899 75.0038 197.899 73.0532 197.899C73.0532 195.941 73.0532 193.967 73.0532 192.01H78.9049Z" fill="white"/>
<path d="M73.0531 174.353C73.0531 176.309 73.0531 178.284 73.0531 180.241C73.0531 184.164 73.0531 188.095 73.0531 192.018C71.1026 192.018 69.152 192.018 67.2014 192.018C67.2014 186.13 67.2014 180.241 67.2014 174.353H73.0531Z" fill="white"/>
<path d="M67.2013 150.797C67.2013 152.754 67.2013 154.728 67.2013 156.686C65.2507 156.686 63.3002 156.686 61.3496 156.686C61.3496 154.728 61.3496 152.754 61.3496 150.797H67.2013Z" fill="white"/>
<path d="M67.2013 133.131H61.3496V139.02H67.2013V133.131Z" fill="#43495A"/>
<path d="M67.2013 121.354C67.2013 123.311 67.2013 125.285 67.2013 127.242H61.3496V121.354H67.2013Z" fill="#CECFE9"/>
<path d="M61.3495 115.465V121.354H55.4978C55.4978 119.396 55.4978 117.422 55.4978 115.465H61.3495Z" fill="#CECFE9"/>
<path d="M84.7565 115.465C84.7565 117.422 84.7565 119.396 84.7565 121.354C82.8059 121.354 80.8554 121.354 78.9048 121.354V115.465H84.7565Z" fill="#43495A"/>
<path d="M78.9049 115.465V121.354C76.9544 121.354 75.0038 121.354 73.0532 121.354C73.0532 119.396 73.0532 117.422 73.0532 115.465H78.9049Z" fill="#796C9D"/>
<path d="M78.9049 103.489V109.378H73.0532C73.0532 107.421 73.0532 105.446 73.0532 103.489H78.9049Z" fill="#43495A"/>
<path d="M61.3495 109.378V115.473H55.4978C55.4978 113.447 55.4978 111.413 55.4978 109.378C57.4484 109.378 59.3989 109.378 61.3495 109.378Z" fill="#343736"/>
<path d="M55.4978 133.131C55.4978 135.088 55.4978 137.063 55.4978 139.02H49.646C49.646 137.063 49.646 135.088 49.646 133.131H55.4978Z" fill="#796C9D"/>
<path d="M67.2013 162.574C67.2013 164.532 67.2013 166.507 67.2013 168.463H61.3496C61.3496 166.507 61.3496 164.532 61.3496 162.574C63.3002 162.574 65.2507 162.574 67.2013 162.574Z" fill="white"/>
<path d="M225.395 392.95C225.395 391.054 225.395 388.631 225.395 386.734C225.395 384.778 225.395 382.803 225.395 380.845C225.369 365.145 225.412 349.436 225.395 333.736C227.346 333.736 229.296 333.736 231.247 333.736C231.247 331.779 231.247 329.804 231.247 327.847H225.395V321.958H219.543V316.07H213.692V321.958C213.692 325.881 213.683 329.813 213.692 333.736H219.543C219.543 335.693 219.543 337.667 219.543 339.625C219.552 343.548 219.552 347.479 219.543 351.402C219.543 353.359 219.543 355.334 219.543 357.291H213.692C213.692 359.248 213.692 361.222 213.692 363.18C213.692 365.136 213.692 367.111 213.692 369.068C213.692 371.026 213.692 372.999 213.692 374.957H207.84C207.84 376.914 207.84 378.889 207.84 380.845H213.692V386.734C211.741 386.734 209.79 386.726 207.84 386.734C207.84 388.631 207.84 391.054 207.84 392.95H225.395Z" fill="#343736"/>
<path d="M225.395 392.425H231.247C231.247 390.528 231.247 388.631 231.247 386.734H225.395C225.395 388.631 225.395 390.528 225.395 392.425Z" fill="#43495A"/>
<path d="M225.395 380.845H231.247C231.247 382.803 231.247 384.778 231.247 386.734H237.296V374.957H243.148V369.068H237.296V363.18H243.148V357.291H237.296V351.402H231.247C231.238 345.513 231.264 339.625 231.247 333.736C229.296 333.736 227.346 333.736 225.395 333.736C225.412 349.436 225.369 365.145 225.395 380.845Z" fill="#43495A"/>
<path d="M201.988 392.425C201.988 390.528 201.988 388.631 201.988 386.734C203.939 386.734 205.89 386.743 207.84 386.734C207.84 384.778 207.84 382.803 207.84 380.845C207.84 378.889 207.84 376.914 207.84 374.957H213.692C213.692 373 213.692 371.026 213.692 369.068H207.84V363.18H213.692C213.692 361.222 213.692 359.248 213.692 357.291V351.402C211.741 351.402 209.791 351.402 207.84 351.402C207.84 345.513 207.84 339.625 207.84 333.736H201.988C201.988 335.693 201.988 337.667 201.988 339.625H196.137C196.137 335.702 196.137 331.77 196.137 327.848H190.285C190.285 329.804 190.285 331.779 190.285 333.736C190.285 335.693 190.285 337.667 190.285 339.625C188.334 339.625 186.384 339.616 184.433 339.625C184.433 341.582 184.433 343.556 184.433 345.513C184.433 347.471 184.433 349.445 184.433 351.402C184.433 353.359 184.433 355.334 184.433 357.291H190.285V363.18H184.433C184.433 367.103 184.425 371.034 184.433 374.957H190.285V380.845H184.433C184.433 378.889 184.433 376.914 184.433 374.957C182.483 374.957 180.532 374.957 178.582 374.957V392.425H201.988Z" fill="#CECFE9"/>
<path d="M201.988 321.967C201.988 320.01 201.988 318.035 201.988 316.079H196.136C196.136 318.035 196.136 320.01 196.136 321.967C196.136 323.925 196.136 325.898 196.136 327.856H201.988C201.988 325.898 201.988 323.925 201.988 321.967Z" fill="#CECFE9"/>
<path d="M161.026 392.95V380.845C159.076 380.845 157.125 380.845 155.175 380.845C155.175 382.803 155.175 384.778 155.175 386.734H149.323C149.323 384.778 149.323 382.803 149.323 380.845H143.471V392.95H161.026Z" fill="#343736"/>
<path d="M184.433 380.845H190.285V374.957H184.433C184.433 376.914 184.433 378.889 184.433 380.845Z" fill="white"/>
<path d="M161.026 380.845V392.416H178.581V374.948C180.532 374.948 182.483 374.948 184.433 374.948C184.424 371.026 184.433 367.094 184.433 363.171H190.285V357.282H184.433C184.433 355.325 184.433 353.35 184.433 351.394C182.483 351.394 180.532 351.394 178.581 351.394C178.581 353.35 178.581 355.325 178.581 357.282C176.631 357.282 174.68 357.273 172.73 357.282C172.721 359.24 172.73 361.214 172.73 363.171C170.779 363.171 168.829 363.171 166.878 363.171C164.927 363.171 162.977 363.171 161.026 363.171V369.059H155.175C155.175 371.017 155.175 372.991 155.175 374.948C155.175 376.905 155.175 378.88 155.175 380.837C157.125 380.837 159.076 380.837 161.026 380.837V380.845Z" fill="white"/>
<path d="M119.867 363.18V386.734H125.718V392.425H143.471V363.188C139.51 363.188 135.531 363.188 131.57 363.188V357.299C129.62 357.299 127.669 357.308 125.718 357.299V363.188H119.867V363.18Z" fill="#CECFE9"/>
<path d="M125.718 357.291C125.718 355.334 125.718 353.359 125.718 351.402H119.867C119.875 353.359 119.867 355.334 119.867 357.291C121.817 357.291 123.768 357.282 125.718 357.291Z" fill="#CECFE9"/>
<path d="M108.163 386.734C108.43 386.734 108.206 391.313 108.163 392.425H125.71V386.734H119.858V363.18H125.71V357.291C123.759 357.282 121.809 357.291 119.858 357.291C119.858 355.334 119.867 353.359 119.858 351.402C119.85 349.445 119.858 347.471 119.858 345.513C117.908 345.513 115.957 345.522 114.006 345.513V351.402H108.155V380.845H102.303C102.303 382.803 102.303 384.778 102.303 386.734H108.155H108.163Z" fill="#796C9D"/>
<path d="M114.015 339.625H108.163C108.172 341.582 108.163 343.556 108.163 345.513C110.114 345.513 112.064 345.505 114.015 345.513C114.015 343.556 114.015 341.582 114.015 339.625Z" fill="#796C9D"/>
<path d="M289.867 380.725V380.794H289.936L289.867 380.725Z" fill="#343736"/>
<path d="M295.916 392.89V386.58H289.858V380.794H284.11V374.776H272.329V368.991L272.303 368.965H266.555V363.18H260.703V357.291H254.851L254.972 351.402H249.008V345.513H243.157V339.625H237.305V333.736C235.294 333.736 233.266 333.736 231.255 333.736C231.273 339.625 231.247 345.513 231.255 351.402H237.305V357.291H243.157V363.18H237.305V369.068H243.157V374.957H237.305V386.734H231.255C231.255 388.622 231.255 391.054 231.255 392.95L295.925 392.899L295.916 392.89Z" fill="#343736"/>
<path d="M301.141 384.699H15.8594V389H301.141V384.699Z" fill="white"/>
<rect x="13.5" y="13.5" width="294" height="380" stroke="white" stroke-width="27"/>
</svg>
